<svg xmlns="http://www.w3.org/2000/svg" width="740" height="370"><g transform="translate(50, 20)"><g transform="translate(0, 300)"><g class="tick" style="opacity: 1;" transform="translate(0,0)"><line y2="6" x2="0"></line><text dy=".71em" style="text-anchor: middle;" y="9" x="0">0</text></g><g class="tick" style="opacity: 1;" transform="translate(30,0)"><line y2="6" x2="0"></line><text dy=".71em" style="text-anchor: middle;" y="9" x="0">5</text></g><g class="tick" style="opacity: 1;" transform="translate(60,0)"><line y2="6" x2="0"></line><text dy=".71em" style="text-anchor: middle;" y="9" x="0">10</text></g><g class="tick" style="opacity: 1;" transform="translate(90,0)"><line y2="6" x2="0"></line><text dy=".71em" style="text-anchor: middle;" y="9" x="0">15</text></g><g class="tick" style="opacity: 1;" transform="translate(120,0)"><line y2="6" x2="0"></line><text dy=".71em" style="text-anchor: middle;" y="9" x="0">20</text></g><g class="tick" style="opacity: 1;" transform="translate(150,0)"><line y2="6" x2="0"></line><text dy=".71em" style="text-anchor: middle;" y="9" x="0">25</text></g><g class="tick" style="opacity: 1;" transform="translate(180,0)"><line y2="6" x2="0"></line><text dy=".71em" style="text-anchor: middle;" y="9" x="0">30</text></g><g class="tick" style="opacity: 1;" transform="translate(210,0)"><line y2="6" x2="0"></line><text dy=".71em" style="text-anchor: middle;" y="9" x="0">35</text></g><g class="tick" style="opacity: 1;" transform="translate(240,0)"><line y2="6" x2="0"></line><text dy=".71em" style="text-anchor: middle;" y="9" x="0">40</text></g><g class="tick" style="opacity: 1;" transform="translate(270,0)"><line y2="6" x2="0"></line><text dy=".71em" style="text-anchor: middle;" y="9" x="0">45</text></g><g class="tick" style="opacity: 1;" transform="translate(300,0)"><line y2="6" x2="0"></line><text dy=".71em" style="text-anchor: middle;" y="9" x="0">50</text></g><path class="domain" d="M0,6V0H300V6"></path><text x="150" y="35">回数</text></g><g><g class="tick" style="opacity: 1;" transform="translate(0,300)"><line x2="-6" y2="0"></line><text dy=".32em" style="text-anchor: end;" x="-9" y="0">0.0</text></g><g class="tick" style="opacity: 1;" transform="translate(0,270)"><line x2="-6" y2="0"></line><text dy=".32em" style="text-anchor: end;" x="-9" y="0">0.1</text></g><g class="tick" style="opacity: 1;" transform="translate(0,240)"><line x2="-6" y2="0"></line><text dy=".32em" style="text-anchor: end;" x="-9" y="0">0.2</text></g><g class="tick" style="opacity: 1;" transform="translate(0,210)"><line x2="-6" y2="0"></line><text dy=".32em" style="text-anchor: end;" x="-9" y="0">0.3</text></g><g class="tick" style="opacity: 1;" transform="translate(0,180)"><line x2="-6" y2="0"></line><text dy=".32em" style="text-anchor: end;" x="-9" y="0">0.4</text></g><g class="tick" style="opacity: 1;" transform="translate(0,150)"><line x2="-6" y2="0"></line><text dy=".32em" style="text-anchor: end;" x="-9" y="0">0.5</text></g><g class="tick" style="opacity: 1;" transform="translate(0,120)"><line x2="-6" y2="0"></line><text dy=".32em" style="text-anchor: end;" x="-9" y="0">0.6</text></g><g class="tick" style="opacity: 1;" transform="translate(0,90.00000000000001)"><line x2="-6" y2="0"></line><text dy=".32em" style="text-anchor: end;" x="-9" y="0">0.7</text></g><g class="tick" style="opacity: 1;" transform="translate(0,59.999999999999986)"><line x2="-6" y2="0"></line><text dy=".32em" style="text-anchor: end;" x="-9" y="0">0.8</text></g><g class="tick" style="opacity: 1;" transform="translate(0,29.999999999999993)"><line x2="-6" y2="0"></line><text dy=".32em" style="text-anchor: end;" x="-9" y="0">0.9</text></g><g class="tick" style="opacity: 1;" transform="translate(0,0)"><line x2="-6" y2="0"></line><text dy=".32em" style="text-anchor: end;" x="-9" y="0">1.0</text></g><path class="domain" d="M-6,0H0V300H-6"></path><text x="-150" y="-35" transform="rotate(-90)">誤差</text></g><path d="M6,-86.48130514498935L12,-115.64046622065773L18,-78.49460476767125L24,-96.41014352598167L30,-73.21102933835854L36,-118.61531563860662L42.00000000000001,-111.14523451948234L48,-120.50129482061745L54,-220.70501219175299L60,-52.63825349164792L66,-129.68201870091627L72,-111.40871733477888L78,-88.13089660976465L84.00000000000001,-60.47953792922263L90,-101.2981348255999L96,-62.39991997191077L102.00000000000001,-102.09526369367008L108,-81.17867307484357L114,-59.29185610473864L120,-198.2208420517207L126,-63.001576165552265L132,-65.3273182332436L138,-68.16657087563023L144,-85.09353226037548L150,-97.80111909880685L156,-95.14141314623774L162,-125.84685712537218L168.00000000000003,-53.32472552626941L174,-84.8689967544915L180,-73.34123045162238L186,-85.33784045018582L192,-111.5813130575398L198,-152.32466482937818L204.00000000000003,-137.3642087059947L210,-54.802895252147124L216,-155.08201067921743L222,-63.818368858441744L228,-67.66859046236506L234,-104.31416821892432L240,-169.85571361086838L245.99999999999997,-83.38280575684733L252,-54.07186635483872L258,-187.58113172114267L264,-72.2050411411896L270,-349.0166394358755L276,-109.86915411334137L282,-65.41650752893598L288,-67.93551210112018L294,-86.41147161908147L300,-57.310034384816746" stroke="blue" fill="none"></path><path d="M6,-39.42315200371116L12,-29.129265123652015L18,-52.21302482169043L24,-33.85066531707397L30,-73.72946973847998L36,-47.774353619378275L42.00000000000001,-110.79595561937919L48,-104.20346161529585L54,-27.34874852537419L60,-65.39853762347352L66,-57.06555428231146L72,-52.76931772889877L78,-37.04030169336801L84.00000000000001,-47.18067034760842L90,-28.57171629963846L96,-69.51179333731478L102.00000000000001,-48.92824207454933L108,-59.11881605081892L114,-95.40055268569596L120,-37.7307177828454L126,-55.52214643998683L132,-30.95264267230251L138,-53.798121906027L144,-55.08155128421615L150,-40.378562861186L156,-119.53463799735906L162,-33.800642622938135L168.00000000000003,-52.265856932451L174,-38.06311320482254L180,-35.75033920400268L186,-49.52676601833155L192,-60.885316295258775L198,-58.95203737626859L204.00000000000003,-27.49674602511003L210,-92.38177787806525L216,-28.524355633050824L222,-34.319222957989815L228,-45.82367188906369L234,-79.22569372848056L240,-84.41501436037196L245.99999999999997,-28.304593896215646L252,-85.62611909222835L258,-35.002905248293544L264,-143.73234347551232L270,-45.76793272424018L276,-33.62913405737209L282,-49.9341881868044L288,-97.56285584992798L294,-28.340994279763933L300,-68.70406122631347" stroke="red" fill="none"></path></g><g transform="translate(420, 20)"><g transform="translate(0, 300)"><g class="tick" style="opacity: 1;" transform="translate(0,0)"><line y2="6" x2="0"></line><text dy=".71em" style="text-anchor: middle;" y="9" x="0">0</text></g><g class="tick" style="opacity: 1;" transform="translate(30,0)"><line y2="6" x2="0"></line><text dy=".71em" style="text-anchor: middle;" y="9" x="0">5</text></g><g class="tick" style="opacity: 1;" transform="translate(60,0)"><line y2="6" x2="0"></line><text dy=".71em" style="text-anchor: middle;" y="9" x="0">10</text></g><g class="tick" style="opacity: 1;" transform="translate(90,0)"><line y2="6" x2="0"></line><text dy=".71em" style="text-anchor: middle;" y="9" x="0">15</text></g><g class="tick" style="opacity: 1;" transform="translate(120,0)"><line y2="6" x2="0"></line><text dy=".71em" style="text-anchor: middle;" y="9" x="0">20</text></g><g class="tick" style="opacity: 1;" transform="translate(150,0)"><line y2="6" x2="0"></line><text dy=".71em" style="text-anchor: middle;" y="9" x="0">25</text></g><g class="tick" style="opacity: 1;" transform="translate(180,0)"><line y2="6" x2="0"></line><text dy=".71em" style="text-anchor: middle;" y="9" x="0">30</text></g><g class="tick" style="opacity: 1;" transform="translate(210,0)"><line y2="6" x2="0"></line><text dy=".71em" style="text-anchor: middle;" y="9" x="0">35</text></g><g class="tick" style="opacity: 1;" transform="translate(240,0)"><line y2="6" x2="0"></line><text dy=".71em" style="text-anchor: middle;" y="9" x="0">40</text></g><g class="tick" style="opacity: 1;" transform="translate(270,0)"><line y2="6" x2="0"></line><text dy=".71em" style="text-anchor: middle;" y="9" x="0">45</text></g><g class="tick" style="opacity: 1;" transform="translate(300,0)"><line y2="6" x2="0"></line><text dy=".71em" style="text-anchor: middle;" y="9" x="0">50</text></g><path class="domain" d="M0,6V0H300V6"></path><text x="150" y="35">回数</text></g><g><g class="tick" style="opacity: 1;" transform="translate(0,300)"><line x2="-6" y2="0"></line><text dy=".32em" style="text-anchor: end;" x="-9" y="0">0.0</text></g><g class="tick" style="opacity: 1;" transform="translate(0,270)"><line x2="-6" y2="0"></line><text dy=".32em" style="text-anchor: end;" x="-9" y="0">0.1</text></g><g class="tick" style="opacity: 1;" transform="translate(0,240)"><line x2="-6" y2="0"></line><text dy=".32em" style="text-anchor: end;" x="-9" y="0">0.2</text></g><g class="tick" style="opacity: 1;" transform="translate(0,210)"><line x2="-6" y2="0"></line><text dy=".32em" style="text-anchor: end;" x="-9" y="0">0.3</text></g><g class="tick" style="opacity: 1;" transform="translate(0,180)"><line x2="-6" y2="0"></line><text dy=".32em" style="text-anchor: end;" x="-9" y="0">0.4</text></g><g class="tick" style="opacity: 1;" transform="translate(0,150)"><line x2="-6" y2="0"></line><text dy=".32em" style="text-anchor: end;" x="-9" y="0">0.5</text></g><g class="tick" style="opacity: 1;" transform="translate(0,120)"><line x2="-6" y2="0"></line><text dy=".32em" style="text-anchor: end;" x="-9" y="0">0.6</text></g><g class="tick" style="opacity: 1;" transform="translate(0,90.00000000000001)"><line x2="-6" y2="0"></line><text dy=".32em" style="text-anchor: end;" x="-9" y="0">0.7</text></g><g class="tick" style="opacity: 1;" transform="translate(0,59.999999999999986)"><line x2="-6" y2="0"></line><text dy=".32em" style="text-anchor: end;" x="-9" y="0">0.8</text></g><g class="tick" style="opacity: 1;" transform="translate(0,29.999999999999993)"><line x2="-6" y2="0"></line><text dy=".32em" style="text-anchor: end;" x="-9" y="0">0.9</text></g><g class="tick" style="opacity: 1;" transform="translate(0,0)"><line x2="-6" y2="0"></line><text dy=".32em" style="text-anchor: end;" x="-9" y="0">1.0</text></g><path class="domain" d="M-6,0H0V300H-6"></path><text x="-150" y="-35" transform="rotate(-90)">正解率</text></g><path d="M6,200.00000000000003L12,205.71428571428572L18,202.85714285714286L24,202.85714285714286L30,222.85714285714286L36,211.42857142857142L42.00000000000001,217.14285714285714L48,208.57142857142856L54,194.28571428571425L60,177.14285714285714L66,228.57142857142856L72,200.00000000000003L78,211.42857142857142L84.00000000000001,208.57142857142856L90,220.00000000000003L96,208.57142857142856L102.00000000000001,185.71428571428572L108,208.57142857142856L114,182.85714285714286L120,222.85714285714286L126,214.28571428571428L132,200.00000000000003L138,214.28571428571428L144,214.28571428571428L150,200.00000000000003L156,194.28571428571425L162,200.00000000000003L168.00000000000003,191.42857142857142L174,211.42857142857142L180,188.57142857142856L186,217.14285714285714L192,225.71428571428572L198,200.00000000000003L204.00000000000003,194.28571428571425L210,202.85714285714286L216,217.14285714285714L222,202.85714285714286L228,197.14285714285714L234,222.85714285714286L240,202.85714285714286L245.99999999999997,208.57142857142856L252,202.85714285714286L258,200.00000000000003L264,191.42857142857142L270,217.14285714285714L276,200.00000000000003L282,171.42857142857142L288,208.57142857142856L294,191.42857142857142L300,211.42857142857142" stroke="blue" fill="none"></path><path d="M6,213.33333333333334L12,180L18,180L24,180L30,213.33333333333334L36,206.66666666666666L42.00000000000001,213.33333333333334L48,213.33333333333334L54,180L60,206.66666666666666L66,206.66666666666666L72,206.66666666666666L78,213.33333333333334L84.00000000000001,206.66666666666666L90,206.66666666666666L96,213.33333333333334L102.00000000000001,213.33333333333334L108,213.33333333333334L114,213.33333333333334L120,206.66666666666666L126,213.33333333333334L132,206.66666666666666L138,213.33333333333334L144,206.66666666666666L150,206.66666666666666L156,206.66666666666666L162,213.33333333333334L168.00000000000003,213.33333333333334L174,206.66666666666666L180,206.66666666666666L186,213.33333333333334L192,213.33333333333334L198,213.33333333333334L204.00000000000003,180L210,213.33333333333334L216,206.66666666666666L222,180L228,213.33333333333334L234,206.66666666666666L240,206.66666666666666L245.99999999999997,180L252,213.33333333333334L258,180L264,206.66666666666666L270,180L276,213.33333333333334L282,180L288,206.66666666666666L294,180L300,213.33333333333334" stroke="red" fill="none"></path></g></svg>
