<svg xmlns="http://www.w3.org/2000/svg" width="740" height="370"><g transform="translate(50, 20)"><g transform="translate(0, 300)"><g class="tick" style="opacity: 1;" transform="translate(0,0)"><line y2="6" x2="0"></line><text dy=".71em" style="text-anchor: middle;" y="9" x="0">0</text></g><g class="tick" style="opacity: 1;" transform="translate(30,0)"><line y2="6" x2="0"></line><text dy=".71em" style="text-anchor: middle;" y="9" x="0">5</text></g><g class="tick" style="opacity: 1;" transform="translate(60,0)"><line y2="6" x2="0"></line><text dy=".71em" style="text-anchor: middle;" y="9" x="0">10</text></g><g class="tick" style="opacity: 1;" transform="translate(90,0)"><line y2="6" x2="0"></line><text dy=".71em" style="text-anchor: middle;" y="9" x="0">15</text></g><g class="tick" style="opacity: 1;" transform="translate(120,0)"><line y2="6" x2="0"></line><text dy=".71em" style="text-anchor: middle;" y="9" x="0">20</text></g><g class="tick" style="opacity: 1;" transform="translate(150,0)"><line y2="6" x2="0"></line><text dy=".71em" style="text-anchor: middle;" y="9" x="0">25</text></g><g class="tick" style="opacity: 1;" transform="translate(180,0)"><line y2="6" x2="0"></line><text dy=".71em" style="text-anchor: middle;" y="9" x="0">30</text></g><g class="tick" style="opacity: 1;" transform="translate(210,0)"><line y2="6" x2="0"></line><text dy=".71em" style="text-anchor: middle;" y="9" x="0">35</text></g><g class="tick" style="opacity: 1;" transform="translate(240,0)"><line y2="6" x2="0"></line><text dy=".71em" style="text-anchor: middle;" y="9" x="0">40</text></g><g class="tick" style="opacity: 1;" transform="translate(270,0)"><line y2="6" x2="0"></line><text dy=".71em" style="text-anchor: middle;" y="9" x="0">45</text></g><g class="tick" style="opacity: 1;" transform="translate(300,0)"><line y2="6" x2="0"></line><text dy=".71em" style="text-anchor: middle;" y="9" x="0">50</text></g><path class="domain" d="M0,6V0H300V6"></path><text x="150" y="35">回数</text></g><g><g class="tick" style="opacity: 1;" transform="translate(0,300)"><line x2="-6" y2="0"></line><text dy=".32em" style="text-anchor: end;" x="-9" y="0">0.0</text></g><g class="tick" style="opacity: 1;" transform="translate(0,270)"><line x2="-6" y2="0"></line><text dy=".32em" style="text-anchor: end;" x="-9" y="0">0.1</text></g><g class="tick" style="opacity: 1;" transform="translate(0,240)"><line x2="-6" y2="0"></line><text dy=".32em" style="text-anchor: end;" x="-9" y="0">0.2</text></g><g class="tick" style="opacity: 1;" transform="translate(0,210)"><line x2="-6" y2="0"></line><text dy=".32em" style="text-anchor: end;" x="-9" y="0">0.3</text></g><g class="tick" style="opacity: 1;" transform="translate(0,180)"><line x2="-6" y2="0"></line><text dy=".32em" style="text-anchor: end;" x="-9" y="0">0.4</text></g><g class="tick" style="opacity: 1;" transform="translate(0,150)"><line x2="-6" y2="0"></line><text dy=".32em" style="text-anchor: end;" x="-9" y="0">0.5</text></g><g class="tick" style="opacity: 1;" transform="translate(0,120)"><line x2="-6" y2="0"></line><text dy=".32em" style="text-anchor: end;" x="-9" y="0">0.6</text></g><g class="tick" style="opacity: 1;" transform="translate(0,90.00000000000001)"><line x2="-6" y2="0"></line><text dy=".32em" style="text-anchor: end;" x="-9" y="0">0.7</text></g><g class="tick" style="opacity: 1;" transform="translate(0,59.999999999999986)"><line x2="-6" y2="0"></line><text dy=".32em" style="text-anchor: end;" x="-9" y="0">0.8</text></g><g class="tick" style="opacity: 1;" transform="translate(0,29.999999999999993)"><line x2="-6" y2="0"></line><text dy=".32em" style="text-anchor: end;" x="-9" y="0">0.9</text></g><g class="tick" style="opacity: 1;" transform="translate(0,0)"><line x2="-6" y2="0"></line><text dy=".32em" style="text-anchor: end;" x="-9" y="0">1.0</text></g><path class="domain" d="M-6,0H0V300H-6"></path><text x="-150" y="-35" transform="rotate(-90)">誤差</text></g><path d="M6,-168.71904850673297L12,89.03277611238829L18,100.52836136721535L24,112.86978835892926L30,121.04325388048231L36,130.6059102016962L42.00000000000001,138.52026721800007L48,144.7748075684846L54,150.19380019533887L60,156.32144970577139L66,158.9307894679313L72,163.27972183030752L78,165.17759102450225L84.00000000000001,170.18482636590744L90,173.19068323954292L96,175.29540582307465L102.00000000000001,177.5297640049572L108,179.80645816533828L114,183.68580555948532L120,184.77446421112722L126,185.9319194966498L132,187.44489099430083L138,189.21456073582016L144,192.37034936154257L150,197.4377027102443L156,198.0216129200309L162,198.47966608802452L168.00000000000003,200.5207924115363L174,201.7017923800526L180,202.80908889238668L186,204.12051876110888L192,206.16901977316587L198,207.4819001533911L204.00000000000003,208.74475179285875L210,209.30618232985168L216,215.6360202961074L222,213.06996782174124L228,215.39589633437583L234,214.57279380201894L240,215.4874193691028L245.99999999999997,216.16195556084324L252,217.12431111484386L258,219.49780373724423L264,219.62512633005343L270,223.62986509123633L276,221.25595656133424L282,223.33178860087764L288,223.85047381548165L294,223.73080917273737L300,224.69172166280663" stroke="blue" fill="none"></path><path d="M6,65.6387251103965L12,100.5290878333043L18,109.75696429288824L24,119.64437162378279L30,129.72480160880298L36,134.85678526165756L42.00000000000001,139.48033613929346L48,147.73208064698238L54,151.36037319582636L60,151.91374820582658L66,159.8212051372433L72,163.71996397736243L78,166.72265242565723L84.00000000000001,167.81741573409477L90,170.25186410662977L96,174.9808164965764L102.00000000000001,177.0597589065775L108,179.20426603739185L114,180.84910865022636L120,184.52075683644364L126,186.4248301056404L132,189.0611916901809L138,192.08481814525007L144,193.49162917191117L150,187.18074002744848L156,196.94057154927916L162,198.3572475925628L168.00000000000003,198.37580512504118L174,202.11104938178713L180,202.49618753307738L186,204.50471044299286L192,205.53220525458343L198,206.28650636351128L204.00000000000003,209.04764414913473L210,210.24117823513672L216,200.53265175124687L222,212.23661581606908L228,209.01320394551232L234,214.37596791808716L240,214.5807168183944L245.99999999999997,216.46762973748088L252,217.40515050449696L258,216.1727832488612L264,219.1951505041418L270,212.87567381383357L276,220.6343606461548L282,218.32758537059846L288,221.96254023359364L294,222.98641000245217L300,220.9704856092928" stroke="red" fill="none"></path></g><g transform="translate(420, 20)"><g transform="translate(0, 300)"><g class="tick" style="opacity: 1;" transform="translate(0,0)"><line y2="6" x2="0"></line><text dy=".71em" style="text-anchor: middle;" y="9" x="0">0</text></g><g class="tick" style="opacity: 1;" transform="translate(30,0)"><line y2="6" x2="0"></line><text dy=".71em" style="text-anchor: middle;" y="9" x="0">5</text></g><g class="tick" style="opacity: 1;" transform="translate(60,0)"><line y2="6" x2="0"></line><text dy=".71em" style="text-anchor: middle;" y="9" x="0">10</text></g><g class="tick" style="opacity: 1;" transform="translate(90,0)"><line y2="6" x2="0"></line><text dy=".71em" style="text-anchor: middle;" y="9" x="0">15</text></g><g class="tick" style="opacity: 1;" transform="translate(120,0)"><line y2="6" x2="0"></line><text dy=".71em" style="text-anchor: middle;" y="9" x="0">20</text></g><g class="tick" style="opacity: 1;" transform="translate(150,0)"><line y2="6" x2="0"></line><text dy=".71em" style="text-anchor: middle;" y="9" x="0">25</text></g><g class="tick" style="opacity: 1;" transform="translate(180,0)"><line y2="6" x2="0"></line><text dy=".71em" style="text-anchor: middle;" y="9" x="0">30</text></g><g class="tick" style="opacity: 1;" transform="translate(210,0)"><line y2="6" x2="0"></line><text dy=".71em" style="text-anchor: middle;" y="9" x="0">35</text></g><g class="tick" style="opacity: 1;" transform="translate(240,0)"><line y2="6" x2="0"></line><text dy=".71em" style="text-anchor: middle;" y="9" x="0">40</text></g><g class="tick" style="opacity: 1;" transform="translate(270,0)"><line y2="6" x2="0"></line><text dy=".71em" style="text-anchor: middle;" y="9" x="0">45</text></g><g class="tick" style="opacity: 1;" transform="translate(300,0)"><line y2="6" x2="0"></line><text dy=".71em" style="text-anchor: middle;" y="9" x="0">50</text></g><path class="domain" d="M0,6V0H300V6"></path><text x="150" y="35">回数</text></g><g><g class="tick" style="opacity: 1;" transform="translate(0,300)"><line x2="-6" y2="0"></line><text dy=".32em" style="text-anchor: end;" x="-9" y="0">0.0</text></g><g class="tick" style="opacity: 1;" transform="translate(0,270)"><line x2="-6" y2="0"></line><text dy=".32em" style="text-anchor: end;" x="-9" y="0">0.1</text></g><g class="tick" style="opacity: 1;" transform="translate(0,240)"><line x2="-6" y2="0"></line><text dy=".32em" style="text-anchor: end;" x="-9" y="0">0.2</text></g><g class="tick" style="opacity: 1;" transform="translate(0,210)"><line x2="-6" y2="0"></line><text dy=".32em" style="text-anchor: end;" x="-9" y="0">0.3</text></g><g class="tick" style="opacity: 1;" transform="translate(0,180)"><line x2="-6" y2="0"></line><text dy=".32em" style="text-anchor: end;" x="-9" y="0">0.4</text></g><g class="tick" style="opacity: 1;" transform="translate(0,150)"><line x2="-6" y2="0"></line><text dy=".32em" style="text-anchor: end;" x="-9" y="0">0.5</text></g><g class="tick" style="opacity: 1;" transform="translate(0,120)"><line x2="-6" y2="0"></line><text dy=".32em" style="text-anchor: end;" x="-9" y="0">0.6</text></g><g class="tick" style="opacity: 1;" transform="translate(0,90.00000000000001)"><line x2="-6" y2="0"></line><text dy=".32em" style="text-anchor: end;" x="-9" y="0">0.7</text></g><g class="tick" style="opacity: 1;" transform="translate(0,59.999999999999986)"><line x2="-6" y2="0"></line><text dy=".32em" style="text-anchor: end;" x="-9" y="0">0.8</text></g><g class="tick" style="opacity: 1;" transform="translate(0,29.999999999999993)"><line x2="-6" y2="0"></line><text dy=".32em" style="text-anchor: end;" x="-9" y="0">0.9</text></g><g class="tick" style="opacity: 1;" transform="translate(0,0)"><line x2="-6" y2="0"></line><text dy=".32em" style="text-anchor: end;" x="-9" y="0">1.0</text></g><path class="domain" d="M-6,0H0V300H-6"></path><text x="-150" y="-35" transform="rotate(-90)">正解率</text></g><path d="M6,174.28571428571428L12,62.85714285714287L18,62.85714285714287L24,57.14285714285714L30,54.28571428571429L36,57.14285714285714L42.00000000000001,51.42857142857141L48,48.57142857142856L54,59.999999999999986L60,39.99999999999999L66,54.28571428571429L72,45.714285714285715L78,42.85714285714287L84.00000000000001,42.85714285714287L90,39.99999999999999L96,48.57142857142856L102.00000000000001,42.85714285714287L108,54.28571428571429L114,45.714285714285715L120,37.142857142857146L126,42.85714285714287L132,28.57142857142857L138,28.57142857142857L144,25.714285714285722L150,34.2857142857143L156,17.14285714285715L162,22.857142857142843L168.00000000000003,22.857142857142843L174,22.857142857142843L180,25.714285714285722L186,28.57142857142857L192,19.999999999999996L198,22.857142857142843L204.00000000000003,19.999999999999996L210,14.285714285714302L216,19.999999999999996L222,19.999999999999996L228,11.428571428571422L234,14.285714285714302L240,14.285714285714302L245.99999999999997,14.285714285714302L252,11.428571428571422L258,17.14285714285715L264,14.285714285714302L270,11.428571428571422L276,19.999999999999996L282,19.999999999999996L288,14.285714285714302L294,17.14285714285715L300,11.428571428571422" stroke="blue" fill="none"></path><path d="M6,106.66666666666666L12,39.99999999999999L18,39.99999999999999L24,46.666666666666664L30,26.66666666666667L36,33.33333333333335L42.00000000000001,39.99999999999999L48,26.66666666666667L54,33.33333333333335L60,46.666666666666664L66,26.66666666666667L72,26.66666666666667L78,26.66666666666667L84.00000000000001,39.99999999999999L90,26.66666666666667L96,19.999999999999996L102.00000000000001,26.66666666666667L108,13.33333333333332L114,26.66666666666667L120,19.999999999999996L126,19.999999999999996L132,19.999999999999996L138,19.999999999999996L144,19.999999999999996L150,66.66666666666666L156,19.999999999999996L162,19.999999999999996L168.00000000000003,19.999999999999996L174,19.999999999999996L180,13.33333333333332L186,13.33333333333332L192,19.999999999999996L198,13.33333333333332L204.00000000000003,13.33333333333332L210,13.33333333333332L216,59.999999999999986L222,13.33333333333332L228,19.999999999999996L234,13.33333333333332L240,19.999999999999996L245.99999999999997,13.33333333333332L252,13.33333333333332L258,19.999999999999996L264,13.33333333333332L270,19.999999999999996L276,13.33333333333332L282,19.999999999999996L288,13.33333333333332L294,13.33333333333332L300,19.999999999999996" stroke="red" fill="none"></path></g></svg>
