<svg xmlns="http://www.w3.org/2000/svg" width="740" height="370"><g transform="translate(50, 20)"><g transform="translate(0, 300)"><g class="tick" style="opacity: 1;" transform="translate(0,0)"><line y2="6" x2="0"></line><text dy=".71em" style="text-anchor: middle;" y="9" x="0">0</text></g><g class="tick" style="opacity: 1;" transform="translate(30,0)"><line y2="6" x2="0"></line><text dy=".71em" style="text-anchor: middle;" y="9" x="0">5</text></g><g class="tick" style="opacity: 1;" transform="translate(60,0)"><line y2="6" x2="0"></line><text dy=".71em" style="text-anchor: middle;" y="9" x="0">10</text></g><g class="tick" style="opacity: 1;" transform="translate(90,0)"><line y2="6" x2="0"></line><text dy=".71em" style="text-anchor: middle;" y="9" x="0">15</text></g><g class="tick" style="opacity: 1;" transform="translate(120,0)"><line y2="6" x2="0"></line><text dy=".71em" style="text-anchor: middle;" y="9" x="0">20</text></g><g class="tick" style="opacity: 1;" transform="translate(150,0)"><line y2="6" x2="0"></line><text dy=".71em" style="text-anchor: middle;" y="9" x="0">25</text></g><g class="tick" style="opacity: 1;" transform="translate(180,0)"><line y2="6" x2="0"></line><text dy=".71em" style="text-anchor: middle;" y="9" x="0">30</text></g><g class="tick" style="opacity: 1;" transform="translate(210,0)"><line y2="6" x2="0"></line><text dy=".71em" style="text-anchor: middle;" y="9" x="0">35</text></g><g class="tick" style="opacity: 1;" transform="translate(240,0)"><line y2="6" x2="0"></line><text dy=".71em" style="text-anchor: middle;" y="9" x="0">40</text></g><g class="tick" style="opacity: 1;" transform="translate(270,0)"><line y2="6" x2="0"></line><text dy=".71em" style="text-anchor: middle;" y="9" x="0">45</text></g><g class="tick" style="opacity: 1;" transform="translate(300,0)"><line y2="6" x2="0"></line><text dy=".71em" style="text-anchor: middle;" y="9" x="0">50</text></g><path class="domain" d="M0,6V0H300V6"></path><text x="150" y="35">回数</text></g><g><g class="tick" style="opacity: 1;" transform="translate(0,300)"><line x2="-6" y2="0"></line><text dy=".32em" style="text-anchor: end;" x="-9" y="0">0.0</text></g><g class="tick" style="opacity: 1;" transform="translate(0,270)"><line x2="-6" y2="0"></line><text dy=".32em" style="text-anchor: end;" x="-9" y="0">0.1</text></g><g class="tick" style="opacity: 1;" transform="translate(0,240)"><line x2="-6" y2="0"></line><text dy=".32em" style="text-anchor: end;" x="-9" y="0">0.2</text></g><g class="tick" style="opacity: 1;" transform="translate(0,210)"><line x2="-6" y2="0"></line><text dy=".32em" style="text-anchor: end;" x="-9" y="0">0.3</text></g><g class="tick" style="opacity: 1;" transform="translate(0,180)"><line x2="-6" y2="0"></line><text dy=".32em" style="text-anchor: end;" x="-9" y="0">0.4</text></g><g class="tick" style="opacity: 1;" transform="translate(0,150)"><line x2="-6" y2="0"></line><text dy=".32em" style="text-anchor: end;" x="-9" y="0">0.5</text></g><g class="tick" style="opacity: 1;" transform="translate(0,120)"><line x2="-6" y2="0"></line><text dy=".32em" style="text-anchor: end;" x="-9" y="0">0.6</text></g><g class="tick" style="opacity: 1;" transform="translate(0,90.00000000000001)"><line x2="-6" y2="0"></line><text dy=".32em" style="text-anchor: end;" x="-9" y="0">0.7</text></g><g class="tick" style="opacity: 1;" transform="translate(0,59.999999999999986)"><line x2="-6" y2="0"></line><text dy=".32em" style="text-anchor: end;" x="-9" y="0">0.8</text></g><g class="tick" style="opacity: 1;" transform="translate(0,29.999999999999993)"><line x2="-6" y2="0"></line><text dy=".32em" style="text-anchor: end;" x="-9" y="0">0.9</text></g><g class="tick" style="opacity: 1;" transform="translate(0,0)"><line x2="-6" y2="0"></line><text dy=".32em" style="text-anchor: end;" x="-9" y="0">1.0</text></g><path class="domain" d="M-6,0H0V300H-6"></path><text x="-150" y="-35" transform="rotate(-90)">誤差</text></g><path d="M6,99.35724341107898L12,125.45940519599259L18,134.8887270169903L24,143.33999566841445L30,148.02290618624738L36,153.02299714788893L42.00000000000001,155.90928634654844L48,158.4502889934514L54,161.19539792676642L60,163.43005688627662L66,164.81838406811588L72,166.75950903723808L78,169.23334829726048L84.00000000000001,170.16749350957429L90,171.67599009054945L96,174.26927709186873L102.00000000000001,175.7732606242743L108,175.43600046369932L114,176.9019156183935L120,177.59637825277568L126,178.8697426906304L132,179.98491746805166L138,180.90904081735115L144,181.90762958359363L150,182.7986325236547L156,183.79813201794133L162,184.40403249059722L168.00000000000003,184.93243125041087L174,186.044211892063L180,186.7013463890479L186,187.57885913201315L192,187.97187447173326L198,189.13221036471282L204.00000000000003,189.62673536982106L210,190.26206015893013L216,191.00687980245362L222,191.65072424147652L228,192.0661112490363L234,192.57651217266795L240,193.2451738743041L245.99999999999997,193.90771024442114L252,194.40135920378137L258,194.79742878743573L264,195.28774306426445L270,195.88037852418242L276,196.23896006847542L282,197.1200454095907L288,197.5600816380646L294,198.48755283051406L300,198.05388490887597" stroke="blue" fill="none"></path><path d="M6,133.41725886651986L12,142.5450155260717L18,154.52559423652426L24,160.95192085978886L30,163.59839678368934L36,164.06059878223357L42.00000000000001,168.8422261870453L48,171.01120984083406L54,172.10025282336494L60,173.60555777578023L66,178.1650901538261L72,180.43158203243777L78,179.0932607008867L84.00000000000001,182.8748574152438L90,184.34798847919512L96,182.62818900037308L102.00000000000001,187.94153900171116L108,186.61521993662691L114,187.7108719486909L120,189.5891999565856L126,190.01020836391592L132,190.82620169594722L138,192.08278595757716L144,193.4944527650128L150,193.43297509147678L156,195.401837177088L162,196.46994003002158L168.00000000000003,196.61730190969806L174,197.7070851692415L180,197.79331049998711L186,198.92250258938265L192,199.43512327774116L198,199.49293379635233L204.00000000000003,200.7551441505608L210,201.09616818607753L216,201.53707959608076L222,202.07538380981117L228,203.39859981837134L234,203.6105990676373L240,203.89852397608678L245.99999999999997,204.53458854435885L252,204.72064246638305L258,205.5314603121018L264,205.79270188224166L270,206.49204780515277L276,207.14218619930722L282,207.0928650647066L288,207.86859808569417L294,209.3793892645947L300,209.13008448816524" stroke="red" fill="none"></path></g><g transform="translate(420, 20)"><g transform="translate(0, 300)"><g class="tick" style="opacity: 1;" transform="translate(0,0)"><line y2="6" x2="0"></line><text dy=".71em" style="text-anchor: middle;" y="9" x="0">0</text></g><g class="tick" style="opacity: 1;" transform="translate(30,0)"><line y2="6" x2="0"></line><text dy=".71em" style="text-anchor: middle;" y="9" x="0">5</text></g><g class="tick" style="opacity: 1;" transform="translate(60,0)"><line y2="6" x2="0"></line><text dy=".71em" style="text-anchor: middle;" y="9" x="0">10</text></g><g class="tick" style="opacity: 1;" transform="translate(90,0)"><line y2="6" x2="0"></line><text dy=".71em" style="text-anchor: middle;" y="9" x="0">15</text></g><g class="tick" style="opacity: 1;" transform="translate(120,0)"><line y2="6" x2="0"></line><text dy=".71em" style="text-anchor: middle;" y="9" x="0">20</text></g><g class="tick" style="opacity: 1;" transform="translate(150,0)"><line y2="6" x2="0"></line><text dy=".71em" style="text-anchor: middle;" y="9" x="0">25</text></g><g class="tick" style="opacity: 1;" transform="translate(180,0)"><line y2="6" x2="0"></line><text dy=".71em" style="text-anchor: middle;" y="9" x="0">30</text></g><g class="tick" style="opacity: 1;" transform="translate(210,0)"><line y2="6" x2="0"></line><text dy=".71em" style="text-anchor: middle;" y="9" x="0">35</text></g><g class="tick" style="opacity: 1;" transform="translate(240,0)"><line y2="6" x2="0"></line><text dy=".71em" style="text-anchor: middle;" y="9" x="0">40</text></g><g class="tick" style="opacity: 1;" transform="translate(270,0)"><line y2="6" x2="0"></line><text dy=".71em" style="text-anchor: middle;" y="9" x="0">45</text></g><g class="tick" style="opacity: 1;" transform="translate(300,0)"><line y2="6" x2="0"></line><text dy=".71em" style="text-anchor: middle;" y="9" x="0">50</text></g><path class="domain" d="M0,6V0H300V6"></path><text x="150" y="35">回数</text></g><g><g class="tick" style="opacity: 1;" transform="translate(0,300)"><line x2="-6" y2="0"></line><text dy=".32em" style="text-anchor: end;" x="-9" y="0">0.0</text></g><g class="tick" style="opacity: 1;" transform="translate(0,270)"><line x2="-6" y2="0"></line><text dy=".32em" style="text-anchor: end;" x="-9" y="0">0.1</text></g><g class="tick" style="opacity: 1;" transform="translate(0,240)"><line x2="-6" y2="0"></line><text dy=".32em" style="text-anchor: end;" x="-9" y="0">0.2</text></g><g class="tick" style="opacity: 1;" transform="translate(0,210)"><line x2="-6" y2="0"></line><text dy=".32em" style="text-anchor: end;" x="-9" y="0">0.3</text></g><g class="tick" style="opacity: 1;" transform="translate(0,180)"><line x2="-6" y2="0"></line><text dy=".32em" style="text-anchor: end;" x="-9" y="0">0.4</text></g><g class="tick" style="opacity: 1;" transform="translate(0,150)"><line x2="-6" y2="0"></line><text dy=".32em" style="text-anchor: end;" x="-9" y="0">0.5</text></g><g class="tick" style="opacity: 1;" transform="translate(0,120)"><line x2="-6" y2="0"></line><text dy=".32em" style="text-anchor: end;" x="-9" y="0">0.6</text></g><g class="tick" style="opacity: 1;" transform="translate(0,90.00000000000001)"><line x2="-6" y2="0"></line><text dy=".32em" style="text-anchor: end;" x="-9" y="0">0.7</text></g><g class="tick" style="opacity: 1;" transform="translate(0,59.999999999999986)"><line x2="-6" y2="0"></line><text dy=".32em" style="text-anchor: end;" x="-9" y="0">0.8</text></g><g class="tick" style="opacity: 1;" transform="translate(0,29.999999999999993)"><line x2="-6" y2="0"></line><text dy=".32em" style="text-anchor: end;" x="-9" y="0">0.9</text></g><g class="tick" style="opacity: 1;" transform="translate(0,0)"><line x2="-6" y2="0"></line><text dy=".32em" style="text-anchor: end;" x="-9" y="0">1.0</text></g><path class="domain" d="M-6,0H0V300H-6"></path><text x="-150" y="-35" transform="rotate(-90)">正解率</text></g><path d="M6,88.57142857142856L12,97.14285714285712L18,97.14285714285712L24,100.00000000000001L30,88.57142857142856L36,71.42857142857144L42.00000000000001,68.57142857142856L48,45.714285714285715L54,28.57142857142857L60,48.57142857142856L66,51.42857142857141L72,51.42857142857141L78,22.857142857142843L84.00000000000001,31.428571428571416L90,31.428571428571416L96,22.857142857142843L102.00000000000001,39.99999999999999L108,19.999999999999996L114,11.428571428571422L120,19.999999999999996L126,19.999999999999996L132,17.14285714285715L138,14.285714285714302L144,17.14285714285715L150,17.14285714285715L156,19.999999999999996L162,19.999999999999996L168.00000000000003,17.14285714285715L174,11.428571428571422L180,14.285714285714302L186,19.999999999999996L192,14.285714285714302L198,8.571428571428575L204.00000000000003,22.857142857142843L210,14.285714285714302L216,8.571428571428575L222,14.285714285714302L228,11.428571428571422L234,11.428571428571422L240,14.285714285714302L245.99999999999997,14.285714285714302L252,14.285714285714302L258,14.285714285714302L264,11.428571428571422L270,14.285714285714302L276,14.285714285714302L282,5.714285714285728L288,14.285714285714302L294,14.285714285714302L300,11.428571428571422" stroke="blue" fill="none"></path><path d="M6,73.33333333333334L12,106.66666666666666L18,73.33333333333334L24,19.999999999999996L30,73.33333333333334L36,106.66666666666666L42.00000000000001,86.66666666666666L48,86.66666666666666L54,93.33333333333333L60,100.00000000000001L66,26.66666666666667L72,6.666666666666677L78,73.33333333333334L84.00000000000001,6.666666666666677L90,6.666666666666677L96,59.999999999999986L102.00000000000001,0L108,33.33333333333335L114,26.66666666666667L120,6.666666666666677L126,6.666666666666677L132,6.666666666666677L138,6.666666666666677L144,6.666666666666677L150,6.666666666666677L156,6.666666666666677L162,6.666666666666677L168.00000000000003,6.666666666666677L174,6.666666666666677L180,6.666666666666677L186,6.666666666666677L192,6.666666666666677L198,6.666666666666677L204.00000000000003,6.666666666666677L210,6.666666666666677L216,6.666666666666677L222,6.666666666666677L228,6.666666666666677L234,6.666666666666677L240,6.666666666666677L245.99999999999997,6.666666666666677L252,6.666666666666677L258,6.666666666666677L264,6.666666666666677L270,6.666666666666677L276,6.666666666666677L282,6.666666666666677L288,6.666666666666677L294,0L300,6.666666666666677" stroke="red" fill="none"></path></g></svg>
