<svg xmlns="http://www.w3.org/2000/svg" width="740" height="370"><g transform="translate(50, 20)"><g transform="translate(0, 300)"><g class="tick" style="opacity: 1;" transform="translate(0,0)"><line y2="6" x2="0"></line><text dy=".71em" style="text-anchor: middle;" y="9" x="0">0</text></g><g class="tick" style="opacity: 1;" transform="translate(30,0)"><line y2="6" x2="0"></line><text dy=".71em" style="text-anchor: middle;" y="9" x="0">5</text></g><g class="tick" style="opacity: 1;" transform="translate(60,0)"><line y2="6" x2="0"></line><text dy=".71em" style="text-anchor: middle;" y="9" x="0">10</text></g><g class="tick" style="opacity: 1;" transform="translate(90,0)"><line y2="6" x2="0"></line><text dy=".71em" style="text-anchor: middle;" y="9" x="0">15</text></g><g class="tick" style="opacity: 1;" transform="translate(120,0)"><line y2="6" x2="0"></line><text dy=".71em" style="text-anchor: middle;" y="9" x="0">20</text></g><g class="tick" style="opacity: 1;" transform="translate(150,0)"><line y2="6" x2="0"></line><text dy=".71em" style="text-anchor: middle;" y="9" x="0">25</text></g><g class="tick" style="opacity: 1;" transform="translate(180,0)"><line y2="6" x2="0"></line><text dy=".71em" style="text-anchor: middle;" y="9" x="0">30</text></g><g class="tick" style="opacity: 1;" transform="translate(210,0)"><line y2="6" x2="0"></line><text dy=".71em" style="text-anchor: middle;" y="9" x="0">35</text></g><g class="tick" style="opacity: 1;" transform="translate(240,0)"><line y2="6" x2="0"></line><text dy=".71em" style="text-anchor: middle;" y="9" x="0">40</text></g><g class="tick" style="opacity: 1;" transform="translate(270,0)"><line y2="6" x2="0"></line><text dy=".71em" style="text-anchor: middle;" y="9" x="0">45</text></g><g class="tick" style="opacity: 1;" transform="translate(300,0)"><line y2="6" x2="0"></line><text dy=".71em" style="text-anchor: middle;" y="9" x="0">50</text></g><path class="domain" d="M0,6V0H300V6"></path><text x="150" y="35">回数</text></g><g><g class="tick" style="opacity: 1;" transform="translate(0,300)"><line x2="-6" y2="0"></line><text dy=".32em" style="text-anchor: end;" x="-9" y="0">0.0</text></g><g class="tick" style="opacity: 1;" transform="translate(0,270)"><line x2="-6" y2="0"></line><text dy=".32em" style="text-anchor: end;" x="-9" y="0">0.1</text></g><g class="tick" style="opacity: 1;" transform="translate(0,240)"><line x2="-6" y2="0"></line><text dy=".32em" style="text-anchor: end;" x="-9" y="0">0.2</text></g><g class="tick" style="opacity: 1;" transform="translate(0,210)"><line x2="-6" y2="0"></line><text dy=".32em" style="text-anchor: end;" x="-9" y="0">0.3</text></g><g class="tick" style="opacity: 1;" transform="translate(0,180)"><line x2="-6" y2="0"></line><text dy=".32em" style="text-anchor: end;" x="-9" y="0">0.4</text></g><g class="tick" style="opacity: 1;" transform="translate(0,150)"><line x2="-6" y2="0"></line><text dy=".32em" style="text-anchor: end;" x="-9" y="0">0.5</text></g><g class="tick" style="opacity: 1;" transform="translate(0,120)"><line x2="-6" y2="0"></line><text dy=".32em" style="text-anchor: end;" x="-9" y="0">0.6</text></g><g class="tick" style="opacity: 1;" transform="translate(0,90.00000000000001)"><line x2="-6" y2="0"></line><text dy=".32em" style="text-anchor: end;" x="-9" y="0">0.7</text></g><g class="tick" style="opacity: 1;" transform="translate(0,59.999999999999986)"><line x2="-6" y2="0"></line><text dy=".32em" style="text-anchor: end;" x="-9" y="0">0.8</text></g><g class="tick" style="opacity: 1;" transform="translate(0,29.999999999999993)"><line x2="-6" y2="0"></line><text dy=".32em" style="text-anchor: end;" x="-9" y="0">0.9</text></g><g class="tick" style="opacity: 1;" transform="translate(0,0)"><line x2="-6" y2="0"></line><text dy=".32em" style="text-anchor: end;" x="-9" y="0">1.0</text></g><path class="domain" d="M-6,0H0V300H-6"></path><text x="-150" y="-35" transform="rotate(-90)">誤差</text></g><path d="M6,-1141.4156870591123L12,-31182.96028047205L18,-7338.233227400774L24,-12264.368424316779L30,-3521.600597843146L36,-146.51385300240298L42.00000000000001,-2094.5458114270573L48,-269.76542799435487L54,-227.169658607178L60,-4866.043259354451L66,-306.8892435708841L72,-746.190819686698L78,-2946.036793831759L84.00000000000001,-440.32027354792217L90,-249.46894157963894L96,119.63723392249118L102.00000000000001,-1256.0151953269838L108,-1935.3469442782177L114,-6301.175292776442L120,-2475.477737356762L126,-370.3390170819742L132,-309.29869760518056L138,-240.26244347153883L144,-64.70683148537087L150,183.3376645831794L156,-261.09782192231L162,-222.42499226760805L168.00000000000003,47.2244298387639L174,-38.615102440372965L180,-534.4346128685534L186,-10321.486725319259L192,-641.7166198149903L198,-271.05324730262345L204.00000000000003,-200.8382315983507L210,-176.80416539538294L216,-19.41343981590544L222,-7.802261880831041L228,73.00574133236178L234,138.22505494879454L240,-4748.740407529806L245.99999999999997,-1069.7971155051325L252,-35.956661303045L258,-91.31644957652172L264,123.55206838954379L270,-388.52045267271063L276,-156.34163920671253L282,-1152.023355423755L288,-4118.195105405149L294,-48.32408516378193L300,62.34511953943155" stroke="blue" fill="none"></path><path d="M6,-2917.17183141058L12,-2808.571123133065L18,-1870.4369830888945L24,11.15950641081358L30,299.8020933043839L36,218.82943462204523L42.00000000000001,299.79568526270515L48,291.7990833966737L54,-129.19742730753796L60,299.9237661703575L66,297.03766511855963L72,-726.527533639448L78,299.96517776072574L84.00000000000001,299.08800999551954L90,292.51409096854667L96,299.50845766452244L102.00000000000001,74.43382442154201L108,-142.32052164043336L114,-242.2530032337685L120,247.21354886549773L126,27.326287275169612L132,294.0261902540137L138,286.89344650030125L144,299.9999920427089L150,260.2086782701065L156,257.8035611420496L162,299.9999858036856L168.00000000000003,273.3230812456918L174,299.9999950692001L180,-1056.6713495994986L186,-61.43140774538549L192,189.3410244631416L198,297.6781590365201L204.00000000000003,165.51505876468283L210,299.99991099358056L216,292.4670904056589L222,285.17016136740784L228,299.7391121682941L234,-289.3042694102838L240,-784.2095113551742L245.99999999999997,299.99999903501146L252,240.8502612612091L258,236.68655657163887L264,-11.26847413960892L270,299.99997342964457L276,-582.4159101484961L282,-204.82930427455398L288,299.9999781351329L294,299.9702944807757L300,299.99980044590114" stroke="red" fill="none"></path></g><g transform="translate(420, 20)"><g transform="translate(0, 300)"><g class="tick" style="opacity: 1;" transform="translate(0,0)"><line y2="6" x2="0"></line><text dy=".71em" style="text-anchor: middle;" y="9" x="0">0</text></g><g class="tick" style="opacity: 1;" transform="translate(30,0)"><line y2="6" x2="0"></line><text dy=".71em" style="text-anchor: middle;" y="9" x="0">5</text></g><g class="tick" style="opacity: 1;" transform="translate(60,0)"><line y2="6" x2="0"></line><text dy=".71em" style="text-anchor: middle;" y="9" x="0">10</text></g><g class="tick" style="opacity: 1;" transform="translate(90,0)"><line y2="6" x2="0"></line><text dy=".71em" style="text-anchor: middle;" y="9" x="0">15</text></g><g class="tick" style="opacity: 1;" transform="translate(120,0)"><line y2="6" x2="0"></line><text dy=".71em" style="text-anchor: middle;" y="9" x="0">20</text></g><g class="tick" style="opacity: 1;" transform="translate(150,0)"><line y2="6" x2="0"></line><text dy=".71em" style="text-anchor: middle;" y="9" x="0">25</text></g><g class="tick" style="opacity: 1;" transform="translate(180,0)"><line y2="6" x2="0"></line><text dy=".71em" style="text-anchor: middle;" y="9" x="0">30</text></g><g class="tick" style="opacity: 1;" transform="translate(210,0)"><line y2="6" x2="0"></line><text dy=".71em" style="text-anchor: middle;" y="9" x="0">35</text></g><g class="tick" style="opacity: 1;" transform="translate(240,0)"><line y2="6" x2="0"></line><text dy=".71em" style="text-anchor: middle;" y="9" x="0">40</text></g><g class="tick" style="opacity: 1;" transform="translate(270,0)"><line y2="6" x2="0"></line><text dy=".71em" style="text-anchor: middle;" y="9" x="0">45</text></g><g class="tick" style="opacity: 1;" transform="translate(300,0)"><line y2="6" x2="0"></line><text dy=".71em" style="text-anchor: middle;" y="9" x="0">50</text></g><path class="domain" d="M0,6V0H300V6"></path><text x="150" y="35">回数</text></g><g><g class="tick" style="opacity: 1;" transform="translate(0,300)"><line x2="-6" y2="0"></line><text dy=".32em" style="text-anchor: end;" x="-9" y="0">0.0</text></g><g class="tick" style="opacity: 1;" transform="translate(0,270)"><line x2="-6" y2="0"></line><text dy=".32em" style="text-anchor: end;" x="-9" y="0">0.1</text></g><g class="tick" style="opacity: 1;" transform="translate(0,240)"><line x2="-6" y2="0"></line><text dy=".32em" style="text-anchor: end;" x="-9" y="0">0.2</text></g><g class="tick" style="opacity: 1;" transform="translate(0,210)"><line x2="-6" y2="0"></line><text dy=".32em" style="text-anchor: end;" x="-9" y="0">0.3</text></g><g class="tick" style="opacity: 1;" transform="translate(0,180)"><line x2="-6" y2="0"></line><text dy=".32em" style="text-anchor: end;" x="-9" y="0">0.4</text></g><g class="tick" style="opacity: 1;" transform="translate(0,150)"><line x2="-6" y2="0"></line><text dy=".32em" style="text-anchor: end;" x="-9" y="0">0.5</text></g><g class="tick" style="opacity: 1;" transform="translate(0,120)"><line x2="-6" y2="0"></line><text dy=".32em" style="text-anchor: end;" x="-9" y="0">0.6</text></g><g class="tick" style="opacity: 1;" transform="translate(0,90.00000000000001)"><line x2="-6" y2="0"></line><text dy=".32em" style="text-anchor: end;" x="-9" y="0">0.7</text></g><g class="tick" style="opacity: 1;" transform="translate(0,59.999999999999986)"><line x2="-6" y2="0"></line><text dy=".32em" style="text-anchor: end;" x="-9" y="0">0.8</text></g><g class="tick" style="opacity: 1;" transform="translate(0,29.999999999999993)"><line x2="-6" y2="0"></line><text dy=".32em" style="text-anchor: end;" x="-9" y="0">0.9</text></g><g class="tick" style="opacity: 1;" transform="translate(0,0)"><line x2="-6" y2="0"></line><text dy=".32em" style="text-anchor: end;" x="-9" y="0">1.0</text></g><path class="domain" d="M-6,0H0V300H-6"></path><text x="-150" y="-35" transform="rotate(-90)">正解率</text></g><path d="M6,114.28571428571428L12,160L18,111.42857142857143L24,117.14285714285712L30,74.28571428571429L36,42.85714285714287L42.00000000000001,42.85714285714287L48,39.99999999999999L54,31.428571428571416L60,48.57142857142856L66,28.57142857142857L72,57.14285714285714L78,59.999999999999986L84.00000000000001,34.2857142857143L90,34.2857142857143L96,19.999999999999996L102.00000000000001,51.42857142857141L108,34.2857142857143L114,68.57142857142856L120,62.85714285714287L126,28.57142857142857L132,25.714285714285722L138,25.714285714285722L144,22.857142857142843L150,14.285714285714302L156,28.57142857142857L162,25.714285714285722L168.00000000000003,11.428571428571422L174,19.999999999999996L180,31.428571428571416L186,62.85714285714287L192,31.428571428571416L198,37.142857142857146L204.00000000000003,25.714285714285722L210,31.428571428571416L216,19.999999999999996L222,22.857142857142843L228,25.714285714285722L234,14.285714285714302L240,68.57142857142856L245.99999999999997,51.42857142857141L252,19.999999999999996L258,28.57142857142857L264,17.14285714285715L270,34.2857142857143L276,22.857142857142843L282,34.2857142857143L288,77.14285714285714L294,19.999999999999996L300,17.14285714285715" stroke="blue" fill="none"></path><path d="M6,113.33333333333333L12,80.00000000000001L18,80.00000000000001L24,39.99999999999999L30,0L36,19.999999999999996L42.00000000000001,0L48,6.666666666666677L54,46.666666666666664L60,0L66,0L72,46.666666666666664L78,0L84.00000000000001,0L90,6.666666666666677L96,0L102.00000000000001,33.33333333333335L108,46.666666666666664L114,39.99999999999999L120,13.33333333333332L126,19.999999999999996L132,6.666666666666677L138,6.666666666666677L144,0L150,13.33333333333332L156,13.33333333333332L162,0L168.00000000000003,13.33333333333332L174,0L180,66.66666666666666L186,39.99999999999999L192,13.33333333333332L198,0L204.00000000000003,13.33333333333332L210,0L216,6.666666666666677L222,6.666666666666677L228,0L234,46.666666666666664L240,39.99999999999999L245.99999999999997,0L252,13.33333333333332L258,13.33333333333332L264,19.999999999999996L270,0L276,39.99999999999999L282,33.33333333333335L288,0L294,0L300,0" stroke="red" fill="none"></path></g></svg>
