<svg xmlns="http://www.w3.org/2000/svg" width="740" height="370"><g transform="translate(50, 20)"><g transform="translate(0, 300)"><g class="tick" style="opacity: 1;" transform="translate(0,0)"><line y2="6" x2="0"></line><text dy=".71em" style="text-anchor: middle;" y="9" x="0">0</text></g><g class="tick" style="opacity: 1;" transform="translate(30,0)"><line y2="6" x2="0"></line><text dy=".71em" style="text-anchor: middle;" y="9" x="0">5</text></g><g class="tick" style="opacity: 1;" transform="translate(60,0)"><line y2="6" x2="0"></line><text dy=".71em" style="text-anchor: middle;" y="9" x="0">10</text></g><g class="tick" style="opacity: 1;" transform="translate(90,0)"><line y2="6" x2="0"></line><text dy=".71em" style="text-anchor: middle;" y="9" x="0">15</text></g><g class="tick" style="opacity: 1;" transform="translate(120,0)"><line y2="6" x2="0"></line><text dy=".71em" style="text-anchor: middle;" y="9" x="0">20</text></g><g class="tick" style="opacity: 1;" transform="translate(150,0)"><line y2="6" x2="0"></line><text dy=".71em" style="text-anchor: middle;" y="9" x="0">25</text></g><g class="tick" style="opacity: 1;" transform="translate(180,0)"><line y2="6" x2="0"></line><text dy=".71em" style="text-anchor: middle;" y="9" x="0">30</text></g><g class="tick" style="opacity: 1;" transform="translate(210,0)"><line y2="6" x2="0"></line><text dy=".71em" style="text-anchor: middle;" y="9" x="0">35</text></g><g class="tick" style="opacity: 1;" transform="translate(240,0)"><line y2="6" x2="0"></line><text dy=".71em" style="text-anchor: middle;" y="9" x="0">40</text></g><g class="tick" style="opacity: 1;" transform="translate(270,0)"><line y2="6" x2="0"></line><text dy=".71em" style="text-anchor: middle;" y="9" x="0">45</text></g><g class="tick" style="opacity: 1;" transform="translate(300,0)"><line y2="6" x2="0"></line><text dy=".71em" style="text-anchor: middle;" y="9" x="0">50</text></g><path class="domain" d="M0,6V0H300V6"></path><text x="150" y="35">回数</text></g><g><g class="tick" style="opacity: 1;" transform="translate(0,300)"><line x2="-6" y2="0"></line><text dy=".32em" style="text-anchor: end;" x="-9" y="0">0.0</text></g><g class="tick" style="opacity: 1;" transform="translate(0,270)"><line x2="-6" y2="0"></line><text dy=".32em" style="text-anchor: end;" x="-9" y="0">0.1</text></g><g class="tick" style="opacity: 1;" transform="translate(0,240)"><line x2="-6" y2="0"></line><text dy=".32em" style="text-anchor: end;" x="-9" y="0">0.2</text></g><g class="tick" style="opacity: 1;" transform="translate(0,210)"><line x2="-6" y2="0"></line><text dy=".32em" style="text-anchor: end;" x="-9" y="0">0.3</text></g><g class="tick" style="opacity: 1;" transform="translate(0,180)"><line x2="-6" y2="0"></line><text dy=".32em" style="text-anchor: end;" x="-9" y="0">0.4</text></g><g class="tick" style="opacity: 1;" transform="translate(0,150)"><line x2="-6" y2="0"></line><text dy=".32em" style="text-anchor: end;" x="-9" y="0">0.5</text></g><g class="tick" style="opacity: 1;" transform="translate(0,120)"><line x2="-6" y2="0"></line><text dy=".32em" style="text-anchor: end;" x="-9" y="0">0.6</text></g><g class="tick" style="opacity: 1;" transform="translate(0,90.00000000000001)"><line x2="-6" y2="0"></line><text dy=".32em" style="text-anchor: end;" x="-9" y="0">0.7</text></g><g class="tick" style="opacity: 1;" transform="translate(0,59.999999999999986)"><line x2="-6" y2="0"></line><text dy=".32em" style="text-anchor: end;" x="-9" y="0">0.8</text></g><g class="tick" style="opacity: 1;" transform="translate(0,29.999999999999993)"><line x2="-6" y2="0"></line><text dy=".32em" style="text-anchor: end;" x="-9" y="0">0.9</text></g><g class="tick" style="opacity: 1;" transform="translate(0,0)"><line x2="-6" y2="0"></line><text dy=".32em" style="text-anchor: end;" x="-9" y="0">1.0</text></g><path class="domain" d="M-6,0H0V300H-6"></path><text x="-150" y="-35" transform="rotate(-90)">誤差</text></g><path d="M6,-99.005895402243L12,-32.367836165585985L18,-18.062970448953884L24,-9.848789689595417L30,-4.248113655710628L36,-0.06177096849304675L42.00000000000001,2.9025052847382105L48,5.489562825938377L54,7.722303794311369L60,9.613016605863345L66,11.692062527753466L72,13.305750208994727L78,15.166121925606346L84.00000000000001,17.012427534627406L90,18.620700182617334L96,20.11573933895128L102.00000000000001,21.760529645426587L108,23.245898155253876L114,24.65815778512327L120,25.88423434595105L126,27.388497958666203L132,28.952985429410294L138,30.241066338404178L144,31.635308658540573L150,32.93320006767711L156,34.36907931095637L162,35.690582324449295L168.00000000000003,37.00025017491204L174,38.246252645617254L180,39.369156417378704L186,40.73148384555131L192,41.92237573227842L198,43.170822301682186L204.00000000000003,44.549651153788574L210,45.7381751527214L216,46.97831510681099L222,48.10102049296786L228,49.29066162234551L234,50.41426423843514L240,51.57450966125631L245.99999999999997,52.805302738876215L252,53.99806121534263L258,55.22517774628284L264,56.41015496812235L270,57.57094313388988L276,58.67300582151269L282,59.844831951815L288,61.1149219822136L294,62.26350601718011L300,63.387514131430954" stroke="blue" fill="none"></path><path d="M6,11.76698654862054L12,17.40512600028552L18,24.22744322782662L24,28.658845200328752L30,31.751322674439507L36,34.51052721486679L42.00000000000001,36.66158323926575L48,38.78371825432849L54,41.00431856459128L60,43.05989017465017L66,44.68696302921872L72,46.41689249805092L78,47.93021230160595L84.00000000000001,49.41239965575639L90,50.91542784955251L96,52.294863154208606L102.00000000000001,53.71932408396447L108,55.24160327460652L114,56.64506878567085L120,57.77032603384276L126,58.91642145410629L132,60.172210580713184L138,61.301427955790984L144,62.349544585689266L150,63.44166794749096L156,64.44804287837164L162,65.59523583392989L168.00000000000003,66.80360283620958L174,67.9439649453261L180,69.05419254443511L186,70.0751049354203L192,71.01111926992904L198,72.01796345258099L204.00000000000003,72.97218117115995L210,74.06989762895573L216,75.03554578413025L222,76.12856613958014L228,77.11095128259574L234,78.24262106615726L240,79.21443678986181L245.99999999999997,80.08937612701979L252,81.04660941756119L258,82.00293909925523L264,82.92405314375931L270,83.96261738220409L276,84.92443216444386L282,85.83791424196961L288,86.77454511316347L294,87.71699306330805L300,88.64236003858979" stroke="red" fill="none"></path></g><g transform="translate(420, 20)"><g transform="translate(0, 300)"><g class="tick" style="opacity: 1;" transform="translate(0,0)"><line y2="6" x2="0"></line><text dy=".71em" style="text-anchor: middle;" y="9" x="0">0</text></g><g class="tick" style="opacity: 1;" transform="translate(30,0)"><line y2="6" x2="0"></line><text dy=".71em" style="text-anchor: middle;" y="9" x="0">5</text></g><g class="tick" style="opacity: 1;" transform="translate(60,0)"><line y2="6" x2="0"></line><text dy=".71em" style="text-anchor: middle;" y="9" x="0">10</text></g><g class="tick" style="opacity: 1;" transform="translate(90,0)"><line y2="6" x2="0"></line><text dy=".71em" style="text-anchor: middle;" y="9" x="0">15</text></g><g class="tick" style="opacity: 1;" transform="translate(120,0)"><line y2="6" x2="0"></line><text dy=".71em" style="text-anchor: middle;" y="9" x="0">20</text></g><g class="tick" style="opacity: 1;" transform="translate(150,0)"><line y2="6" x2="0"></line><text dy=".71em" style="text-anchor: middle;" y="9" x="0">25</text></g><g class="tick" style="opacity: 1;" transform="translate(180,0)"><line y2="6" x2="0"></line><text dy=".71em" style="text-anchor: middle;" y="9" x="0">30</text></g><g class="tick" style="opacity: 1;" transform="translate(210,0)"><line y2="6" x2="0"></line><text dy=".71em" style="text-anchor: middle;" y="9" x="0">35</text></g><g class="tick" style="opacity: 1;" transform="translate(240,0)"><line y2="6" x2="0"></line><text dy=".71em" style="text-anchor: middle;" y="9" x="0">40</text></g><g class="tick" style="opacity: 1;" transform="translate(270,0)"><line y2="6" x2="0"></line><text dy=".71em" style="text-anchor: middle;" y="9" x="0">45</text></g><g class="tick" style="opacity: 1;" transform="translate(300,0)"><line y2="6" x2="0"></line><text dy=".71em" style="text-anchor: middle;" y="9" x="0">50</text></g><path class="domain" d="M0,6V0H300V6"></path><text x="150" y="35">回数</text></g><g><g class="tick" style="opacity: 1;" transform="translate(0,300)"><line x2="-6" y2="0"></line><text dy=".32em" style="text-anchor: end;" x="-9" y="0">0.0</text></g><g class="tick" style="opacity: 1;" transform="translate(0,270)"><line x2="-6" y2="0"></line><text dy=".32em" style="text-anchor: end;" x="-9" y="0">0.1</text></g><g class="tick" style="opacity: 1;" transform="translate(0,240)"><line x2="-6" y2="0"></line><text dy=".32em" style="text-anchor: end;" x="-9" y="0">0.2</text></g><g class="tick" style="opacity: 1;" transform="translate(0,210)"><line x2="-6" y2="0"></line><text dy=".32em" style="text-anchor: end;" x="-9" y="0">0.3</text></g><g class="tick" style="opacity: 1;" transform="translate(0,180)"><line x2="-6" y2="0"></line><text dy=".32em" style="text-anchor: end;" x="-9" y="0">0.4</text></g><g class="tick" style="opacity: 1;" transform="translate(0,150)"><line x2="-6" y2="0"></line><text dy=".32em" style="text-anchor: end;" x="-9" y="0">0.5</text></g><g class="tick" style="opacity: 1;" transform="translate(0,120)"><line x2="-6" y2="0"></line><text dy=".32em" style="text-anchor: end;" x="-9" y="0">0.6</text></g><g class="tick" style="opacity: 1;" transform="translate(0,90.00000000000001)"><line x2="-6" y2="0"></line><text dy=".32em" style="text-anchor: end;" x="-9" y="0">0.7</text></g><g class="tick" style="opacity: 1;" transform="translate(0,59.999999999999986)"><line x2="-6" y2="0"></line><text dy=".32em" style="text-anchor: end;" x="-9" y="0">0.8</text></g><g class="tick" style="opacity: 1;" transform="translate(0,29.999999999999993)"><line x2="-6" y2="0"></line><text dy=".32em" style="text-anchor: end;" x="-9" y="0">0.9</text></g><g class="tick" style="opacity: 1;" transform="translate(0,0)"><line x2="-6" y2="0"></line><text dy=".32em" style="text-anchor: end;" x="-9" y="0">1.0</text></g><path class="domain" d="M-6,0H0V300H-6"></path><text x="-150" y="-35" transform="rotate(-90)">正解率</text></g><path d="M6,220.00000000000003L12,220.00000000000003L18,217.14285714285714L24,214.28571428571428L30,217.14285714285714L36,220.00000000000003L42.00000000000001,217.14285714285714L48,214.28571428571428L54,211.42857142857142L60,205.71428571428572L66,214.28571428571428L72,214.28571428571428L78,214.28571428571428L84.00000000000001,211.42857142857142L90,214.28571428571428L96,214.28571428571428L102.00000000000001,214.28571428571428L108,208.57142857142856L114,211.42857142857142L120,214.28571428571428L126,214.28571428571428L132,208.57142857142856L138,208.57142857142856L144,211.42857142857142L150,200.00000000000003L156,202.85714285714286L162,188.57142857142856L168.00000000000003,171.42857142857142L174,154.28571428571428L180,137.14285714285717L186,137.14285714285717L192,125.7142857142857L198,128.57142857142858L204.00000000000003,117.14285714285712L210,108.57142857142858L216,114.28571428571428L222,105.71428571428571L228,108.57142857142858L234,102.85714285714286L240,108.57142857142858L245.99999999999997,100.00000000000001L252,100.00000000000001L258,102.85714285714286L264,100.00000000000001L270,97.14285714285712L276,97.14285714285712L282,97.14285714285712L288,100.00000000000001L294,100.00000000000001L300,100.00000000000001" stroke="blue" fill="none"></path><path d="M6,153.33333333333331L12,153.33333333333331L18,153.33333333333331L24,146.66666666666669L30,146.66666666666669L36,146.66666666666669L42.00000000000001,146.66666666666669L48,146.66666666666669L54,146.66666666666669L60,146.66666666666669L66,146.66666666666669L72,146.66666666666669L78,146.66666666666669L84.00000000000001,146.66666666666669L90,146.66666666666669L96,146.66666666666669L102.00000000000001,146.66666666666669L108,146.66666666666669L114,146.66666666666669L120,146.66666666666669L126,140L132,140L138,140L144,140L150,140L156,133.33333333333331L162,120L168.00000000000003,106.66666666666666L174,93.33333333333333L180,80.00000000000001L186,80.00000000000001L192,73.33333333333334L198,66.66666666666666L204.00000000000003,66.66666666666666L210,66.66666666666666L216,66.66666666666666L222,66.66666666666666L228,66.66666666666666L234,66.66666666666666L240,66.66666666666666L245.99999999999997,66.66666666666666L252,66.66666666666666L258,66.66666666666666L264,59.999999999999986L270,66.66666666666666L276,59.999999999999986L282,59.999999999999986L288,59.999999999999986L294,59.999999999999986L300,59.999999999999986" stroke="red" fill="none"></path></g></svg>
