<svg xmlns="http://www.w3.org/2000/svg" width="740" height="370"><g transform="translate(50, 20)"><g transform="translate(0, 300)"><g class="tick" style="opacity: 1;" transform="translate(0,0)"><line y2="6" x2="0"></line><text dy=".71em" style="text-anchor: middle;" y="9" x="0">0</text></g><g class="tick" style="opacity: 1;" transform="translate(30,0)"><line y2="6" x2="0"></line><text dy=".71em" style="text-anchor: middle;" y="9" x="0">5</text></g><g class="tick" style="opacity: 1;" transform="translate(60,0)"><line y2="6" x2="0"></line><text dy=".71em" style="text-anchor: middle;" y="9" x="0">10</text></g><g class="tick" style="opacity: 1;" transform="translate(90,0)"><line y2="6" x2="0"></line><text dy=".71em" style="text-anchor: middle;" y="9" x="0">15</text></g><g class="tick" style="opacity: 1;" transform="translate(120,0)"><line y2="6" x2="0"></line><text dy=".71em" style="text-anchor: middle;" y="9" x="0">20</text></g><g class="tick" style="opacity: 1;" transform="translate(150,0)"><line y2="6" x2="0"></line><text dy=".71em" style="text-anchor: middle;" y="9" x="0">25</text></g><g class="tick" style="opacity: 1;" transform="translate(180,0)"><line y2="6" x2="0"></line><text dy=".71em" style="text-anchor: middle;" y="9" x="0">30</text></g><g class="tick" style="opacity: 1;" transform="translate(210,0)"><line y2="6" x2="0"></line><text dy=".71em" style="text-anchor: middle;" y="9" x="0">35</text></g><g class="tick" style="opacity: 1;" transform="translate(240,0)"><line y2="6" x2="0"></line><text dy=".71em" style="text-anchor: middle;" y="9" x="0">40</text></g><g class="tick" style="opacity: 1;" transform="translate(270,0)"><line y2="6" x2="0"></line><text dy=".71em" style="text-anchor: middle;" y="9" x="0">45</text></g><g class="tick" style="opacity: 1;" transform="translate(300,0)"><line y2="6" x2="0"></line><text dy=".71em" style="text-anchor: middle;" y="9" x="0">50</text></g><path class="domain" d="M0,6V0H300V6"></path><text x="150" y="35">回数</text></g><g><g class="tick" style="opacity: 1;" transform="translate(0,300)"><line x2="-6" y2="0"></line><text dy=".32em" style="text-anchor: end;" x="-9" y="0">0.0</text></g><g class="tick" style="opacity: 1;" transform="translate(0,270)"><line x2="-6" y2="0"></line><text dy=".32em" style="text-anchor: end;" x="-9" y="0">0.1</text></g><g class="tick" style="opacity: 1;" transform="translate(0,240)"><line x2="-6" y2="0"></line><text dy=".32em" style="text-anchor: end;" x="-9" y="0">0.2</text></g><g class="tick" style="opacity: 1;" transform="translate(0,210)"><line x2="-6" y2="0"></line><text dy=".32em" style="text-anchor: end;" x="-9" y="0">0.3</text></g><g class="tick" style="opacity: 1;" transform="translate(0,180)"><line x2="-6" y2="0"></line><text dy=".32em" style="text-anchor: end;" x="-9" y="0">0.4</text></g><g class="tick" style="opacity: 1;" transform="translate(0,150)"><line x2="-6" y2="0"></line><text dy=".32em" style="text-anchor: end;" x="-9" y="0">0.5</text></g><g class="tick" style="opacity: 1;" transform="translate(0,120)"><line x2="-6" y2="0"></line><text dy=".32em" style="text-anchor: end;" x="-9" y="0">0.6</text></g><g class="tick" style="opacity: 1;" transform="translate(0,90.00000000000001)"><line x2="-6" y2="0"></line><text dy=".32em" style="text-anchor: end;" x="-9" y="0">0.7</text></g><g class="tick" style="opacity: 1;" transform="translate(0,59.999999999999986)"><line x2="-6" y2="0"></line><text dy=".32em" style="text-anchor: end;" x="-9" y="0">0.8</text></g><g class="tick" style="opacity: 1;" transform="translate(0,29.999999999999993)"><line x2="-6" y2="0"></line><text dy=".32em" style="text-anchor: end;" x="-9" y="0">0.9</text></g><g class="tick" style="opacity: 1;" transform="translate(0,0)"><line x2="-6" y2="0"></line><text dy=".32em" style="text-anchor: end;" x="-9" y="0">1.0</text></g><path class="domain" d="M-6,0H0V300H-6"></path><text x="-150" y="-35" transform="rotate(-90)">誤差</text></g><path d="M6,-101.8419096879682L12,21.54220286435855L18,60.82789644356422L24,81.42625875148467L30,108.50594992524441L36,121.82058055422347L42.00000000000001,132.93706315821737L48,148.56161064247257L54,156.9235028480801L60,160.05846646792716L66,164.6893892406191L72,171.34260319678557L78,179.78812463898126L84.00000000000001,183.43322431913307L90,192.29411094113104L96,199.49077433295835L102.00000000000001,206.8401448725036L108,209.57305753028913L114,213.14048812045144L120,217.68164847667165L126,222.58724484736902L132,225.77131969269863L138,229.47473035098395L144,236.63575319027134L150,239.0839132050283L156,243.78366057316973L162,245.99448122517182L168.00000000000003,248.2831653881577L174,251.29317482040204L180,253.19011811733114L186,253.5384258814298L192,257.02124317677124L198,258.39137816201065L204.00000000000003,258.97924868606543L210,259.5558991361796L216,260.1479705589263L222,262.35868435642L228,264.09475691458954L234,265.2029115810302L240,264.25425924997865L245.99999999999997,265.3628203858874L252,266.3755688344137L258,265.882899152844L264,265.96943803609514L270,268.3579524855144L276,267.7376367737554L282,268.4152700051736L288,268.6629839642777L294,269.28759632936584L300,271.66904446337486" stroke="blue" fill="none"></path><path d="M6,-16.303776243810386L12,42.035627509119934L18,87.60153671637346L24,111.53729141748806L30,119.60247660367422L36,149.83727777571784L42.00000000000001,165.959492708241L48,146.252734519061L54,181.8149498269554L60,188.44046810172998L66,193.460748369632L72,197.50186023053172L78,204.30604041687624L84.00000000000001,207.88577228466866L90,213.169225653477L96,211.65860650103122L102.00000000000001,219.52556664446126L108,223.94516101935554L114,223.92049206000883L120,230.58842214625798L126,234.19752861767233L132,237.9256339625754L138,239.14418514077724L144,244.46655579648L150,246.36285884646594L156,248.6363650059635L162,250.09591290464488L168.00000000000003,250.96458356708249L174,246.2521162579771L180,255.14250291249667L186,257.6487617162036L192,250.20843547605983L198,257.62709093782297L204.00000000000003,260.84331925783533L210,260.0201639119368L216,263.5942322756618L222,255.2199034920919L228,264.03920503237504L234,264.13004458092695L240,259.82870679636227L245.99999999999997,266.69568709600884L252,262.99782396358864L258,268.9217148472788L264,261.21428501720345L270,268.01237809794185L276,267.96315655524927L282,270.42501936506017L288,271.52076304963737L294,269.0653864607031L300,272.132153757014" stroke="red" fill="none"></path></g><g transform="translate(420, 20)"><g transform="translate(0, 300)"><g class="tick" style="opacity: 1;" transform="translate(0,0)"><line y2="6" x2="0"></line><text dy=".71em" style="text-anchor: middle;" y="9" x="0">0</text></g><g class="tick" style="opacity: 1;" transform="translate(30,0)"><line y2="6" x2="0"></line><text dy=".71em" style="text-anchor: middle;" y="9" x="0">5</text></g><g class="tick" style="opacity: 1;" transform="translate(60,0)"><line y2="6" x2="0"></line><text dy=".71em" style="text-anchor: middle;" y="9" x="0">10</text></g><g class="tick" style="opacity: 1;" transform="translate(90,0)"><line y2="6" x2="0"></line><text dy=".71em" style="text-anchor: middle;" y="9" x="0">15</text></g><g class="tick" style="opacity: 1;" transform="translate(120,0)"><line y2="6" x2="0"></line><text dy=".71em" style="text-anchor: middle;" y="9" x="0">20</text></g><g class="tick" style="opacity: 1;" transform="translate(150,0)"><line y2="6" x2="0"></line><text dy=".71em" style="text-anchor: middle;" y="9" x="0">25</text></g><g class="tick" style="opacity: 1;" transform="translate(180,0)"><line y2="6" x2="0"></line><text dy=".71em" style="text-anchor: middle;" y="9" x="0">30</text></g><g class="tick" style="opacity: 1;" transform="translate(210,0)"><line y2="6" x2="0"></line><text dy=".71em" style="text-anchor: middle;" y="9" x="0">35</text></g><g class="tick" style="opacity: 1;" transform="translate(240,0)"><line y2="6" x2="0"></line><text dy=".71em" style="text-anchor: middle;" y="9" x="0">40</text></g><g class="tick" style="opacity: 1;" transform="translate(270,0)"><line y2="6" x2="0"></line><text dy=".71em" style="text-anchor: middle;" y="9" x="0">45</text></g><g class="tick" style="opacity: 1;" transform="translate(300,0)"><line y2="6" x2="0"></line><text dy=".71em" style="text-anchor: middle;" y="9" x="0">50</text></g><path class="domain" d="M0,6V0H300V6"></path><text x="150" y="35">回数</text></g><g><g class="tick" style="opacity: 1;" transform="translate(0,300)"><line x2="-6" y2="0"></line><text dy=".32em" style="text-anchor: end;" x="-9" y="0">0.0</text></g><g class="tick" style="opacity: 1;" transform="translate(0,270)"><line x2="-6" y2="0"></line><text dy=".32em" style="text-anchor: end;" x="-9" y="0">0.1</text></g><g class="tick" style="opacity: 1;" transform="translate(0,240)"><line x2="-6" y2="0"></line><text dy=".32em" style="text-anchor: end;" x="-9" y="0">0.2</text></g><g class="tick" style="opacity: 1;" transform="translate(0,210)"><line x2="-6" y2="0"></line><text dy=".32em" style="text-anchor: end;" x="-9" y="0">0.3</text></g><g class="tick" style="opacity: 1;" transform="translate(0,180)"><line x2="-6" y2="0"></line><text dy=".32em" style="text-anchor: end;" x="-9" y="0">0.4</text></g><g class="tick" style="opacity: 1;" transform="translate(0,150)"><line x2="-6" y2="0"></line><text dy=".32em" style="text-anchor: end;" x="-9" y="0">0.5</text></g><g class="tick" style="opacity: 1;" transform="translate(0,120)"><line x2="-6" y2="0"></line><text dy=".32em" style="text-anchor: end;" x="-9" y="0">0.6</text></g><g class="tick" style="opacity: 1;" transform="translate(0,90.00000000000001)"><line x2="-6" y2="0"></line><text dy=".32em" style="text-anchor: end;" x="-9" y="0">0.7</text></g><g class="tick" style="opacity: 1;" transform="translate(0,59.999999999999986)"><line x2="-6" y2="0"></line><text dy=".32em" style="text-anchor: end;" x="-9" y="0">0.8</text></g><g class="tick" style="opacity: 1;" transform="translate(0,29.999999999999993)"><line x2="-6" y2="0"></line><text dy=".32em" style="text-anchor: end;" x="-9" y="0">0.9</text></g><g class="tick" style="opacity: 1;" transform="translate(0,0)"><line x2="-6" y2="0"></line><text dy=".32em" style="text-anchor: end;" x="-9" y="0">1.0</text></g><path class="domain" d="M-6,0H0V300H-6"></path><text x="-150" y="-35" transform="rotate(-90)">正解率</text></g><path d="M6,200.00000000000003L12,148.57142857142858L18,88.57142857142856L24,105.71428571428571L30,97.14285714285712L36,100.00000000000001L42.00000000000001,85.71428571428571L48,68.57142857142856L54,45.714285714285715L60,62.85714285714287L66,68.57142857142856L72,59.999999999999986L78,37.142857142857146L84.00000000000001,37.142857142857146L90,39.99999999999999L96,31.428571428571416L102.00000000000001,19.999999999999996L108,31.428571428571416L114,19.999999999999996L120,17.14285714285715L126,17.14285714285715L132,17.14285714285715L138,11.428571428571422L144,11.428571428571422L150,11.428571428571422L156,8.571428571428575L162,14.285714285714302L168.00000000000003,11.428571428571422L174,11.428571428571422L180,8.571428571428575L186,5.714285714285728L192,14.285714285714302L198,8.571428571428575L204.00000000000003,8.571428571428575L210,8.571428571428575L216,8.571428571428575L222,5.714285714285728L228,2.857142857142847L234,5.714285714285728L240,5.714285714285728L245.99999999999997,11.428571428571422L252,11.428571428571422L258,2.857142857142847L264,5.714285714285728L270,5.714285714285728L276,14.285714285714302L282,8.571428571428575L288,8.571428571428575L294,8.571428571428575L300,5.714285714285728" stroke="blue" fill="none"></path><path d="M6,120L12,106.66666666666666L18,73.33333333333334L24,80.00000000000001L30,93.33333333333333L36,59.999999999999986L42.00000000000001,73.33333333333334L48,93.33333333333333L54,73.33333333333334L60,33.33333333333335L66,13.33333333333332L72,19.999999999999996L78,59.999999999999986L84.00000000000001,6.666666666666677L90,39.99999999999999L96,13.33333333333332L102.00000000000001,6.666666666666677L108,6.666666666666677L114,6.666666666666677L120,13.33333333333332L126,13.33333333333332L132,13.33333333333332L138,0L144,6.666666666666677L150,13.33333333333332L156,6.666666666666677L162,13.33333333333332L168.00000000000003,19.999999999999996L174,26.66666666666667L180,6.666666666666677L186,6.666666666666677L192,26.66666666666667L198,13.33333333333332L204.00000000000003,0L210,6.666666666666677L216,6.666666666666677L222,26.66666666666667L228,0L234,6.666666666666677L240,26.66666666666667L245.99999999999997,6.666666666666677L252,13.33333333333332L258,6.666666666666677L264,26.66666666666667L270,6.666666666666677L276,6.666666666666677L282,6.666666666666677L288,6.666666666666677L294,6.666666666666677L300,6.666666666666677" stroke="red" fill="none"></path></g></svg>
