<svg xmlns="http://www.w3.org/2000/svg" width="740" height="370"><g transform="translate(50, 20)"><g transform="translate(0, 300)"><g class="tick" style="opacity: 1;" transform="translate(0,0)"><line y2="6" x2="0"></line><text dy=".71em" style="text-anchor: middle;" y="9" x="0">0</text></g><g class="tick" style="opacity: 1;" transform="translate(30,0)"><line y2="6" x2="0"></line><text dy=".71em" style="text-anchor: middle;" y="9" x="0">5</text></g><g class="tick" style="opacity: 1;" transform="translate(60,0)"><line y2="6" x2="0"></line><text dy=".71em" style="text-anchor: middle;" y="9" x="0">10</text></g><g class="tick" style="opacity: 1;" transform="translate(90,0)"><line y2="6" x2="0"></line><text dy=".71em" style="text-anchor: middle;" y="9" x="0">15</text></g><g class="tick" style="opacity: 1;" transform="translate(120,0)"><line y2="6" x2="0"></line><text dy=".71em" style="text-anchor: middle;" y="9" x="0">20</text></g><g class="tick" style="opacity: 1;" transform="translate(150,0)"><line y2="6" x2="0"></line><text dy=".71em" style="text-anchor: middle;" y="9" x="0">25</text></g><g class="tick" style="opacity: 1;" transform="translate(180,0)"><line y2="6" x2="0"></line><text dy=".71em" style="text-anchor: middle;" y="9" x="0">30</text></g><g class="tick" style="opacity: 1;" transform="translate(210,0)"><line y2="6" x2="0"></line><text dy=".71em" style="text-anchor: middle;" y="9" x="0">35</text></g><g class="tick" style="opacity: 1;" transform="translate(240,0)"><line y2="6" x2="0"></line><text dy=".71em" style="text-anchor: middle;" y="9" x="0">40</text></g><g class="tick" style="opacity: 1;" transform="translate(270,0)"><line y2="6" x2="0"></line><text dy=".71em" style="text-anchor: middle;" y="9" x="0">45</text></g><g class="tick" style="opacity: 1;" transform="translate(300,0)"><line y2="6" x2="0"></line><text dy=".71em" style="text-anchor: middle;" y="9" x="0">50</text></g><path class="domain" d="M0,6V0H300V6"></path><text x="150" y="35">回数</text></g><g><g class="tick" style="opacity: 1;" transform="translate(0,300)"><line x2="-6" y2="0"></line><text dy=".32em" style="text-anchor: end;" x="-9" y="0">0.0</text></g><g class="tick" style="opacity: 1;" transform="translate(0,270)"><line x2="-6" y2="0"></line><text dy=".32em" style="text-anchor: end;" x="-9" y="0">0.1</text></g><g class="tick" style="opacity: 1;" transform="translate(0,240)"><line x2="-6" y2="0"></line><text dy=".32em" style="text-anchor: end;" x="-9" y="0">0.2</text></g><g class="tick" style="opacity: 1;" transform="translate(0,210)"><line x2="-6" y2="0"></line><text dy=".32em" style="text-anchor: end;" x="-9" y="0">0.3</text></g><g class="tick" style="opacity: 1;" transform="translate(0,180)"><line x2="-6" y2="0"></line><text dy=".32em" style="text-anchor: end;" x="-9" y="0">0.4</text></g><g class="tick" style="opacity: 1;" transform="translate(0,150)"><line x2="-6" y2="0"></line><text dy=".32em" style="text-anchor: end;" x="-9" y="0">0.5</text></g><g class="tick" style="opacity: 1;" transform="translate(0,120)"><line x2="-6" y2="0"></line><text dy=".32em" style="text-anchor: end;" x="-9" y="0">0.6</text></g><g class="tick" style="opacity: 1;" transform="translate(0,90.00000000000001)"><line x2="-6" y2="0"></line><text dy=".32em" style="text-anchor: end;" x="-9" y="0">0.7</text></g><g class="tick" style="opacity: 1;" transform="translate(0,59.999999999999986)"><line x2="-6" y2="0"></line><text dy=".32em" style="text-anchor: end;" x="-9" y="0">0.8</text></g><g class="tick" style="opacity: 1;" transform="translate(0,29.999999999999993)"><line x2="-6" y2="0"></line><text dy=".32em" style="text-anchor: end;" x="-9" y="0">0.9</text></g><g class="tick" style="opacity: 1;" transform="translate(0,0)"><line x2="-6" y2="0"></line><text dy=".32em" style="text-anchor: end;" x="-9" y="0">1.0</text></g><path class="domain" d="M-6,0H0V300H-6"></path><text x="-150" y="-35" transform="rotate(-90)">誤差</text></g><path d="M6,-1247.882263098548L12,-477.8055475237958L18,-346.8133660739626L24,-270.5291159886044L30,-206.814055604879L36,-158.32103075069327L42.00000000000001,-109.47630914550936L48,-67.03953785826486L54,-31.93338359199247L60,-0.7437778407641371L66,25.576067987444862L72,47.43724030774289L78,68.5118838151018L84.00000000000001,83.76549803269255L90,96.6500510529642L96,106.68346996833827L102.00000000000001,115.00329721953845L108,123.46544312770288L114,130.56972435894022L120,138.14830082695565L126,145.75052903272154L132,150.1166561248237L138,155.20832843701066L144,158.7621540805076L150,163.38475893448455L156,164.13793308346072L162,168.7270616985834L168.00000000000003,171.06638672458675L174,172.48935258841192L180,174.82776634548617L186,178.37570069816329L192,178.57116418461024L198,181.20897246834554L204.00000000000003,182.68776843189988L210,186.3900274415038L216,188.55899907246925L222,188.8437327207215L228,191.4113388063265L234,193.5259083456299L240,196.16364267202985L245.99999999999997,196.4114927188658L252,197.88246935311517L258,201.04984402925865L264,200.58446589245798L270,200.54710179665756L276,200.16541102392372L282,202.5969113357044L288,204.1792796335448L294,205.75074007912843L300,206.8323301300709" stroke="blue" fill="none"></path><path d="M6,-678.7906324935958L12,-395.13309917202275L18,-295.80522359091253L24,-226.2480486262259L30,-187.43474231888112L36,-135.5215939482065L42.00000000000001,-91.86791153932754L48,-47.97255500630904L54,-24.387760646387903L60,6.065661371408304L66,31.686560633337567L72,51.13078812393628L78,72.99371244288213L84.00000000000001,74.78205996638883L90,87.41725894496095L96,98.11458999175586L102.00000000000001,112.95885936623294L108,124.19052420624082L114,130.680456959888L120,138.78517340109138L126,146.5088955661733L132,141.80376969675237L138,155.09213690092184L144,149.7354172839084L150,162.70188899717525L156,159.3292228764181L162,159.79695650493514L168.00000000000003,169.65151766152036L174,171.41474969588367L180,168.77558018851994L186,179.28136739412886L192,177.9259436930106L198,184.30837498219947L204.00000000000003,182.58214355516435L210,183.17783101602834L216,189.086597566351L222,189.1297617640974L228,194.99013597349347L234,186.8070730706178L240,189.89836397422332L245.99999999999997,196.5912160663072L252,196.35724897543915L258,187.09152805340258L264,201.77758615152533L270,204.98232181256822L276,204.93032877373375L282,207.74091199219515L288,207.04531541301606L294,210.14783100928466L300,213.07599451499718" stroke="red" fill="none"></path></g><g transform="translate(420, 20)"><g transform="translate(0, 300)"><g class="tick" style="opacity: 1;" transform="translate(0,0)"><line y2="6" x2="0"></line><text dy=".71em" style="text-anchor: middle;" y="9" x="0">0</text></g><g class="tick" style="opacity: 1;" transform="translate(30,0)"><line y2="6" x2="0"></line><text dy=".71em" style="text-anchor: middle;" y="9" x="0">5</text></g><g class="tick" style="opacity: 1;" transform="translate(60,0)"><line y2="6" x2="0"></line><text dy=".71em" style="text-anchor: middle;" y="9" x="0">10</text></g><g class="tick" style="opacity: 1;" transform="translate(90,0)"><line y2="6" x2="0"></line><text dy=".71em" style="text-anchor: middle;" y="9" x="0">15</text></g><g class="tick" style="opacity: 1;" transform="translate(120,0)"><line y2="6" x2="0"></line><text dy=".71em" style="text-anchor: middle;" y="9" x="0">20</text></g><g class="tick" style="opacity: 1;" transform="translate(150,0)"><line y2="6" x2="0"></line><text dy=".71em" style="text-anchor: middle;" y="9" x="0">25</text></g><g class="tick" style="opacity: 1;" transform="translate(180,0)"><line y2="6" x2="0"></line><text dy=".71em" style="text-anchor: middle;" y="9" x="0">30</text></g><g class="tick" style="opacity: 1;" transform="translate(210,0)"><line y2="6" x2="0"></line><text dy=".71em" style="text-anchor: middle;" y="9" x="0">35</text></g><g class="tick" style="opacity: 1;" transform="translate(240,0)"><line y2="6" x2="0"></line><text dy=".71em" style="text-anchor: middle;" y="9" x="0">40</text></g><g class="tick" style="opacity: 1;" transform="translate(270,0)"><line y2="6" x2="0"></line><text dy=".71em" style="text-anchor: middle;" y="9" x="0">45</text></g><g class="tick" style="opacity: 1;" transform="translate(300,0)"><line y2="6" x2="0"></line><text dy=".71em" style="text-anchor: middle;" y="9" x="0">50</text></g><path class="domain" d="M0,6V0H300V6"></path><text x="150" y="35">回数</text></g><g><g class="tick" style="opacity: 1;" transform="translate(0,300)"><line x2="-6" y2="0"></line><text dy=".32em" style="text-anchor: end;" x="-9" y="0">0.0</text></g><g class="tick" style="opacity: 1;" transform="translate(0,270)"><line x2="-6" y2="0"></line><text dy=".32em" style="text-anchor: end;" x="-9" y="0">0.1</text></g><g class="tick" style="opacity: 1;" transform="translate(0,240)"><line x2="-6" y2="0"></line><text dy=".32em" style="text-anchor: end;" x="-9" y="0">0.2</text></g><g class="tick" style="opacity: 1;" transform="translate(0,210)"><line x2="-6" y2="0"></line><text dy=".32em" style="text-anchor: end;" x="-9" y="0">0.3</text></g><g class="tick" style="opacity: 1;" transform="translate(0,180)"><line x2="-6" y2="0"></line><text dy=".32em" style="text-anchor: end;" x="-9" y="0">0.4</text></g><g class="tick" style="opacity: 1;" transform="translate(0,150)"><line x2="-6" y2="0"></line><text dy=".32em" style="text-anchor: end;" x="-9" y="0">0.5</text></g><g class="tick" style="opacity: 1;" transform="translate(0,120)"><line x2="-6" y2="0"></line><text dy=".32em" style="text-anchor: end;" x="-9" y="0">0.6</text></g><g class="tick" style="opacity: 1;" transform="translate(0,90.00000000000001)"><line x2="-6" y2="0"></line><text dy=".32em" style="text-anchor: end;" x="-9" y="0">0.7</text></g><g class="tick" style="opacity: 1;" transform="translate(0,59.999999999999986)"><line x2="-6" y2="0"></line><text dy=".32em" style="text-anchor: end;" x="-9" y="0">0.8</text></g><g class="tick" style="opacity: 1;" transform="translate(0,29.999999999999993)"><line x2="-6" y2="0"></line><text dy=".32em" style="text-anchor: end;" x="-9" y="0">0.9</text></g><g class="tick" style="opacity: 1;" transform="translate(0,0)"><line x2="-6" y2="0"></line><text dy=".32em" style="text-anchor: end;" x="-9" y="0">1.0</text></g><path class="domain" d="M-6,0H0V300H-6"></path><text x="-150" y="-35" transform="rotate(-90)">正解率</text></g><path d="M6,194.28571428571425L12,200.00000000000003L18,237.14285714285714L24,291.42857142857144L30,280L36,280L42.00000000000001,260L48,268.57142857142856L54,271.42857142857144L60,245.7142857142857L66,182.85714285714286L72,154.28571428571428L78,108.57142857142858L84.00000000000001,100.00000000000001L90,105.71428571428571L96,82.85714285714286L102.00000000000001,105.71428571428571L108,91.42857142857143L114,88.57142857142856L120,82.85714285714286L126,80.00000000000001L132,82.85714285714286L138,74.28571428571429L144,48.57142857142856L150,68.57142857142856L156,48.57142857142856L162,48.57142857142856L168.00000000000003,54.28571428571429L174,45.714285714285715L180,37.142857142857146L186,42.85714285714287L192,42.85714285714287L198,42.85714285714287L204.00000000000003,45.714285714285715L210,45.714285714285715L216,37.142857142857146L222,22.857142857142843L228,19.999999999999996L234,31.428571428571416L240,22.857142857142843L245.99999999999997,25.714285714285722L252,31.428571428571416L258,22.857142857142843L264,25.714285714285722L270,31.428571428571416L276,19.999999999999996L282,28.57142857142857L288,22.857142857142843L294,22.857142857142843L300,25.714285714285722" stroke="blue" fill="none"></path><path d="M6,213.33333333333334L12,233.33333333333334L18,280L24,273.3333333333333L30,253.33333333333334L36,260L42.00000000000001,260L48,260L54,246.66666666666666L60,206.66666666666666L66,140L72,133.33333333333331L78,120L84.00000000000001,120L90,126.66666666666669L96,120L102.00000000000001,100.00000000000001L108,73.33333333333334L114,80.00000000000001L120,59.999999999999986L126,33.33333333333335L132,106.66666666666666L138,26.66666666666667L144,100.00000000000001L150,13.33333333333332L156,73.33333333333334L162,80.00000000000001L168.00000000000003,19.999999999999996L174,33.33333333333335L180,66.66666666666666L186,13.33333333333332L192,33.33333333333335L198,0L204.00000000000003,26.66666666666667L210,46.666666666666664L216,6.666666666666677L222,19.999999999999996L228,0L234,53.33333333333334L240,46.666666666666664L245.99999999999997,6.666666666666677L252,19.999999999999996L258,59.999999999999986L264,0L270,6.666666666666677L276,6.666666666666677L282,0L288,6.666666666666677L294,6.666666666666677L300,0" stroke="red" fill="none"></path></g></svg>
