<svg xmlns="http://www.w3.org/2000/svg" width="740" height="370"><g transform="translate(50, 20)"><g transform="translate(0, 300)"><g class="tick" style="opacity: 1;" transform="translate(0,0)"><line y2="6" x2="0"></line><text dy=".71em" style="text-anchor: middle;" y="9" x="0">0</text></g><g class="tick" style="opacity: 1;" transform="translate(30,0)"><line y2="6" x2="0"></line><text dy=".71em" style="text-anchor: middle;" y="9" x="0">5</text></g><g class="tick" style="opacity: 1;" transform="translate(60,0)"><line y2="6" x2="0"></line><text dy=".71em" style="text-anchor: middle;" y="9" x="0">10</text></g><g class="tick" style="opacity: 1;" transform="translate(90,0)"><line y2="6" x2="0"></line><text dy=".71em" style="text-anchor: middle;" y="9" x="0">15</text></g><g class="tick" style="opacity: 1;" transform="translate(120,0)"><line y2="6" x2="0"></line><text dy=".71em" style="text-anchor: middle;" y="9" x="0">20</text></g><g class="tick" style="opacity: 1;" transform="translate(150,0)"><line y2="6" x2="0"></line><text dy=".71em" style="text-anchor: middle;" y="9" x="0">25</text></g><g class="tick" style="opacity: 1;" transform="translate(180,0)"><line y2="6" x2="0"></line><text dy=".71em" style="text-anchor: middle;" y="9" x="0">30</text></g><g class="tick" style="opacity: 1;" transform="translate(210,0)"><line y2="6" x2="0"></line><text dy=".71em" style="text-anchor: middle;" y="9" x="0">35</text></g><g class="tick" style="opacity: 1;" transform="translate(240,0)"><line y2="6" x2="0"></line><text dy=".71em" style="text-anchor: middle;" y="9" x="0">40</text></g><g class="tick" style="opacity: 1;" transform="translate(270,0)"><line y2="6" x2="0"></line><text dy=".71em" style="text-anchor: middle;" y="9" x="0">45</text></g><g class="tick" style="opacity: 1;" transform="translate(300,0)"><line y2="6" x2="0"></line><text dy=".71em" style="text-anchor: middle;" y="9" x="0">50</text></g><path class="domain" d="M0,6V0H300V6"></path><text x="150" y="35">回数</text></g><g><g class="tick" style="opacity: 1;" transform="translate(0,300)"><line x2="-6" y2="0"></line><text dy=".32em" style="text-anchor: end;" x="-9" y="0">0.0</text></g><g class="tick" style="opacity: 1;" transform="translate(0,270)"><line x2="-6" y2="0"></line><text dy=".32em" style="text-anchor: end;" x="-9" y="0">0.1</text></g><g class="tick" style="opacity: 1;" transform="translate(0,240)"><line x2="-6" y2="0"></line><text dy=".32em" style="text-anchor: end;" x="-9" y="0">0.2</text></g><g class="tick" style="opacity: 1;" transform="translate(0,210)"><line x2="-6" y2="0"></line><text dy=".32em" style="text-anchor: end;" x="-9" y="0">0.3</text></g><g class="tick" style="opacity: 1;" transform="translate(0,180)"><line x2="-6" y2="0"></line><text dy=".32em" style="text-anchor: end;" x="-9" y="0">0.4</text></g><g class="tick" style="opacity: 1;" transform="translate(0,150)"><line x2="-6" y2="0"></line><text dy=".32em" style="text-anchor: end;" x="-9" y="0">0.5</text></g><g class="tick" style="opacity: 1;" transform="translate(0,120)"><line x2="-6" y2="0"></line><text dy=".32em" style="text-anchor: end;" x="-9" y="0">0.6</text></g><g class="tick" style="opacity: 1;" transform="translate(0,90.00000000000001)"><line x2="-6" y2="0"></line><text dy=".32em" style="text-anchor: end;" x="-9" y="0">0.7</text></g><g class="tick" style="opacity: 1;" transform="translate(0,59.999999999999986)"><line x2="-6" y2="0"></line><text dy=".32em" style="text-anchor: end;" x="-9" y="0">0.8</text></g><g class="tick" style="opacity: 1;" transform="translate(0,29.999999999999993)"><line x2="-6" y2="0"></line><text dy=".32em" style="text-anchor: end;" x="-9" y="0">0.9</text></g><g class="tick" style="opacity: 1;" transform="translate(0,0)"><line x2="-6" y2="0"></line><text dy=".32em" style="text-anchor: end;" x="-9" y="0">1.0</text></g><path class="domain" d="M-6,0H0V300H-6"></path><text x="-150" y="-35" transform="rotate(-90)">誤差</text></g><path d="M6,-225.96658373736852L12,-67.69770149602286L18,-19.877872399494102L24,3.518910134042297L30,22.272972671128134L36,40.0189417399903L42.00000000000001,57.45718787587284L48,71.43456967529266L54,85.05845129128805L60,97.98351729775379L66,106.38557055539474L72,114.77535260691019L78,120.57461385951468L84.00000000000001,127.19178384281797L90,134.42585804482573L96,140.480011449435L102.00000000000001,145.02698310922182L108,149.3597639535093L114,153.9115456912009L120,156.41393367040303L126,160.7247121251906L132,163.88867743164184L138,166.61554529655461L144,173.2178923150774L150,174.22770628592957L156,174.4791258972178L162,182.51347729591728L168.00000000000003,180.48511232276616L174,183.04738567763303L180,183.75730784798435L186,185.38391938307402L192,186.30507683707307L198,189.71431596348162L204.00000000000003,193.6939610150194L210,193.07579380615775L216,195.13566713363088L222,198.13711307135924L228,198.61876802191702L234,199.41249327134653L240,201.02597319567604L245.99999999999997,202.4567507000523L252,203.29063253385203L258,204.3345024148463L264,206.02084920931208L270,208.31698577023278L276,210.9022888511487L282,213.05115417512306L288,214.1245903216765L294,214.29232412595965L300,215.52653712317206" stroke="blue" fill="none"></path><path d="M6,-78.62879856876084L12,-26.34772617217813L18,-10.059026184133879L24,14.44483796001208L30,35.86311148586907L36,53.00946112987796L42.00000000000001,67.0001605768896L48,81.13090155941582L54,91.91823952656141L60,99.21344358746644L66,101.32719446905757L72,115.96047243258263L78,122.50972410414157L84.00000000000001,128.55584972129816L90,122.83971535031917L96,136.24767903800017L102.00000000000001,142.7918564694435L108,139.37252001011345L114,150.25456516827052L120,150.74084770738847L126,152.98254267085963L132,155.06235069508028L138,161.9986138760369L144,151.20696296236363L150,167.15886160759183L156,169.90311729447177L162,151.33224969315253L168.00000000000003,168.62139739263554L174,175.91812013749L180,175.97848903735468L186,179.80228662165968L192,181.4310529317004L198,181.4717230764605L204.00000000000003,183.30884236618334L210,187.4990148117529L216,189.6093420167801L222,180.59374745839517L228,191.86576237296538L234,192.8135544345447L240,194.22506236892994L245.99999999999997,197.18389490717942L252,198.38399295390673L258,201.30232185358133L264,203.07638927361066L270,201.2207394203148L276,205.2726899516903L282,205.77779926065082L288,203.44486816313812L294,209.57868953250005L300,210.73251147349893" stroke="red" fill="none"></path></g><g transform="translate(420, 20)"><g transform="translate(0, 300)"><g class="tick" style="opacity: 1;" transform="translate(0,0)"><line y2="6" x2="0"></line><text dy=".71em" style="text-anchor: middle;" y="9" x="0">0</text></g><g class="tick" style="opacity: 1;" transform="translate(30,0)"><line y2="6" x2="0"></line><text dy=".71em" style="text-anchor: middle;" y="9" x="0">5</text></g><g class="tick" style="opacity: 1;" transform="translate(60,0)"><line y2="6" x2="0"></line><text dy=".71em" style="text-anchor: middle;" y="9" x="0">10</text></g><g class="tick" style="opacity: 1;" transform="translate(90,0)"><line y2="6" x2="0"></line><text dy=".71em" style="text-anchor: middle;" y="9" x="0">15</text></g><g class="tick" style="opacity: 1;" transform="translate(120,0)"><line y2="6" x2="0"></line><text dy=".71em" style="text-anchor: middle;" y="9" x="0">20</text></g><g class="tick" style="opacity: 1;" transform="translate(150,0)"><line y2="6" x2="0"></line><text dy=".71em" style="text-anchor: middle;" y="9" x="0">25</text></g><g class="tick" style="opacity: 1;" transform="translate(180,0)"><line y2="6" x2="0"></line><text dy=".71em" style="text-anchor: middle;" y="9" x="0">30</text></g><g class="tick" style="opacity: 1;" transform="translate(210,0)"><line y2="6" x2="0"></line><text dy=".71em" style="text-anchor: middle;" y="9" x="0">35</text></g><g class="tick" style="opacity: 1;" transform="translate(240,0)"><line y2="6" x2="0"></line><text dy=".71em" style="text-anchor: middle;" y="9" x="0">40</text></g><g class="tick" style="opacity: 1;" transform="translate(270,0)"><line y2="6" x2="0"></line><text dy=".71em" style="text-anchor: middle;" y="9" x="0">45</text></g><g class="tick" style="opacity: 1;" transform="translate(300,0)"><line y2="6" x2="0"></line><text dy=".71em" style="text-anchor: middle;" y="9" x="0">50</text></g><path class="domain" d="M0,6V0H300V6"></path><text x="150" y="35">回数</text></g><g><g class="tick" style="opacity: 1;" transform="translate(0,300)"><line x2="-6" y2="0"></line><text dy=".32em" style="text-anchor: end;" x="-9" y="0">0.0</text></g><g class="tick" style="opacity: 1;" transform="translate(0,270)"><line x2="-6" y2="0"></line><text dy=".32em" style="text-anchor: end;" x="-9" y="0">0.1</text></g><g class="tick" style="opacity: 1;" transform="translate(0,240)"><line x2="-6" y2="0"></line><text dy=".32em" style="text-anchor: end;" x="-9" y="0">0.2</text></g><g class="tick" style="opacity: 1;" transform="translate(0,210)"><line x2="-6" y2="0"></line><text dy=".32em" style="text-anchor: end;" x="-9" y="0">0.3</text></g><g class="tick" style="opacity: 1;" transform="translate(0,180)"><line x2="-6" y2="0"></line><text dy=".32em" style="text-anchor: end;" x="-9" y="0">0.4</text></g><g class="tick" style="opacity: 1;" transform="translate(0,150)"><line x2="-6" y2="0"></line><text dy=".32em" style="text-anchor: end;" x="-9" y="0">0.5</text></g><g class="tick" style="opacity: 1;" transform="translate(0,120)"><line x2="-6" y2="0"></line><text dy=".32em" style="text-anchor: end;" x="-9" y="0">0.6</text></g><g class="tick" style="opacity: 1;" transform="translate(0,90.00000000000001)"><line x2="-6" y2="0"></line><text dy=".32em" style="text-anchor: end;" x="-9" y="0">0.7</text></g><g class="tick" style="opacity: 1;" transform="translate(0,59.999999999999986)"><line x2="-6" y2="0"></line><text dy=".32em" style="text-anchor: end;" x="-9" y="0">0.8</text></g><g class="tick" style="opacity: 1;" transform="translate(0,29.999999999999993)"><line x2="-6" y2="0"></line><text dy=".32em" style="text-anchor: end;" x="-9" y="0">0.9</text></g><g class="tick" style="opacity: 1;" transform="translate(0,0)"><line x2="-6" y2="0"></line><text dy=".32em" style="text-anchor: end;" x="-9" y="0">1.0</text></g><path class="domain" d="M-6,0H0V300H-6"></path><text x="-150" y="-35" transform="rotate(-90)">正解率</text></g><path d="M6,208.57142857142856L12,194.28571428571425L18,197.14285714285714L24,148.57142857142858L30,111.42857142857143L36,97.14285714285712L42.00000000000001,105.71428571428571L48,102.85714285714286L54,100.00000000000001L60,82.85714285714286L66,88.57142857142856L72,94.28571428571428L78,94.28571428571428L84.00000000000001,80.00000000000001L90,80.00000000000001L96,51.42857142857141L102.00000000000001,65.71428571428571L108,62.85714285714287L114,42.85714285714287L120,59.999999999999986L126,54.28571428571429L132,45.714285714285715L138,28.57142857142857L144,54.28571428571429L150,25.714285714285722L156,25.714285714285722L162,51.42857142857141L168.00000000000003,22.857142857142843L174,31.428571428571416L180,28.57142857142857L186,19.999999999999996L192,31.428571428571416L198,31.428571428571416L204.00000000000003,39.99999999999999L210,14.285714285714302L216,34.2857142857143L222,22.857142857142843L228,11.428571428571422L234,2.857142857142847L240,19.999999999999996L245.99999999999997,22.857142857142843L252,14.285714285714302L258,14.285714285714302L264,28.57142857142857L270,22.857142857142843L276,17.14285714285715L282,22.857142857142843L288,14.285714285714302L294,11.428571428571422L300,8.571428571428575" stroke="blue" fill="none"></path><path d="M6,180L12,180L18,206.66666666666666L24,140L30,93.33333333333333L36,86.66666666666666L42.00000000000001,93.33333333333333L48,86.66666666666666L54,86.66666666666666L60,80.00000000000001L66,100.00000000000001L72,86.66666666666666L78,80.00000000000001L84.00000000000001,73.33333333333334L90,100.00000000000001L96,59.999999999999986L102.00000000000001,73.33333333333334L108,80.00000000000001L114,80.00000000000001L120,26.66666666666667L126,46.666666666666664L132,46.666666666666664L138,39.99999999999999L144,100.00000000000001L150,46.666666666666664L156,73.33333333333334L162,106.66666666666666L168.00000000000003,39.99999999999999L174,39.99999999999999L180,13.33333333333332L186,53.33333333333334L192,13.33333333333332L198,13.33333333333332L204.00000000000003,13.33333333333332L210,53.33333333333334L216,53.33333333333334L222,59.999999999999986L228,13.33333333333332L234,13.33333333333332L240,13.33333333333332L245.99999999999997,19.999999999999996L252,13.33333333333332L258,13.33333333333332L264,13.33333333333332L270,6.666666666666677L276,19.999999999999996L282,19.999999999999996L288,6.666666666666677L294,13.33333333333332L300,13.33333333333332" stroke="red" fill="none"></path></g></svg>
