<svg xmlns="http://www.w3.org/2000/svg" width="740" height="370"><g transform="translate(50, 20)"><g transform="translate(0, 300)"><g class="tick" style="opacity: 1;" transform="translate(0,0)"><line y2="6" x2="0"></line><text dy=".71em" style="text-anchor: middle;" y="9" x="0">0</text></g><g class="tick" style="opacity: 1;" transform="translate(30,0)"><line y2="6" x2="0"></line><text dy=".71em" style="text-anchor: middle;" y="9" x="0">5</text></g><g class="tick" style="opacity: 1;" transform="translate(60,0)"><line y2="6" x2="0"></line><text dy=".71em" style="text-anchor: middle;" y="9" x="0">10</text></g><g class="tick" style="opacity: 1;" transform="translate(90,0)"><line y2="6" x2="0"></line><text dy=".71em" style="text-anchor: middle;" y="9" x="0">15</text></g><g class="tick" style="opacity: 1;" transform="translate(120,0)"><line y2="6" x2="0"></line><text dy=".71em" style="text-anchor: middle;" y="9" x="0">20</text></g><g class="tick" style="opacity: 1;" transform="translate(150,0)"><line y2="6" x2="0"></line><text dy=".71em" style="text-anchor: middle;" y="9" x="0">25</text></g><g class="tick" style="opacity: 1;" transform="translate(180,0)"><line y2="6" x2="0"></line><text dy=".71em" style="text-anchor: middle;" y="9" x="0">30</text></g><g class="tick" style="opacity: 1;" transform="translate(210,0)"><line y2="6" x2="0"></line><text dy=".71em" style="text-anchor: middle;" y="9" x="0">35</text></g><g class="tick" style="opacity: 1;" transform="translate(240,0)"><line y2="6" x2="0"></line><text dy=".71em" style="text-anchor: middle;" y="9" x="0">40</text></g><g class="tick" style="opacity: 1;" transform="translate(270,0)"><line y2="6" x2="0"></line><text dy=".71em" style="text-anchor: middle;" y="9" x="0">45</text></g><g class="tick" style="opacity: 1;" transform="translate(300,0)"><line y2="6" x2="0"></line><text dy=".71em" style="text-anchor: middle;" y="9" x="0">50</text></g><path class="domain" d="M0,6V0H300V6"></path><text x="150" y="35">回数</text></g><g><g class="tick" style="opacity: 1;" transform="translate(0,300)"><line x2="-6" y2="0"></line><text dy=".32em" style="text-anchor: end;" x="-9" y="0">0.0</text></g><g class="tick" style="opacity: 1;" transform="translate(0,270)"><line x2="-6" y2="0"></line><text dy=".32em" style="text-anchor: end;" x="-9" y="0">0.1</text></g><g class="tick" style="opacity: 1;" transform="translate(0,240)"><line x2="-6" y2="0"></line><text dy=".32em" style="text-anchor: end;" x="-9" y="0">0.2</text></g><g class="tick" style="opacity: 1;" transform="translate(0,210)"><line x2="-6" y2="0"></line><text dy=".32em" style="text-anchor: end;" x="-9" y="0">0.3</text></g><g class="tick" style="opacity: 1;" transform="translate(0,180)"><line x2="-6" y2="0"></line><text dy=".32em" style="text-anchor: end;" x="-9" y="0">0.4</text></g><g class="tick" style="opacity: 1;" transform="translate(0,150)"><line x2="-6" y2="0"></line><text dy=".32em" style="text-anchor: end;" x="-9" y="0">0.5</text></g><g class="tick" style="opacity: 1;" transform="translate(0,120)"><line x2="-6" y2="0"></line><text dy=".32em" style="text-anchor: end;" x="-9" y="0">0.6</text></g><g class="tick" style="opacity: 1;" transform="translate(0,90.00000000000001)"><line x2="-6" y2="0"></line><text dy=".32em" style="text-anchor: end;" x="-9" y="0">0.7</text></g><g class="tick" style="opacity: 1;" transform="translate(0,59.999999999999986)"><line x2="-6" y2="0"></line><text dy=".32em" style="text-anchor: end;" x="-9" y="0">0.8</text></g><g class="tick" style="opacity: 1;" transform="translate(0,29.999999999999993)"><line x2="-6" y2="0"></line><text dy=".32em" style="text-anchor: end;" x="-9" y="0">0.9</text></g><g class="tick" style="opacity: 1;" transform="translate(0,0)"><line x2="-6" y2="0"></line><text dy=".32em" style="text-anchor: end;" x="-9" y="0">1.0</text></g><path class="domain" d="M-6,0H0V300H-6"></path><text x="-150" y="-35" transform="rotate(-90)">誤差</text></g><path d="M6,-95.4469369324141L12,-83.96868092277123L18,-79.93722470696348L24,-76.922185110829L30,-74.47600900537155L36,-72.3836642120526L42.00000000000001,-70.53458392560078L48,-68.85642772494106L54,-67.3706145313709L60,-65.98574710989931L66,-64.70500417258245L72,-63.49420255075407L78,-62.373249226995256L84.00000000000001,-61.33272742662932L90,-60.3209623419267L96,-59.388381047793956L102.00000000000001,-58.47695127849251L108,-57.619965148958926L114,-56.81447160987039L120,-56.03436460240046L126,-55.28640786411862L132,-54.55611559003843L138,-53.877190283430124L144,-53.213388781606L150,-52.57745312817504L156,-51.95071515304159L162,-51.36536471166564L168.00000000000003,-50.791488411023835L174,-50.22731935601008L180,-49.68936540750737L186,-49.16805079595727L192,-48.662030732340725L198,-48.17960908662515L204.00000000000003,-47.704793996715075L210,-47.24124565000001L216,-46.785124649056954L222,-46.35742582584192L228,-45.93352864423428L234,-45.51948230916385L240,-45.11976073098716L245.99999999999997,-44.7203644766514L252,-44.348334211477926L258,-43.97654247014992L264,-43.6150707877365L270,-43.260556628649205L276,-42.910906205611624L282,-42.57481063276218L288,-42.25292854379974L294,-41.93427929072415L300,-41.61836265900109" stroke="blue" fill="none"></path><path d="M6,-128.25078516936372L12,-121.13145647118391L18,-116.39901195119613L24,-112.67308004255491L30,-109.5503060168691L36,-106.83626818341428L42.00000000000001,-104.41542600975279L48,-102.21075603259013L54,-100.19468022077103L60,-98.33361076872511L66,-96.60165837467581L72,-94.97403817452556L78,-93.43788675894902L84.00000000000001,-91.98749335438872L90,-90.6087045184645L96,-89.29827523457688L102.00000000000001,-88.04645281397639L108,-86.84823313441579L114,-85.70180626796456L120,-84.60256145447286L126,-83.5475604336288L132,-82.53046015548296L138,-81.55057973212585L144,-80.60533992051676L150,-79.69279719328088L156,-78.80909345824053L162,-77.95361772907079L168.00000000000003,-77.12503752291298L174,-76.3202147286671L180,-75.53857131835508L186,-74.77857647232689L192,-74.03901466752683L198,-73.31997946263924L204.00000000000003,-72.62092005133351L210,-71.9399924991123L216,-71.27633866044035L222,-70.62971718873261L228,-69.99936878570958L234,-69.38447066693334L240,-68.78466583949852L245.99999999999997,-68.19848458525033L252,-67.62619920814397L258,-67.0671599605791L264,-66.52070045489708L270,-65.9861840650128L276,-65.4628686802875L282,-64.95038478713087L288,-64.44855379451906L294,-63.95757135495401L300,-63.47645998766753" stroke="red" fill="none"></path></g><g transform="translate(420, 20)"><g transform="translate(0, 300)"><g class="tick" style="opacity: 1;" transform="translate(0,0)"><line y2="6" x2="0"></line><text dy=".71em" style="text-anchor: middle;" y="9" x="0">0</text></g><g class="tick" style="opacity: 1;" transform="translate(30,0)"><line y2="6" x2="0"></line><text dy=".71em" style="text-anchor: middle;" y="9" x="0">5</text></g><g class="tick" style="opacity: 1;" transform="translate(60,0)"><line y2="6" x2="0"></line><text dy=".71em" style="text-anchor: middle;" y="9" x="0">10</text></g><g class="tick" style="opacity: 1;" transform="translate(90,0)"><line y2="6" x2="0"></line><text dy=".71em" style="text-anchor: middle;" y="9" x="0">15</text></g><g class="tick" style="opacity: 1;" transform="translate(120,0)"><line y2="6" x2="0"></line><text dy=".71em" style="text-anchor: middle;" y="9" x="0">20</text></g><g class="tick" style="opacity: 1;" transform="translate(150,0)"><line y2="6" x2="0"></line><text dy=".71em" style="text-anchor: middle;" y="9" x="0">25</text></g><g class="tick" style="opacity: 1;" transform="translate(180,0)"><line y2="6" x2="0"></line><text dy=".71em" style="text-anchor: middle;" y="9" x="0">30</text></g><g class="tick" style="opacity: 1;" transform="translate(210,0)"><line y2="6" x2="0"></line><text dy=".71em" style="text-anchor: middle;" y="9" x="0">35</text></g><g class="tick" style="opacity: 1;" transform="translate(240,0)"><line y2="6" x2="0"></line><text dy=".71em" style="text-anchor: middle;" y="9" x="0">40</text></g><g class="tick" style="opacity: 1;" transform="translate(270,0)"><line y2="6" x2="0"></line><text dy=".71em" style="text-anchor: middle;" y="9" x="0">45</text></g><g class="tick" style="opacity: 1;" transform="translate(300,0)"><line y2="6" x2="0"></line><text dy=".71em" style="text-anchor: middle;" y="9" x="0">50</text></g><path class="domain" d="M0,6V0H300V6"></path><text x="150" y="35">回数</text></g><g><g class="tick" style="opacity: 1;" transform="translate(0,300)"><line x2="-6" y2="0"></line><text dy=".32em" style="text-anchor: end;" x="-9" y="0">0.0</text></g><g class="tick" style="opacity: 1;" transform="translate(0,270)"><line x2="-6" y2="0"></line><text dy=".32em" style="text-anchor: end;" x="-9" y="0">0.1</text></g><g class="tick" style="opacity: 1;" transform="translate(0,240)"><line x2="-6" y2="0"></line><text dy=".32em" style="text-anchor: end;" x="-9" y="0">0.2</text></g><g class="tick" style="opacity: 1;" transform="translate(0,210)"><line x2="-6" y2="0"></line><text dy=".32em" style="text-anchor: end;" x="-9" y="0">0.3</text></g><g class="tick" style="opacity: 1;" transform="translate(0,180)"><line x2="-6" y2="0"></line><text dy=".32em" style="text-anchor: end;" x="-9" y="0">0.4</text></g><g class="tick" style="opacity: 1;" transform="translate(0,150)"><line x2="-6" y2="0"></line><text dy=".32em" style="text-anchor: end;" x="-9" y="0">0.5</text></g><g class="tick" style="opacity: 1;" transform="translate(0,120)"><line x2="-6" y2="0"></line><text dy=".32em" style="text-anchor: end;" x="-9" y="0">0.6</text></g><g class="tick" style="opacity: 1;" transform="translate(0,90.00000000000001)"><line x2="-6" y2="0"></line><text dy=".32em" style="text-anchor: end;" x="-9" y="0">0.7</text></g><g class="tick" style="opacity: 1;" transform="translate(0,59.999999999999986)"><line x2="-6" y2="0"></line><text dy=".32em" style="text-anchor: end;" x="-9" y="0">0.8</text></g><g class="tick" style="opacity: 1;" transform="translate(0,29.999999999999993)"><line x2="-6" y2="0"></line><text dy=".32em" style="text-anchor: end;" x="-9" y="0">0.9</text></g><g class="tick" style="opacity: 1;" transform="translate(0,0)"><line x2="-6" y2="0"></line><text dy=".32em" style="text-anchor: end;" x="-9" y="0">1.0</text></g><path class="domain" d="M-6,0H0V300H-6"></path><text x="-150" y="-35" transform="rotate(-90)">正解率</text></g><path d="M6,191.42857142857142L12,191.42857142857142L18,191.42857142857142L24,191.42857142857142L30,191.42857142857142L36,191.42857142857142L42.00000000000001,191.42857142857142L48,191.42857142857142L54,191.42857142857142L60,191.42857142857142L66,191.42857142857142L72,191.42857142857142L78,191.42857142857142L84.00000000000001,191.42857142857142L90,191.42857142857142L96,191.42857142857142L102.00000000000001,191.42857142857142L108,191.42857142857142L114,191.42857142857142L120,191.42857142857142L126,191.42857142857142L132,191.42857142857142L138,191.42857142857142L144,191.42857142857142L150,191.42857142857142L156,191.42857142857142L162,191.42857142857142L168.00000000000003,191.42857142857142L174,191.42857142857142L180,191.42857142857142L186,191.42857142857142L192,191.42857142857142L198,191.42857142857142L204.00000000000003,191.42857142857142L210,191.42857142857142L216,191.42857142857142L222,191.42857142857142L228,191.42857142857142L234,191.42857142857142L240,191.42857142857142L245.99999999999997,191.42857142857142L252,191.42857142857142L258,191.42857142857142L264,191.42857142857142L270,191.42857142857142L276,191.42857142857142L282,191.42857142857142L288,191.42857142857142L294,191.42857142857142L300,191.42857142857142" stroke="blue" fill="none"></path><path d="M6,220.00000000000003L12,220.00000000000003L18,220.00000000000003L24,220.00000000000003L30,220.00000000000003L36,220.00000000000003L42.00000000000001,220.00000000000003L48,220.00000000000003L54,220.00000000000003L60,220.00000000000003L66,220.00000000000003L72,220.00000000000003L78,220.00000000000003L84.00000000000001,220.00000000000003L90,220.00000000000003L96,220.00000000000003L102.00000000000001,220.00000000000003L108,220.00000000000003L114,220.00000000000003L120,220.00000000000003L126,220.00000000000003L132,220.00000000000003L138,220.00000000000003L144,220.00000000000003L150,220.00000000000003L156,220.00000000000003L162,220.00000000000003L168.00000000000003,220.00000000000003L174,220.00000000000003L180,220.00000000000003L186,220.00000000000003L192,220.00000000000003L198,220.00000000000003L204.00000000000003,220.00000000000003L210,220.00000000000003L216,220.00000000000003L222,220.00000000000003L228,220.00000000000003L234,220.00000000000003L240,220.00000000000003L245.99999999999997,220.00000000000003L252,220.00000000000003L258,220.00000000000003L264,220.00000000000003L270,220.00000000000003L276,220.00000000000003L282,220.00000000000003L288,220.00000000000003L294,220.00000000000003L300,220.00000000000003" stroke="red" fill="none"></path></g></svg>
