<svg xmlns="http://www.w3.org/2000/svg" width="740" height="370"><g transform="translate(50, 20)"><g transform="translate(0, 300)"><g class="tick" style="opacity: 1;" transform="translate(0,0)"><line y2="6" x2="0"></line><text dy=".71em" style="text-anchor: middle;" y="9" x="0">0</text></g><g class="tick" style="opacity: 1;" transform="translate(30,0)"><line y2="6" x2="0"></line><text dy=".71em" style="text-anchor: middle;" y="9" x="0">5</text></g><g class="tick" style="opacity: 1;" transform="translate(60,0)"><line y2="6" x2="0"></line><text dy=".71em" style="text-anchor: middle;" y="9" x="0">10</text></g><g class="tick" style="opacity: 1;" transform="translate(90,0)"><line y2="6" x2="0"></line><text dy=".71em" style="text-anchor: middle;" y="9" x="0">15</text></g><g class="tick" style="opacity: 1;" transform="translate(120,0)"><line y2="6" x2="0"></line><text dy=".71em" style="text-anchor: middle;" y="9" x="0">20</text></g><g class="tick" style="opacity: 1;" transform="translate(150,0)"><line y2="6" x2="0"></line><text dy=".71em" style="text-anchor: middle;" y="9" x="0">25</text></g><g class="tick" style="opacity: 1;" transform="translate(180,0)"><line y2="6" x2="0"></line><text dy=".71em" style="text-anchor: middle;" y="9" x="0">30</text></g><g class="tick" style="opacity: 1;" transform="translate(210,0)"><line y2="6" x2="0"></line><text dy=".71em" style="text-anchor: middle;" y="9" x="0">35</text></g><g class="tick" style="opacity: 1;" transform="translate(240,0)"><line y2="6" x2="0"></line><text dy=".71em" style="text-anchor: middle;" y="9" x="0">40</text></g><g class="tick" style="opacity: 1;" transform="translate(270,0)"><line y2="6" x2="0"></line><text dy=".71em" style="text-anchor: middle;" y="9" x="0">45</text></g><g class="tick" style="opacity: 1;" transform="translate(300,0)"><line y2="6" x2="0"></line><text dy=".71em" style="text-anchor: middle;" y="9" x="0">50</text></g><path class="domain" d="M0,6V0H300V6"></path><text x="150" y="35">回数</text></g><g><g class="tick" style="opacity: 1;" transform="translate(0,300)"><line x2="-6" y2="0"></line><text dy=".32em" style="text-anchor: end;" x="-9" y="0">0.0</text></g><g class="tick" style="opacity: 1;" transform="translate(0,270)"><line x2="-6" y2="0"></line><text dy=".32em" style="text-anchor: end;" x="-9" y="0">0.1</text></g><g class="tick" style="opacity: 1;" transform="translate(0,240)"><line x2="-6" y2="0"></line><text dy=".32em" style="text-anchor: end;" x="-9" y="0">0.2</text></g><g class="tick" style="opacity: 1;" transform="translate(0,210)"><line x2="-6" y2="0"></line><text dy=".32em" style="text-anchor: end;" x="-9" y="0">0.3</text></g><g class="tick" style="opacity: 1;" transform="translate(0,180)"><line x2="-6" y2="0"></line><text dy=".32em" style="text-anchor: end;" x="-9" y="0">0.4</text></g><g class="tick" style="opacity: 1;" transform="translate(0,150)"><line x2="-6" y2="0"></line><text dy=".32em" style="text-anchor: end;" x="-9" y="0">0.5</text></g><g class="tick" style="opacity: 1;" transform="translate(0,120)"><line x2="-6" y2="0"></line><text dy=".32em" style="text-anchor: end;" x="-9" y="0">0.6</text></g><g class="tick" style="opacity: 1;" transform="translate(0,90.00000000000001)"><line x2="-6" y2="0"></line><text dy=".32em" style="text-anchor: end;" x="-9" y="0">0.7</text></g><g class="tick" style="opacity: 1;" transform="translate(0,59.999999999999986)"><line x2="-6" y2="0"></line><text dy=".32em" style="text-anchor: end;" x="-9" y="0">0.8</text></g><g class="tick" style="opacity: 1;" transform="translate(0,29.999999999999993)"><line x2="-6" y2="0"></line><text dy=".32em" style="text-anchor: end;" x="-9" y="0">0.9</text></g><g class="tick" style="opacity: 1;" transform="translate(0,0)"><line x2="-6" y2="0"></line><text dy=".32em" style="text-anchor: end;" x="-9" y="0">1.0</text></g><path class="domain" d="M-6,0H0V300H-6"></path><text x="-150" y="-35" transform="rotate(-90)">誤差</text></g><path d="M6,-114.37781291844L12,24.484637391941156L18,70.61765653711916L24,87.5423254790716L30,96.94487158320268L36,106.87353770142217L42.00000000000001,115.36091345782037L48,123.97174142452178L54,130.61203568980238L60,137.0573550422159L66,143.9225068801194L72,150.34240353233406L78,157.69549961370944L84.00000000000001,164.83878239526268L90,172.19490545142767L96,177.44444165911162L102.00000000000001,182.0908372820936L108,184.99350519777744L114,192.71064105572867L120,197.4962557439576L126,202.02043367984936L132,203.9340013383295L138,209.71068863309117L144,211.61372595288347L150,214.545203988021L156,218.6855047655151L162,219.91186385174058L168.00000000000003,222.76414809362473L174,224.65838998606685L180,228.52444297073973L186,230.7085153411964L192,233.75363310712012L198,235.73453706036358L204.00000000000003,236.48024850428888L210,241.17635617487386L216,242.17908589975949L222,243.06219753937063L228,244.49712411455423L234,246.54663776571618L240,247.63175531128218L245.99999999999997,248.4580970124631L252,250.1166477517902L258,251.334031334735L264,252.9521747505484L270,253.9846525211742L276,255.9760318403773L282,256.10539522339L288,254.81288367341264L294,254.59458086800606L300,256.95711194043844" stroke="blue" fill="none"></path><path d="M6,15.879171162418581L12,58.23736621585653L18,72.11878724910102L24,85.62367471628016L30,94.6223643772702L36,102.42775240591672L42.00000000000001,99.0067417823097L48,111.42461813245447L54,119.76893696672396L60,126.2886265385737L66,134.79196389281614L72,140.74967795454435L78,145.27702807409352L84.00000000000001,152.9182764929938L90,156.56964269037593L96,158.3943568723476L102.00000000000001,165.97614807690817L108,170.9765527258861L114,170.5604321659589L120,176.7907329092002L126,183.27287291343336L132,188.24441458146003L138,182.51080476798361L144,189.8011747742483L150,193.9417977533646L156,192.95197865758777L162,197.88568793475295L168.00000000000003,205.4319667952986L174,205.59713824248L180,207.91838027936902L186,212.05696512217537L192,209.83981415466403L198,215.35283557841174L204.00000000000003,215.6805418880055L210,207.62318813290065L216,219.63292958610688L222,221.50769410954723L228,220.1110901389924L234,226.1969012056803L240,221.81673224004658L245.99999999999997,227.60726923478862L252,227.43538044152973L258,226.82818970824385L264,223.55767441142692L270,224.9863996143943L276,214.03648177692557L282,232.8085888256379L288,234.20927115301382L294,234.7272399964056L300,235.71083085212138" stroke="red" fill="none"></path></g><g transform="translate(420, 20)"><g transform="translate(0, 300)"><g class="tick" style="opacity: 1;" transform="translate(0,0)"><line y2="6" x2="0"></line><text dy=".71em" style="text-anchor: middle;" y="9" x="0">0</text></g><g class="tick" style="opacity: 1;" transform="translate(30,0)"><line y2="6" x2="0"></line><text dy=".71em" style="text-anchor: middle;" y="9" x="0">5</text></g><g class="tick" style="opacity: 1;" transform="translate(60,0)"><line y2="6" x2="0"></line><text dy=".71em" style="text-anchor: middle;" y="9" x="0">10</text></g><g class="tick" style="opacity: 1;" transform="translate(90,0)"><line y2="6" x2="0"></line><text dy=".71em" style="text-anchor: middle;" y="9" x="0">15</text></g><g class="tick" style="opacity: 1;" transform="translate(120,0)"><line y2="6" x2="0"></line><text dy=".71em" style="text-anchor: middle;" y="9" x="0">20</text></g><g class="tick" style="opacity: 1;" transform="translate(150,0)"><line y2="6" x2="0"></line><text dy=".71em" style="text-anchor: middle;" y="9" x="0">25</text></g><g class="tick" style="opacity: 1;" transform="translate(180,0)"><line y2="6" x2="0"></line><text dy=".71em" style="text-anchor: middle;" y="9" x="0">30</text></g><g class="tick" style="opacity: 1;" transform="translate(210,0)"><line y2="6" x2="0"></line><text dy=".71em" style="text-anchor: middle;" y="9" x="0">35</text></g><g class="tick" style="opacity: 1;" transform="translate(240,0)"><line y2="6" x2="0"></line><text dy=".71em" style="text-anchor: middle;" y="9" x="0">40</text></g><g class="tick" style="opacity: 1;" transform="translate(270,0)"><line y2="6" x2="0"></line><text dy=".71em" style="text-anchor: middle;" y="9" x="0">45</text></g><g class="tick" style="opacity: 1;" transform="translate(300,0)"><line y2="6" x2="0"></line><text dy=".71em" style="text-anchor: middle;" y="9" x="0">50</text></g><path class="domain" d="M0,6V0H300V6"></path><text x="150" y="35">回数</text></g><g><g class="tick" style="opacity: 1;" transform="translate(0,300)"><line x2="-6" y2="0"></line><text dy=".32em" style="text-anchor: end;" x="-9" y="0">0.0</text></g><g class="tick" style="opacity: 1;" transform="translate(0,270)"><line x2="-6" y2="0"></line><text dy=".32em" style="text-anchor: end;" x="-9" y="0">0.1</text></g><g class="tick" style="opacity: 1;" transform="translate(0,240)"><line x2="-6" y2="0"></line><text dy=".32em" style="text-anchor: end;" x="-9" y="0">0.2</text></g><g class="tick" style="opacity: 1;" transform="translate(0,210)"><line x2="-6" y2="0"></line><text dy=".32em" style="text-anchor: end;" x="-9" y="0">0.3</text></g><g class="tick" style="opacity: 1;" transform="translate(0,180)"><line x2="-6" y2="0"></line><text dy=".32em" style="text-anchor: end;" x="-9" y="0">0.4</text></g><g class="tick" style="opacity: 1;" transform="translate(0,150)"><line x2="-6" y2="0"></line><text dy=".32em" style="text-anchor: end;" x="-9" y="0">0.5</text></g><g class="tick" style="opacity: 1;" transform="translate(0,120)"><line x2="-6" y2="0"></line><text dy=".32em" style="text-anchor: end;" x="-9" y="0">0.6</text></g><g class="tick" style="opacity: 1;" transform="translate(0,90.00000000000001)"><line x2="-6" y2="0"></line><text dy=".32em" style="text-anchor: end;" x="-9" y="0">0.7</text></g><g class="tick" style="opacity: 1;" transform="translate(0,59.999999999999986)"><line x2="-6" y2="0"></line><text dy=".32em" style="text-anchor: end;" x="-9" y="0">0.8</text></g><g class="tick" style="opacity: 1;" transform="translate(0,29.999999999999993)"><line x2="-6" y2="0"></line><text dy=".32em" style="text-anchor: end;" x="-9" y="0">0.9</text></g><g class="tick" style="opacity: 1;" transform="translate(0,0)"><line x2="-6" y2="0"></line><text dy=".32em" style="text-anchor: end;" x="-9" y="0">1.0</text></g><path class="domain" d="M-6,0H0V300H-6"></path><text x="-150" y="-35" transform="rotate(-90)">正解率</text></g><path d="M6,205.71428571428572L12,185.71428571428572L18,80.00000000000001L24,82.85714285714286L30,94.28571428571428L36,85.71428571428571L42.00000000000001,71.42857142857144L48,57.14285714285714L54,48.57142857142856L60,51.42857142857141L66,54.28571428571429L72,54.28571428571429L78,34.2857142857143L84.00000000000001,19.999999999999996L90,28.57142857142857L96,22.857142857142843L102.00000000000001,28.57142857142857L108,37.142857142857146L114,22.857142857142843L120,31.428571428571416L126,22.857142857142843L132,28.57142857142857L138,22.857142857142843L144,22.857142857142843L150,31.428571428571416L156,17.14285714285715L162,14.285714285714302L168.00000000000003,22.857142857142843L174,17.14285714285715L180,19.999999999999996L186,19.999999999999996L192,17.14285714285715L198,19.999999999999996L204.00000000000003,17.14285714285715L210,11.428571428571422L216,14.285714285714302L222,17.14285714285715L228,17.14285714285715L234,14.285714285714302L240,11.428571428571422L245.99999999999997,8.571428571428575L252,14.285714285714302L258,5.714285714285728L264,11.428571428571422L270,8.571428571428575L276,14.285714285714302L282,14.285714285714302L288,11.428571428571422L294,11.428571428571422L300,5.714285714285728" stroke="blue" fill="none"></path><path d="M6,186.66666666666666L12,140L18,120L24,113.33333333333333L30,100.00000000000001L36,106.66666666666666L42.00000000000001,113.33333333333333L48,100.00000000000001L54,100.00000000000001L60,106.66666666666666L66,39.99999999999999L72,66.66666666666666L78,66.66666666666666L84.00000000000001,39.99999999999999L90,59.999999999999986L96,80.00000000000001L102.00000000000001,46.666666666666664L108,39.99999999999999L114,39.99999999999999L120,39.99999999999999L126,39.99999999999999L132,26.66666666666667L138,39.99999999999999L144,39.99999999999999L150,26.66666666666667L156,39.99999999999999L162,39.99999999999999L168.00000000000003,26.66666666666667L174,26.66666666666667L180,33.33333333333335L186,33.33333333333335L192,26.66666666666667L198,33.33333333333335L204.00000000000003,26.66666666666667L210,39.99999999999999L216,33.33333333333335L222,26.66666666666667L228,33.33333333333335L234,26.66666666666667L240,26.66666666666667L245.99999999999997,33.33333333333335L252,26.66666666666667L258,26.66666666666667L264,26.66666666666667L270,26.66666666666667L276,33.33333333333335L282,26.66666666666667L288,26.66666666666667L294,33.33333333333335L300,26.66666666666667" stroke="red" fill="none"></path></g></svg>
