<svg xmlns="http://www.w3.org/2000/svg" width="740" height="370"><g transform="translate(50, 20)"><g transform="translate(0, 300)"><g class="tick" style="opacity: 1;" transform="translate(0,0)"><line y2="6" x2="0"></line><text dy=".71em" style="text-anchor: middle;" y="9" x="0">0</text></g><g class="tick" style="opacity: 1;" transform="translate(30,0)"><line y2="6" x2="0"></line><text dy=".71em" style="text-anchor: middle;" y="9" x="0">5</text></g><g class="tick" style="opacity: 1;" transform="translate(60,0)"><line y2="6" x2="0"></line><text dy=".71em" style="text-anchor: middle;" y="9" x="0">10</text></g><g class="tick" style="opacity: 1;" transform="translate(90,0)"><line y2="6" x2="0"></line><text dy=".71em" style="text-anchor: middle;" y="9" x="0">15</text></g><g class="tick" style="opacity: 1;" transform="translate(120,0)"><line y2="6" x2="0"></line><text dy=".71em" style="text-anchor: middle;" y="9" x="0">20</text></g><g class="tick" style="opacity: 1;" transform="translate(150,0)"><line y2="6" x2="0"></line><text dy=".71em" style="text-anchor: middle;" y="9" x="0">25</text></g><g class="tick" style="opacity: 1;" transform="translate(180,0)"><line y2="6" x2="0"></line><text dy=".71em" style="text-anchor: middle;" y="9" x="0">30</text></g><g class="tick" style="opacity: 1;" transform="translate(210,0)"><line y2="6" x2="0"></line><text dy=".71em" style="text-anchor: middle;" y="9" x="0">35</text></g><g class="tick" style="opacity: 1;" transform="translate(240,0)"><line y2="6" x2="0"></line><text dy=".71em" style="text-anchor: middle;" y="9" x="0">40</text></g><g class="tick" style="opacity: 1;" transform="translate(270,0)"><line y2="6" x2="0"></line><text dy=".71em" style="text-anchor: middle;" y="9" x="0">45</text></g><g class="tick" style="opacity: 1;" transform="translate(300,0)"><line y2="6" x2="0"></line><text dy=".71em" style="text-anchor: middle;" y="9" x="0">50</text></g><path class="domain" d="M0,6V0H300V6"></path><text x="150" y="35">回数</text></g><g><g class="tick" style="opacity: 1;" transform="translate(0,300)"><line x2="-6" y2="0"></line><text dy=".32em" style="text-anchor: end;" x="-9" y="0">0.0</text></g><g class="tick" style="opacity: 1;" transform="translate(0,270)"><line x2="-6" y2="0"></line><text dy=".32em" style="text-anchor: end;" x="-9" y="0">0.1</text></g><g class="tick" style="opacity: 1;" transform="translate(0,240)"><line x2="-6" y2="0"></line><text dy=".32em" style="text-anchor: end;" x="-9" y="0">0.2</text></g><g class="tick" style="opacity: 1;" transform="translate(0,210)"><line x2="-6" y2="0"></line><text dy=".32em" style="text-anchor: end;" x="-9" y="0">0.3</text></g><g class="tick" style="opacity: 1;" transform="translate(0,180)"><line x2="-6" y2="0"></line><text dy=".32em" style="text-anchor: end;" x="-9" y="0">0.4</text></g><g class="tick" style="opacity: 1;" transform="translate(0,150)"><line x2="-6" y2="0"></line><text dy=".32em" style="text-anchor: end;" x="-9" y="0">0.5</text></g><g class="tick" style="opacity: 1;" transform="translate(0,120)"><line x2="-6" y2="0"></line><text dy=".32em" style="text-anchor: end;" x="-9" y="0">0.6</text></g><g class="tick" style="opacity: 1;" transform="translate(0,90.00000000000001)"><line x2="-6" y2="0"></line><text dy=".32em" style="text-anchor: end;" x="-9" y="0">0.7</text></g><g class="tick" style="opacity: 1;" transform="translate(0,59.999999999999986)"><line x2="-6" y2="0"></line><text dy=".32em" style="text-anchor: end;" x="-9" y="0">0.8</text></g><g class="tick" style="opacity: 1;" transform="translate(0,29.999999999999993)"><line x2="-6" y2="0"></line><text dy=".32em" style="text-anchor: end;" x="-9" y="0">0.9</text></g><g class="tick" style="opacity: 1;" transform="translate(0,0)"><line x2="-6" y2="0"></line><text dy=".32em" style="text-anchor: end;" x="-9" y="0">1.0</text></g><path class="domain" d="M-6,0H0V300H-6"></path><text x="-150" y="-35" transform="rotate(-90)">誤差</text></g><path d="M6,-105.26840072455592L12,72.9389102040206L18,37.24475077064374L24,168.05602385004036L30,172.67528148030993L36,160.12863962069687L42.00000000000001,173.89779202597572L48,209.20088514426416L54,217.30689514261235L60,222.24568603204645L66,236.95363402792572L72,143.22115342016951L78,228.25665855506327L84.00000000000001,249.36779665519234L90,196.2606448932758L96,252.49033027062248L102.00000000000001,225.19692252385124L108,140.05043246111853L114,235.9563581328977L120,253.7370205301927L126,240.6192842601859L132,255.80064663464057L138,164.94678797084092L144,256.3619667665443L150,188.08423818546544L156,146.76194694079513L162,202.90048620272364L168.00000000000003,208.99804503854324L174,210.92180543256026L180,216.03885773764068L186,224.25746180770528L192,170.88614729545023L198,221.15680699304548L204.00000000000003,229.6849898430296L210,212.160996369151L216,236.98327209442215L222,202.48819513213894L228,239.25656887085535L234,242.2313233257049L240,242.1665529459873L245.99999999999997,223.17523749818582L252,233.25296585198723L258,245.33807768185366L264,198.89722711928752L270,242.59072210600988L276,249.40046844236255L282,244.3174333721235L288,254.04543306554314L294,249.21500558823396L300,254.42844591229402" stroke="blue" fill="none"></path><path d="M6,84.75872248816265L12,131.21326194975185L18,171.26090994765784L24,185.7081619718845L30,180.41906662221658L36,209.06370339575744L42.00000000000001,231.23897430324695L48,240.70103804563706L54,250.3592233122387L60,261.41570662582797L66,238.57155960051068L72,250.3894639747967L78,271.0199168413929L84.00000000000001,256.5503000286007L90,275.35786555642534L96,273.1988516803826L102.00000000000001,211.85177639936757L108,278.5396835964289L114,278.73682822810696L120,282.2093431834652L126,281.92999417509066L132,262.4624358920838L138,282.15685821161134L144,266.13158046650284L150,240.1145635892854L156,225.20314384038315L162,235.90710343925622L168.00000000000003,244.477424385872L174,247.68493944384664L180,254.59135550661512L186,238.14871602296273L192,249.24095112550583L198,260.4539293790199L204.00000000000003,259.9560792965929L210,266.36876226788206L216,249.98336775814616L222,269.73566424591826L228,272.6062153573372L234,274.8983635011651L240,271.04537122299797L245.99999999999997,268.33527210888246L252,273.79319322512885L258,248.63719690896403L264,273.7702094760058L270,280.4948140856458L276,280.1506500676534L282,282.17477698988046L288,279.1850980373857L294,283.530697313594L300,283.71098924837617" stroke="red" fill="none"></path></g><g transform="translate(420, 20)"><g transform="translate(0, 300)"><g class="tick" style="opacity: 1;" transform="translate(0,0)"><line y2="6" x2="0"></line><text dy=".71em" style="text-anchor: middle;" y="9" x="0">0</text></g><g class="tick" style="opacity: 1;" transform="translate(30,0)"><line y2="6" x2="0"></line><text dy=".71em" style="text-anchor: middle;" y="9" x="0">5</text></g><g class="tick" style="opacity: 1;" transform="translate(60,0)"><line y2="6" x2="0"></line><text dy=".71em" style="text-anchor: middle;" y="9" x="0">10</text></g><g class="tick" style="opacity: 1;" transform="translate(90,0)"><line y2="6" x2="0"></line><text dy=".71em" style="text-anchor: middle;" y="9" x="0">15</text></g><g class="tick" style="opacity: 1;" transform="translate(120,0)"><line y2="6" x2="0"></line><text dy=".71em" style="text-anchor: middle;" y="9" x="0">20</text></g><g class="tick" style="opacity: 1;" transform="translate(150,0)"><line y2="6" x2="0"></line><text dy=".71em" style="text-anchor: middle;" y="9" x="0">25</text></g><g class="tick" style="opacity: 1;" transform="translate(180,0)"><line y2="6" x2="0"></line><text dy=".71em" style="text-anchor: middle;" y="9" x="0">30</text></g><g class="tick" style="opacity: 1;" transform="translate(210,0)"><line y2="6" x2="0"></line><text dy=".71em" style="text-anchor: middle;" y="9" x="0">35</text></g><g class="tick" style="opacity: 1;" transform="translate(240,0)"><line y2="6" x2="0"></line><text dy=".71em" style="text-anchor: middle;" y="9" x="0">40</text></g><g class="tick" style="opacity: 1;" transform="translate(270,0)"><line y2="6" x2="0"></line><text dy=".71em" style="text-anchor: middle;" y="9" x="0">45</text></g><g class="tick" style="opacity: 1;" transform="translate(300,0)"><line y2="6" x2="0"></line><text dy=".71em" style="text-anchor: middle;" y="9" x="0">50</text></g><path class="domain" d="M0,6V0H300V6"></path><text x="150" y="35">回数</text></g><g><g class="tick" style="opacity: 1;" transform="translate(0,300)"><line x2="-6" y2="0"></line><text dy=".32em" style="text-anchor: end;" x="-9" y="0">0.0</text></g><g class="tick" style="opacity: 1;" transform="translate(0,270)"><line x2="-6" y2="0"></line><text dy=".32em" style="text-anchor: end;" x="-9" y="0">0.1</text></g><g class="tick" style="opacity: 1;" transform="translate(0,240)"><line x2="-6" y2="0"></line><text dy=".32em" style="text-anchor: end;" x="-9" y="0">0.2</text></g><g class="tick" style="opacity: 1;" transform="translate(0,210)"><line x2="-6" y2="0"></line><text dy=".32em" style="text-anchor: end;" x="-9" y="0">0.3</text></g><g class="tick" style="opacity: 1;" transform="translate(0,180)"><line x2="-6" y2="0"></line><text dy=".32em" style="text-anchor: end;" x="-9" y="0">0.4</text></g><g class="tick" style="opacity: 1;" transform="translate(0,150)"><line x2="-6" y2="0"></line><text dy=".32em" style="text-anchor: end;" x="-9" y="0">0.5</text></g><g class="tick" style="opacity: 1;" transform="translate(0,120)"><line x2="-6" y2="0"></line><text dy=".32em" style="text-anchor: end;" x="-9" y="0">0.6</text></g><g class="tick" style="opacity: 1;" transform="translate(0,90.00000000000001)"><line x2="-6" y2="0"></line><text dy=".32em" style="text-anchor: end;" x="-9" y="0">0.7</text></g><g class="tick" style="opacity: 1;" transform="translate(0,59.999999999999986)"><line x2="-6" y2="0"></line><text dy=".32em" style="text-anchor: end;" x="-9" y="0">0.8</text></g><g class="tick" style="opacity: 1;" transform="translate(0,29.999999999999993)"><line x2="-6" y2="0"></line><text dy=".32em" style="text-anchor: end;" x="-9" y="0">0.9</text></g><g class="tick" style="opacity: 1;" transform="translate(0,0)"><line x2="-6" y2="0"></line><text dy=".32em" style="text-anchor: end;" x="-9" y="0">1.0</text></g><path class="domain" d="M-6,0H0V300H-6"></path><text x="-150" y="-35" transform="rotate(-90)">正解率</text></g><path d="M6,171.42857142857142L12,82.85714285714286L18,108.57142857142858L24,57.14285714285714L30,54.28571428571429L36,62.85714285714287L42.00000000000001,54.28571428571429L48,31.428571428571416L54,25.714285714285722L60,37.142857142857146L66,22.857142857142843L72,62.85714285714287L78,42.85714285714287L84.00000000000001,14.285714285714302L90,37.142857142857146L96,19.999999999999996L102.00000000000001,25.714285714285722L108,57.14285714285714L114,28.57142857142857L120,17.14285714285715L126,17.14285714285715L132,11.428571428571422L138,45.714285714285715L144,11.428571428571422L150,34.2857142857143L156,68.57142857142856L162,19.999999999999996L168.00000000000003,31.428571428571416L174,22.857142857142843L180,19.999999999999996L186,19.999999999999996L192,42.85714285714287L198,28.57142857142857L204.00000000000003,19.999999999999996L210,39.99999999999999L216,14.285714285714302L222,25.714285714285722L228,17.14285714285715L234,14.285714285714302L240,17.14285714285715L245.99999999999997,22.857142857142843L252,28.57142857142857L258,17.14285714285715L264,39.99999999999999L270,22.857142857142843L276,19.999999999999996L282,17.14285714285715L288,14.285714285714302L294,22.857142857142843L300,17.14285714285715" stroke="blue" fill="none"></path><path d="M6,73.33333333333334L12,120L18,19.999999999999996L24,26.66666666666667L30,93.33333333333333L36,6.666666666666677L42.00000000000001,0L48,0L54,6.666666666666677L60,0L66,39.99999999999999L72,19.999999999999996L78,0L84.00000000000001,13.33333333333332L90,0L96,6.666666666666677L102.00000000000001,59.999999999999986L108,0L114,0L120,0L126,0L132,19.999999999999996L138,0L144,13.33333333333332L150,19.999999999999996L156,33.33333333333335L162,0L168.00000000000003,6.666666666666677L174,6.666666666666677L180,0L186,6.666666666666677L192,0L198,0L204.00000000000003,0L210,0L216,6.666666666666677L222,0L228,0L234,0L240,0L245.99999999999997,0L252,6.666666666666677L258,19.999999999999996L264,0L270,0L276,0L282,0L288,6.666666666666677L294,0L300,0" stroke="red" fill="none"></path></g></svg>
