<svg xmlns="http://www.w3.org/2000/svg" width="740" height="370"><g transform="translate(50, 20)"><g transform="translate(0, 300)"><g class="tick" style="opacity: 1;" transform="translate(0,0)"><line y2="6" x2="0"></line><text dy=".71em" style="text-anchor: middle;" y="9" x="0">0</text></g><g class="tick" style="opacity: 1;" transform="translate(30,0)"><line y2="6" x2="0"></line><text dy=".71em" style="text-anchor: middle;" y="9" x="0">5</text></g><g class="tick" style="opacity: 1;" transform="translate(60,0)"><line y2="6" x2="0"></line><text dy=".71em" style="text-anchor: middle;" y="9" x="0">10</text></g><g class="tick" style="opacity: 1;" transform="translate(90,0)"><line y2="6" x2="0"></line><text dy=".71em" style="text-anchor: middle;" y="9" x="0">15</text></g><g class="tick" style="opacity: 1;" transform="translate(120,0)"><line y2="6" x2="0"></line><text dy=".71em" style="text-anchor: middle;" y="9" x="0">20</text></g><g class="tick" style="opacity: 1;" transform="translate(150,0)"><line y2="6" x2="0"></line><text dy=".71em" style="text-anchor: middle;" y="9" x="0">25</text></g><g class="tick" style="opacity: 1;" transform="translate(180,0)"><line y2="6" x2="0"></line><text dy=".71em" style="text-anchor: middle;" y="9" x="0">30</text></g><g class="tick" style="opacity: 1;" transform="translate(210,0)"><line y2="6" x2="0"></line><text dy=".71em" style="text-anchor: middle;" y="9" x="0">35</text></g><g class="tick" style="opacity: 1;" transform="translate(240,0)"><line y2="6" x2="0"></line><text dy=".71em" style="text-anchor: middle;" y="9" x="0">40</text></g><g class="tick" style="opacity: 1;" transform="translate(270,0)"><line y2="6" x2="0"></line><text dy=".71em" style="text-anchor: middle;" y="9" x="0">45</text></g><g class="tick" style="opacity: 1;" transform="translate(300,0)"><line y2="6" x2="0"></line><text dy=".71em" style="text-anchor: middle;" y="9" x="0">50</text></g><path class="domain" d="M0,6V0H300V6"></path><text x="150" y="35">回数</text></g><g><g class="tick" style="opacity: 1;" transform="translate(0,300)"><line x2="-6" y2="0"></line><text dy=".32em" style="text-anchor: end;" x="-9" y="0">0.0</text></g><g class="tick" style="opacity: 1;" transform="translate(0,270)"><line x2="-6" y2="0"></line><text dy=".32em" style="text-anchor: end;" x="-9" y="0">0.1</text></g><g class="tick" style="opacity: 1;" transform="translate(0,240)"><line x2="-6" y2="0"></line><text dy=".32em" style="text-anchor: end;" x="-9" y="0">0.2</text></g><g class="tick" style="opacity: 1;" transform="translate(0,210)"><line x2="-6" y2="0"></line><text dy=".32em" style="text-anchor: end;" x="-9" y="0">0.3</text></g><g class="tick" style="opacity: 1;" transform="translate(0,180)"><line x2="-6" y2="0"></line><text dy=".32em" style="text-anchor: end;" x="-9" y="0">0.4</text></g><g class="tick" style="opacity: 1;" transform="translate(0,150)"><line x2="-6" y2="0"></line><text dy=".32em" style="text-anchor: end;" x="-9" y="0">0.5</text></g><g class="tick" style="opacity: 1;" transform="translate(0,120)"><line x2="-6" y2="0"></line><text dy=".32em" style="text-anchor: end;" x="-9" y="0">0.6</text></g><g class="tick" style="opacity: 1;" transform="translate(0,90.00000000000001)"><line x2="-6" y2="0"></line><text dy=".32em" style="text-anchor: end;" x="-9" y="0">0.7</text></g><g class="tick" style="opacity: 1;" transform="translate(0,59.999999999999986)"><line x2="-6" y2="0"></line><text dy=".32em" style="text-anchor: end;" x="-9" y="0">0.8</text></g><g class="tick" style="opacity: 1;" transform="translate(0,29.999999999999993)"><line x2="-6" y2="0"></line><text dy=".32em" style="text-anchor: end;" x="-9" y="0">0.9</text></g><g class="tick" style="opacity: 1;" transform="translate(0,0)"><line x2="-6" y2="0"></line><text dy=".32em" style="text-anchor: end;" x="-9" y="0">1.0</text></g><path class="domain" d="M-6,0H0V300H-6"></path><text x="-150" y="-35" transform="rotate(-90)">誤差</text></g><path d="M6,73.41158591723355L12,95.54309130836978L18,148.9878599023509L24,158.18710892819175L30,165.12365965960092L36,155.06986096353944L42.00000000000001,162.69169592499878L48,161.51086817331984L54,156.13566529759618L60,159.0456215856483L66,162.89223816954353L72,116.2647402866813L78,163.4590211611008L84.00000000000001,161.8093905078877L90,160.7371796448479L96,163.16955178670196L102.00000000000001,160.93037841210344L108,154.30630517392893L114,161.80679885920446L120,161.0656234503166L126,162.8908042894866L132,162.78346049817713L138,166.7045567681007L144,164.19976874781565L150,163.82901900368364L156,163.45867979505476L162,158.48770450072618L168.00000000000003,160.4419146440171L174,160.59351195381794L180,159.31070372056692L186,163.13354917377552L192,159.44008648135997L198,162.38178794726076L204.00000000000003,163.23653425501854L210,156.94043589197472L216,161.95283222375613L222,164.37310069634503L228,163.76674708662716L234,165.186353978792L240,163.50957843653637L245.99999999999997,161.8287020320098L252,164.22905756072714L258,165.76866972383397L264,164.96103008982067L270,161.61139441248133L276,162.50666797466283L282,166.77916527276668L288,161.3830045225314L294,158.3443748008646L300,166.19020068777454" stroke="blue" fill="none"></path><path d="M6,143.98826263150738L12,113.14100743497548L18,126.28740474584566L24,132.84750369555164L30,135.82744514272758L36,146.14866686916542L42.00000000000001,137.50972470778362L48,141.24993050698004L54,141.66582387415065L60,144.02796735138028L66,113.28709207699733L72,131.97071869759793L78,133.1277117819313L84.00000000000001,138.49451679834357L90,132.24277158465355L96,123.7350625677503L102.00000000000001,132.12664161410666L108,131.7986543088031L114,128.0174411895836L120,136.97290381849209L126,145.71349939227983L132,131.16298704405338L138,139.05176883229524L144,131.62571936972566L150,144.80784941068117L156,137.41570909356892L162,133.9862162047587L168.00000000000003,136.765271988599L174,125.60329913361099L180,143.91681407377206L186,139.8219396421458L192,141.48310126576402L198,132.06065150554392L204.00000000000003,116.43574805150398L210,133.63898464313598L216,135.73500146569458L222,144.45272336391923L228,133.99342319639032L234,118.21447560763491L240,145.97341352662548L245.99999999999997,132.5540604518929L252,140.1477185682166L258,144.80920519598317L264,139.01133398868643L270,140.30010421516036L276,139.6150945483063L282,134.10954127719435L288,127.84754514186224L294,139.61389476360836L300,128.30817951289978" stroke="red" fill="none"></path></g><g transform="translate(420, 20)"><g transform="translate(0, 300)"><g class="tick" style="opacity: 1;" transform="translate(0,0)"><line y2="6" x2="0"></line><text dy=".71em" style="text-anchor: middle;" y="9" x="0">0</text></g><g class="tick" style="opacity: 1;" transform="translate(30,0)"><line y2="6" x2="0"></line><text dy=".71em" style="text-anchor: middle;" y="9" x="0">5</text></g><g class="tick" style="opacity: 1;" transform="translate(60,0)"><line y2="6" x2="0"></line><text dy=".71em" style="text-anchor: middle;" y="9" x="0">10</text></g><g class="tick" style="opacity: 1;" transform="translate(90,0)"><line y2="6" x2="0"></line><text dy=".71em" style="text-anchor: middle;" y="9" x="0">15</text></g><g class="tick" style="opacity: 1;" transform="translate(120,0)"><line y2="6" x2="0"></line><text dy=".71em" style="text-anchor: middle;" y="9" x="0">20</text></g><g class="tick" style="opacity: 1;" transform="translate(150,0)"><line y2="6" x2="0"></line><text dy=".71em" style="text-anchor: middle;" y="9" x="0">25</text></g><g class="tick" style="opacity: 1;" transform="translate(180,0)"><line y2="6" x2="0"></line><text dy=".71em" style="text-anchor: middle;" y="9" x="0">30</text></g><g class="tick" style="opacity: 1;" transform="translate(210,0)"><line y2="6" x2="0"></line><text dy=".71em" style="text-anchor: middle;" y="9" x="0">35</text></g><g class="tick" style="opacity: 1;" transform="translate(240,0)"><line y2="6" x2="0"></line><text dy=".71em" style="text-anchor: middle;" y="9" x="0">40</text></g><g class="tick" style="opacity: 1;" transform="translate(270,0)"><line y2="6" x2="0"></line><text dy=".71em" style="text-anchor: middle;" y="9" x="0">45</text></g><g class="tick" style="opacity: 1;" transform="translate(300,0)"><line y2="6" x2="0"></line><text dy=".71em" style="text-anchor: middle;" y="9" x="0">50</text></g><path class="domain" d="M0,6V0H300V6"></path><text x="150" y="35">回数</text></g><g><g class="tick" style="opacity: 1;" transform="translate(0,300)"><line x2="-6" y2="0"></line><text dy=".32em" style="text-anchor: end;" x="-9" y="0">0.0</text></g><g class="tick" style="opacity: 1;" transform="translate(0,270)"><line x2="-6" y2="0"></line><text dy=".32em" style="text-anchor: end;" x="-9" y="0">0.1</text></g><g class="tick" style="opacity: 1;" transform="translate(0,240)"><line x2="-6" y2="0"></line><text dy=".32em" style="text-anchor: end;" x="-9" y="0">0.2</text></g><g class="tick" style="opacity: 1;" transform="translate(0,210)"><line x2="-6" y2="0"></line><text dy=".32em" style="text-anchor: end;" x="-9" y="0">0.3</text></g><g class="tick" style="opacity: 1;" transform="translate(0,180)"><line x2="-6" y2="0"></line><text dy=".32em" style="text-anchor: end;" x="-9" y="0">0.4</text></g><g class="tick" style="opacity: 1;" transform="translate(0,150)"><line x2="-6" y2="0"></line><text dy=".32em" style="text-anchor: end;" x="-9" y="0">0.5</text></g><g class="tick" style="opacity: 1;" transform="translate(0,120)"><line x2="-6" y2="0"></line><text dy=".32em" style="text-anchor: end;" x="-9" y="0">0.6</text></g><g class="tick" style="opacity: 1;" transform="translate(0,90.00000000000001)"><line x2="-6" y2="0"></line><text dy=".32em" style="text-anchor: end;" x="-9" y="0">0.7</text></g><g class="tick" style="opacity: 1;" transform="translate(0,59.999999999999986)"><line x2="-6" y2="0"></line><text dy=".32em" style="text-anchor: end;" x="-9" y="0">0.8</text></g><g class="tick" style="opacity: 1;" transform="translate(0,29.999999999999993)"><line x2="-6" y2="0"></line><text dy=".32em" style="text-anchor: end;" x="-9" y="0">0.9</text></g><g class="tick" style="opacity: 1;" transform="translate(0,0)"><line x2="-6" y2="0"></line><text dy=".32em" style="text-anchor: end;" x="-9" y="0">1.0</text></g><path class="domain" d="M-6,0H0V300H-6"></path><text x="-150" y="-35" transform="rotate(-90)">正解率</text></g><path d="M6,105.71428571428571L12,94.28571428571428L18,97.14285714285712L24,97.14285714285712L30,80.00000000000001L36,120L42.00000000000001,114.28571428571428L48,102.85714285714286L54,102.85714285714286L60,111.42857142857143L66,102.85714285714286L72,105.71428571428571L78,94.28571428571428L84.00000000000001,102.85714285714286L90,94.28571428571428L96,94.28571428571428L102.00000000000001,102.85714285714286L108,97.14285714285712L114,97.14285714285712L120,105.71428571428571L126,111.42857142857143L132,102.85714285714286L138,97.14285714285712L144,94.28571428571428L150,114.28571428571428L156,100.00000000000001L162,140L168.00000000000003,117.14285714285712L174,111.42857142857143L180,114.28571428571428L186,105.71428571428571L192,114.28571428571428L198,94.28571428571428L204.00000000000003,88.57142857142856L210,102.85714285714286L216,105.71428571428571L222,120L228,94.28571428571428L234,88.57142857142856L240,102.85714285714286L245.99999999999997,97.14285714285712L252,114.28571428571428L258,114.28571428571428L264,114.28571428571428L270,100.00000000000001L276,102.85714285714286L282,97.14285714285712L288,102.85714285714286L294,102.85714285714286L300,100.00000000000001" stroke="blue" fill="none"></path><path d="M6,59.999999999999986L12,140L18,140L24,140L30,86.66666666666666L36,86.66666666666666L42.00000000000001,140L48,86.66666666666666L54,86.66666666666666L60,86.66666666666666L66,160L72,140L78,140L84.00000000000001,140L90,140L96,140L102.00000000000001,140L108,140L114,140L120,140L126,86.66666666666666L132,140L138,140L144,140L150,86.66666666666666L156,140L162,140L168.00000000000003,140L174,140L180,86.66666666666666L186,140L192,140L198,140L204.00000000000003,140L210,140L216,140L222,86.66666666666666L228,140L234,140L240,86.66666666666666L245.99999999999997,140L252,140L258,86.66666666666666L264,140L270,140L276,140L282,140L288,140L294,140L300,140" stroke="red" fill="none"></path></g></svg>
