<svg xmlns="http://www.w3.org/2000/svg" width="740" height="370"><g transform="translate(50, 20)"><g transform="translate(0, 300)"><g class="tick" style="opacity: 1;" transform="translate(0,0)"><line y2="6" x2="0"></line><text dy=".71em" style="text-anchor: middle;" y="9" x="0">0</text></g><g class="tick" style="opacity: 1;" transform="translate(30,0)"><line y2="6" x2="0"></line><text dy=".71em" style="text-anchor: middle;" y="9" x="0">5</text></g><g class="tick" style="opacity: 1;" transform="translate(60,0)"><line y2="6" x2="0"></line><text dy=".71em" style="text-anchor: middle;" y="9" x="0">10</text></g><g class="tick" style="opacity: 1;" transform="translate(90,0)"><line y2="6" x2="0"></line><text dy=".71em" style="text-anchor: middle;" y="9" x="0">15</text></g><g class="tick" style="opacity: 1;" transform="translate(120,0)"><line y2="6" x2="0"></line><text dy=".71em" style="text-anchor: middle;" y="9" x="0">20</text></g><g class="tick" style="opacity: 1;" transform="translate(150,0)"><line y2="6" x2="0"></line><text dy=".71em" style="text-anchor: middle;" y="9" x="0">25</text></g><g class="tick" style="opacity: 1;" transform="translate(180,0)"><line y2="6" x2="0"></line><text dy=".71em" style="text-anchor: middle;" y="9" x="0">30</text></g><g class="tick" style="opacity: 1;" transform="translate(210,0)"><line y2="6" x2="0"></line><text dy=".71em" style="text-anchor: middle;" y="9" x="0">35</text></g><g class="tick" style="opacity: 1;" transform="translate(240,0)"><line y2="6" x2="0"></line><text dy=".71em" style="text-anchor: middle;" y="9" x="0">40</text></g><g class="tick" style="opacity: 1;" transform="translate(270,0)"><line y2="6" x2="0"></line><text dy=".71em" style="text-anchor: middle;" y="9" x="0">45</text></g><g class="tick" style="opacity: 1;" transform="translate(300,0)"><line y2="6" x2="0"></line><text dy=".71em" style="text-anchor: middle;" y="9" x="0">50</text></g><path class="domain" d="M0,6V0H300V6"></path><text x="150" y="35">回数</text></g><g><g class="tick" style="opacity: 1;" transform="translate(0,300)"><line x2="-6" y2="0"></line><text dy=".32em" style="text-anchor: end;" x="-9" y="0">0.0</text></g><g class="tick" style="opacity: 1;" transform="translate(0,270)"><line x2="-6" y2="0"></line><text dy=".32em" style="text-anchor: end;" x="-9" y="0">0.1</text></g><g class="tick" style="opacity: 1;" transform="translate(0,240)"><line x2="-6" y2="0"></line><text dy=".32em" style="text-anchor: end;" x="-9" y="0">0.2</text></g><g class="tick" style="opacity: 1;" transform="translate(0,210)"><line x2="-6" y2="0"></line><text dy=".32em" style="text-anchor: end;" x="-9" y="0">0.3</text></g><g class="tick" style="opacity: 1;" transform="translate(0,180)"><line x2="-6" y2="0"></line><text dy=".32em" style="text-anchor: end;" x="-9" y="0">0.4</text></g><g class="tick" style="opacity: 1;" transform="translate(0,150)"><line x2="-6" y2="0"></line><text dy=".32em" style="text-anchor: end;" x="-9" y="0">0.5</text></g><g class="tick" style="opacity: 1;" transform="translate(0,120)"><line x2="-6" y2="0"></line><text dy=".32em" style="text-anchor: end;" x="-9" y="0">0.6</text></g><g class="tick" style="opacity: 1;" transform="translate(0,90.00000000000001)"><line x2="-6" y2="0"></line><text dy=".32em" style="text-anchor: end;" x="-9" y="0">0.7</text></g><g class="tick" style="opacity: 1;" transform="translate(0,59.999999999999986)"><line x2="-6" y2="0"></line><text dy=".32em" style="text-anchor: end;" x="-9" y="0">0.8</text></g><g class="tick" style="opacity: 1;" transform="translate(0,29.999999999999993)"><line x2="-6" y2="0"></line><text dy=".32em" style="text-anchor: end;" x="-9" y="0">0.9</text></g><g class="tick" style="opacity: 1;" transform="translate(0,0)"><line x2="-6" y2="0"></line><text dy=".32em" style="text-anchor: end;" x="-9" y="0">1.0</text></g><path class="domain" d="M-6,0H0V300H-6"></path><text x="-150" y="-35" transform="rotate(-90)">誤差</text></g><path d="M6,-558.8755908034578L12,-536.781021697612L18,-528.4748964175716L24,-522.1212023438815L30,-516.7585560140227L36,-512.1354487432934L42.00000000000001,-507.88814326228703L48,-504.03665596828836L54,-500.44831814232657L60,-497.13070377404284L66,-493.95107802424883L72,-490.96083123352565L78,-488.1128766138718L84.00000000000001,-485.38968088728126L90,-482.79833253996526L96,-480.269632912853L102.00000000000001,-477.84822675910834L108,-475.5070816107117L114,-473.2589902091436L120,-471.04039349738287L126,-468.9059114901605L132,-466.8449362637002L138,-464.8029676873797L144,-462.8280820173289L150,-460.89947855619346L156,-459.03305353859076L162,-457.17016107240227L168.00000000000003,-455.36650856008737L174,-453.59695390831564L180,-451.8596851101488L186,-450.15721679392715L192,-448.4841569027286L198,-446.85669335869596L204.00000000000003,-445.2419097307852L210,-443.64113921276936L216,-442.0796519546871L222,-440.5578767591426L228,-439.0452229856817L234,-437.54173839742765L240,-436.0722349878681L245.99999999999997,-434.63880302205945L252,-433.19761853837474L258,-431.78782083574185L264,-430.396580099123L270,-429.02228364538695L276,-427.6645874119261L282,-426.32381029790406L288,-425.01201718740646L294,-423.70322630439455L300,-422.3957154828396" stroke="blue" fill="none"></path><path d="M6,-685.1787529432025L12,-673.2744714727014L18,-665.0752115752011L24,-658.4561930157676L30,-652.7292975127187L36,-647.6503358764502L42.00000000000001,-643.0049590334911L48,-638.7097057601535L54,-634.6899737539298L60,-630.9184456255618L66,-627.3477805947613L72,-623.946052730417L78,-620.6942194094725L84.00000000000001,-617.5729529502447L90,-614.5749960014508L96,-611.6814701591512L102.00000000000001,-608.8831257347405L108,-606.1708780271814L114,-603.5412137668987L120,-600.9817301712715L126,-598.489476093169L132,-596.0624726621071L138,-593.6935563732152L144,-591.3780614396238L150,-589.1123962429725L156,-586.8972130673098L162,-584.7252246332793L168.00000000000003,-582.5952493408824L174,-580.5048922104593L180,-578.4511324119673L186,-576.4328074707537L192,-574.4481854630804L198,-572.4980538034572L204.00000000000003,-570.5803855924431L210,-568.691801183925L216,-566.8313138644555L222,-564.9993625357433L228,-563.1947583180767L234,-561.4145520494015L240,-559.6574480097177L245.99999999999997,-557.9245268287366L252,-556.2134335398432L258,-554.5231358202346L264,-552.8525327869041L270,-551.2013232781925L276,-549.5686180112345L282,-547.9542866437903L288,-546.3590182722421L294,-544.7821358229727L300,-543.22160960814" stroke="red" fill="none"></path></g><g transform="translate(420, 20)"><g transform="translate(0, 300)"><g class="tick" style="opacity: 1;" transform="translate(0,0)"><line y2="6" x2="0"></line><text dy=".71em" style="text-anchor: middle;" y="9" x="0">0</text></g><g class="tick" style="opacity: 1;" transform="translate(30,0)"><line y2="6" x2="0"></line><text dy=".71em" style="text-anchor: middle;" y="9" x="0">5</text></g><g class="tick" style="opacity: 1;" transform="translate(60,0)"><line y2="6" x2="0"></line><text dy=".71em" style="text-anchor: middle;" y="9" x="0">10</text></g><g class="tick" style="opacity: 1;" transform="translate(90,0)"><line y2="6" x2="0"></line><text dy=".71em" style="text-anchor: middle;" y="9" x="0">15</text></g><g class="tick" style="opacity: 1;" transform="translate(120,0)"><line y2="6" x2="0"></line><text dy=".71em" style="text-anchor: middle;" y="9" x="0">20</text></g><g class="tick" style="opacity: 1;" transform="translate(150,0)"><line y2="6" x2="0"></line><text dy=".71em" style="text-anchor: middle;" y="9" x="0">25</text></g><g class="tick" style="opacity: 1;" transform="translate(180,0)"><line y2="6" x2="0"></line><text dy=".71em" style="text-anchor: middle;" y="9" x="0">30</text></g><g class="tick" style="opacity: 1;" transform="translate(210,0)"><line y2="6" x2="0"></line><text dy=".71em" style="text-anchor: middle;" y="9" x="0">35</text></g><g class="tick" style="opacity: 1;" transform="translate(240,0)"><line y2="6" x2="0"></line><text dy=".71em" style="text-anchor: middle;" y="9" x="0">40</text></g><g class="tick" style="opacity: 1;" transform="translate(270,0)"><line y2="6" x2="0"></line><text dy=".71em" style="text-anchor: middle;" y="9" x="0">45</text></g><g class="tick" style="opacity: 1;" transform="translate(300,0)"><line y2="6" x2="0"></line><text dy=".71em" style="text-anchor: middle;" y="9" x="0">50</text></g><path class="domain" d="M0,6V0H300V6"></path><text x="150" y="35">回数</text></g><g><g class="tick" style="opacity: 1;" transform="translate(0,300)"><line x2="-6" y2="0"></line><text dy=".32em" style="text-anchor: end;" x="-9" y="0">0.0</text></g><g class="tick" style="opacity: 1;" transform="translate(0,270)"><line x2="-6" y2="0"></line><text dy=".32em" style="text-anchor: end;" x="-9" y="0">0.1</text></g><g class="tick" style="opacity: 1;" transform="translate(0,240)"><line x2="-6" y2="0"></line><text dy=".32em" style="text-anchor: end;" x="-9" y="0">0.2</text></g><g class="tick" style="opacity: 1;" transform="translate(0,210)"><line x2="-6" y2="0"></line><text dy=".32em" style="text-anchor: end;" x="-9" y="0">0.3</text></g><g class="tick" style="opacity: 1;" transform="translate(0,180)"><line x2="-6" y2="0"></line><text dy=".32em" style="text-anchor: end;" x="-9" y="0">0.4</text></g><g class="tick" style="opacity: 1;" transform="translate(0,150)"><line x2="-6" y2="0"></line><text dy=".32em" style="text-anchor: end;" x="-9" y="0">0.5</text></g><g class="tick" style="opacity: 1;" transform="translate(0,120)"><line x2="-6" y2="0"></line><text dy=".32em" style="text-anchor: end;" x="-9" y="0">0.6</text></g><g class="tick" style="opacity: 1;" transform="translate(0,90.00000000000001)"><line x2="-6" y2="0"></line><text dy=".32em" style="text-anchor: end;" x="-9" y="0">0.7</text></g><g class="tick" style="opacity: 1;" transform="translate(0,59.999999999999986)"><line x2="-6" y2="0"></line><text dy=".32em" style="text-anchor: end;" x="-9" y="0">0.8</text></g><g class="tick" style="opacity: 1;" transform="translate(0,29.999999999999993)"><line x2="-6" y2="0"></line><text dy=".32em" style="text-anchor: end;" x="-9" y="0">0.9</text></g><g class="tick" style="opacity: 1;" transform="translate(0,0)"><line x2="-6" y2="0"></line><text dy=".32em" style="text-anchor: end;" x="-9" y="0">1.0</text></g><path class="domain" d="M-6,0H0V300H-6"></path><text x="-150" y="-35" transform="rotate(-90)">正解率</text></g><path d="M6,200.00000000000003L12,200.00000000000003L18,200.00000000000003L24,200.00000000000003L30,200.00000000000003L36,200.00000000000003L42.00000000000001,200.00000000000003L48,200.00000000000003L54,200.00000000000003L60,200.00000000000003L66,200.00000000000003L72,200.00000000000003L78,200.00000000000003L84.00000000000001,200.00000000000003L90,200.00000000000003L96,200.00000000000003L102.00000000000001,200.00000000000003L108,200.00000000000003L114,200.00000000000003L120,200.00000000000003L126,200.00000000000003L132,200.00000000000003L138,200.00000000000003L144,200.00000000000003L150,200.00000000000003L156,200.00000000000003L162,200.00000000000003L168.00000000000003,200.00000000000003L174,200.00000000000003L180,200.00000000000003L186,200.00000000000003L192,200.00000000000003L198,200.00000000000003L204.00000000000003,200.00000000000003L210,200.00000000000003L216,200.00000000000003L222,200.00000000000003L228,200.00000000000003L234,200.00000000000003L240,200.00000000000003L245.99999999999997,200.00000000000003L252,200.00000000000003L258,200.00000000000003L264,200.00000000000003L270,200.00000000000003L276,200.00000000000003L282,200.00000000000003L288,200.00000000000003L294,200.00000000000003L300,200.00000000000003" stroke="blue" fill="none"></path><path d="M6,200.00000000000003L12,200.00000000000003L18,200.00000000000003L24,200.00000000000003L30,200.00000000000003L36,200.00000000000003L42.00000000000001,200.00000000000003L48,200.00000000000003L54,200.00000000000003L60,200.00000000000003L66,200.00000000000003L72,200.00000000000003L78,200.00000000000003L84.00000000000001,200.00000000000003L90,200.00000000000003L96,200.00000000000003L102.00000000000001,200.00000000000003L108,200.00000000000003L114,200.00000000000003L120,200.00000000000003L126,200.00000000000003L132,200.00000000000003L138,200.00000000000003L144,200.00000000000003L150,200.00000000000003L156,200.00000000000003L162,200.00000000000003L168.00000000000003,200.00000000000003L174,200.00000000000003L180,200.00000000000003L186,200.00000000000003L192,200.00000000000003L198,200.00000000000003L204.00000000000003,200.00000000000003L210,200.00000000000003L216,200.00000000000003L222,200.00000000000003L228,200.00000000000003L234,200.00000000000003L240,200.00000000000003L245.99999999999997,200.00000000000003L252,200.00000000000003L258,200.00000000000003L264,200.00000000000003L270,200.00000000000003L276,200.00000000000003L282,200.00000000000003L288,200.00000000000003L294,200.00000000000003L300,200.00000000000003" stroke="red" fill="none"></path></g></svg>
