<svg xmlns="http://www.w3.org/2000/svg" width="740" height="370"><g transform="translate(50, 20)"><g transform="translate(0, 300)"><g class="tick" style="opacity: 1;" transform="translate(0,0)"><line y2="6" x2="0"></line><text dy=".71em" style="text-anchor: middle;" y="9" x="0">0</text></g><g class="tick" style="opacity: 1;" transform="translate(30,0)"><line y2="6" x2="0"></line><text dy=".71em" style="text-anchor: middle;" y="9" x="0">5</text></g><g class="tick" style="opacity: 1;" transform="translate(60,0)"><line y2="6" x2="0"></line><text dy=".71em" style="text-anchor: middle;" y="9" x="0">10</text></g><g class="tick" style="opacity: 1;" transform="translate(90,0)"><line y2="6" x2="0"></line><text dy=".71em" style="text-anchor: middle;" y="9" x="0">15</text></g><g class="tick" style="opacity: 1;" transform="translate(120,0)"><line y2="6" x2="0"></line><text dy=".71em" style="text-anchor: middle;" y="9" x="0">20</text></g><g class="tick" style="opacity: 1;" transform="translate(150,0)"><line y2="6" x2="0"></line><text dy=".71em" style="text-anchor: middle;" y="9" x="0">25</text></g><g class="tick" style="opacity: 1;" transform="translate(180,0)"><line y2="6" x2="0"></line><text dy=".71em" style="text-anchor: middle;" y="9" x="0">30</text></g><g class="tick" style="opacity: 1;" transform="translate(210,0)"><line y2="6" x2="0"></line><text dy=".71em" style="text-anchor: middle;" y="9" x="0">35</text></g><g class="tick" style="opacity: 1;" transform="translate(240,0)"><line y2="6" x2="0"></line><text dy=".71em" style="text-anchor: middle;" y="9" x="0">40</text></g><g class="tick" style="opacity: 1;" transform="translate(270,0)"><line y2="6" x2="0"></line><text dy=".71em" style="text-anchor: middle;" y="9" x="0">45</text></g><g class="tick" style="opacity: 1;" transform="translate(300,0)"><line y2="6" x2="0"></line><text dy=".71em" style="text-anchor: middle;" y="9" x="0">50</text></g><path class="domain" d="M0,6V0H300V6"></path><text x="150" y="35">回数</text></g><g><g class="tick" style="opacity: 1;" transform="translate(0,300)"><line x2="-6" y2="0"></line><text dy=".32em" style="text-anchor: end;" x="-9" y="0">0.0</text></g><g class="tick" style="opacity: 1;" transform="translate(0,270)"><line x2="-6" y2="0"></line><text dy=".32em" style="text-anchor: end;" x="-9" y="0">0.1</text></g><g class="tick" style="opacity: 1;" transform="translate(0,240)"><line x2="-6" y2="0"></line><text dy=".32em" style="text-anchor: end;" x="-9" y="0">0.2</text></g><g class="tick" style="opacity: 1;" transform="translate(0,210)"><line x2="-6" y2="0"></line><text dy=".32em" style="text-anchor: end;" x="-9" y="0">0.3</text></g><g class="tick" style="opacity: 1;" transform="translate(0,180)"><line x2="-6" y2="0"></line><text dy=".32em" style="text-anchor: end;" x="-9" y="0">0.4</text></g><g class="tick" style="opacity: 1;" transform="translate(0,150)"><line x2="-6" y2="0"></line><text dy=".32em" style="text-anchor: end;" x="-9" y="0">0.5</text></g><g class="tick" style="opacity: 1;" transform="translate(0,120)"><line x2="-6" y2="0"></line><text dy=".32em" style="text-anchor: end;" x="-9" y="0">0.6</text></g><g class="tick" style="opacity: 1;" transform="translate(0,90.00000000000001)"><line x2="-6" y2="0"></line><text dy=".32em" style="text-anchor: end;" x="-9" y="0">0.7</text></g><g class="tick" style="opacity: 1;" transform="translate(0,59.999999999999986)"><line x2="-6" y2="0"></line><text dy=".32em" style="text-anchor: end;" x="-9" y="0">0.8</text></g><g class="tick" style="opacity: 1;" transform="translate(0,29.999999999999993)"><line x2="-6" y2="0"></line><text dy=".32em" style="text-anchor: end;" x="-9" y="0">0.9</text></g><g class="tick" style="opacity: 1;" transform="translate(0,0)"><line x2="-6" y2="0"></line><text dy=".32em" style="text-anchor: end;" x="-9" y="0">1.0</text></g><path class="domain" d="M-6,0H0V300H-6"></path><text x="-150" y="-35" transform="rotate(-90)">誤差</text></g><path d="M6,-330.66931501904486L12,67.5003537898339L18,134.38270012090135L24,123.9627749782035L30,150.21358836885344L36,170.2880771910415L42.00000000000001,165.78121861788594L48,142.11036922839884L54,195.12691414725896L60,124.15100426794865L66,152.41333150537744L72,174.55890293652888L78,189.69944479683068L84.00000000000001,169.10237283577655L90,212.38439954637855L96,213.69747071456015L102.00000000000001,211.8374713194331L108,220.40726307114963L114,224.68674740085015L120,224.38801384247245L126,201.16894470471738L132,211.14368313513268L138,217.50848073197943L144,230.29690156135788L150,236.0761028197184L156,176.76542382752675L162,213.96800429116755L168.00000000000003,234.2838151218525L174,224.3473800599149L180,239.86673276113646L186,232.32099093557792L192,225.08948247159884L198,205.03628349645305L204.00000000000003,211.24057596187845L210,210.23313998243628L216,244.39921139296038L222,240.69667137340826L228,242.00466338226755L234,245.10706330209305L240,235.22676073163365L245.99999999999997,245.5851520498552L252,241.30492238757856L258,248.33061244260938L264,228.03720577374258L270,245.39301407591577L276,239.3607204002402L282,252.3902668589193L288,243.1575980329752L294,235.8327366094739L300,253.98083076276328" stroke="blue" fill="none"></path><path d="M6,65.0264915509696L12,148.4801698689415L18,155.8300839663048L24,178.2025781365875L30,188.71869853213684L36,196.39098608366282L42.00000000000001,189.2505419583037L48,208.53008386248183L54,176.01021249532187L60,204.0882783169316L66,220.11544628160712L72,212.03878277437L78,193.35841050713216L84.00000000000001,231.23131172005017L90,230.41186961124382L96,228.06129817654286L102.00000000000001,236.73437633813666L108,237.20866775558792L114,240.9556818773876L120,222.09941685326262L126,234.95172027739903L132,243.34253807416934L138,243.80813013558407L144,245.7090183707529L150,223.18772059618993L156,238.92757038605487L162,251.8629826018153L168.00000000000003,247.54935158843102L174,252.60894577659772L180,247.3400830530996L186,253.76672781176427L192,242.72272543733993L198,238.2823135048422L204.00000000000003,241.91512211520765L210,258.8794865225146L216,257.8213655092573L222,260.2362585874379L228,259.7289231066884L234,255.95865620637105L240,261.7529354928419L245.99999999999997,262.4073772534955L252,254.520193354783L258,240.33157985237227L264,263.9531187796059L270,263.6052215365234L276,264.6668253264121L282,262.9328640846801L288,254.22338553584424L294,263.1726871400182L300,265.39515338793956" stroke="red" fill="none"></path></g><g transform="translate(420, 20)"><g transform="translate(0, 300)"><g class="tick" style="opacity: 1;" transform="translate(0,0)"><line y2="6" x2="0"></line><text dy=".71em" style="text-anchor: middle;" y="9" x="0">0</text></g><g class="tick" style="opacity: 1;" transform="translate(30,0)"><line y2="6" x2="0"></line><text dy=".71em" style="text-anchor: middle;" y="9" x="0">5</text></g><g class="tick" style="opacity: 1;" transform="translate(60,0)"><line y2="6" x2="0"></line><text dy=".71em" style="text-anchor: middle;" y="9" x="0">10</text></g><g class="tick" style="opacity: 1;" transform="translate(90,0)"><line y2="6" x2="0"></line><text dy=".71em" style="text-anchor: middle;" y="9" x="0">15</text></g><g class="tick" style="opacity: 1;" transform="translate(120,0)"><line y2="6" x2="0"></line><text dy=".71em" style="text-anchor: middle;" y="9" x="0">20</text></g><g class="tick" style="opacity: 1;" transform="translate(150,0)"><line y2="6" x2="0"></line><text dy=".71em" style="text-anchor: middle;" y="9" x="0">25</text></g><g class="tick" style="opacity: 1;" transform="translate(180,0)"><line y2="6" x2="0"></line><text dy=".71em" style="text-anchor: middle;" y="9" x="0">30</text></g><g class="tick" style="opacity: 1;" transform="translate(210,0)"><line y2="6" x2="0"></line><text dy=".71em" style="text-anchor: middle;" y="9" x="0">35</text></g><g class="tick" style="opacity: 1;" transform="translate(240,0)"><line y2="6" x2="0"></line><text dy=".71em" style="text-anchor: middle;" y="9" x="0">40</text></g><g class="tick" style="opacity: 1;" transform="translate(270,0)"><line y2="6" x2="0"></line><text dy=".71em" style="text-anchor: middle;" y="9" x="0">45</text></g><g class="tick" style="opacity: 1;" transform="translate(300,0)"><line y2="6" x2="0"></line><text dy=".71em" style="text-anchor: middle;" y="9" x="0">50</text></g><path class="domain" d="M0,6V0H300V6"></path><text x="150" y="35">回数</text></g><g><g class="tick" style="opacity: 1;" transform="translate(0,300)"><line x2="-6" y2="0"></line><text dy=".32em" style="text-anchor: end;" x="-9" y="0">0.0</text></g><g class="tick" style="opacity: 1;" transform="translate(0,270)"><line x2="-6" y2="0"></line><text dy=".32em" style="text-anchor: end;" x="-9" y="0">0.1</text></g><g class="tick" style="opacity: 1;" transform="translate(0,240)"><line x2="-6" y2="0"></line><text dy=".32em" style="text-anchor: end;" x="-9" y="0">0.2</text></g><g class="tick" style="opacity: 1;" transform="translate(0,210)"><line x2="-6" y2="0"></line><text dy=".32em" style="text-anchor: end;" x="-9" y="0">0.3</text></g><g class="tick" style="opacity: 1;" transform="translate(0,180)"><line x2="-6" y2="0"></line><text dy=".32em" style="text-anchor: end;" x="-9" y="0">0.4</text></g><g class="tick" style="opacity: 1;" transform="translate(0,150)"><line x2="-6" y2="0"></line><text dy=".32em" style="text-anchor: end;" x="-9" y="0">0.5</text></g><g class="tick" style="opacity: 1;" transform="translate(0,120)"><line x2="-6" y2="0"></line><text dy=".32em" style="text-anchor: end;" x="-9" y="0">0.6</text></g><g class="tick" style="opacity: 1;" transform="translate(0,90.00000000000001)"><line x2="-6" y2="0"></line><text dy=".32em" style="text-anchor: end;" x="-9" y="0">0.7</text></g><g class="tick" style="opacity: 1;" transform="translate(0,59.999999999999986)"><line x2="-6" y2="0"></line><text dy=".32em" style="text-anchor: end;" x="-9" y="0">0.8</text></g><g class="tick" style="opacity: 1;" transform="translate(0,29.999999999999993)"><line x2="-6" y2="0"></line><text dy=".32em" style="text-anchor: end;" x="-9" y="0">0.9</text></g><g class="tick" style="opacity: 1;" transform="translate(0,0)"><line x2="-6" y2="0"></line><text dy=".32em" style="text-anchor: end;" x="-9" y="0">1.0</text></g><path class="domain" d="M-6,0H0V300H-6"></path><text x="-150" y="-35" transform="rotate(-90)">正解率</text></g><path d="M6,162.8571428571429L12,105.71428571428571L18,80.00000000000001L24,94.28571428571428L30,74.28571428571429L36,59.999999999999986L42.00000000000001,57.14285714285714L48,62.85714285714287L54,48.57142857142856L60,48.57142857142856L66,59.999999999999986L72,65.71428571428571L78,39.99999999999999L84.00000000000001,45.714285714285715L90,22.857142857142843L96,25.714285714285722L102.00000000000001,34.2857142857143L108,22.857142857142843L114,14.285714285714302L120,22.857142857142843L126,45.714285714285715L132,39.99999999999999L138,28.57142857142857L144,22.857142857142843L150,17.14285714285715L156,37.142857142857146L162,25.714285714285722L168.00000000000003,19.999999999999996L174,25.714285714285722L180,19.999999999999996L186,34.2857142857143L192,28.57142857142857L198,34.2857142857143L204.00000000000003,28.57142857142857L210,25.714285714285722L216,14.285714285714302L222,19.999999999999996L228,22.857142857142843L234,14.285714285714302L240,28.57142857142857L245.99999999999997,11.428571428571422L252,22.857142857142843L258,14.285714285714302L264,19.999999999999996L270,8.571428571428575L276,17.14285714285715L282,14.285714285714302L288,19.999999999999996L294,19.999999999999996L300,11.428571428571422" stroke="blue" fill="none"></path><path d="M6,153.33333333333331L12,33.33333333333335L18,66.66666666666666L24,53.33333333333334L30,53.33333333333334L36,39.99999999999999L42.00000000000001,53.33333333333334L48,0L54,73.33333333333334L60,53.33333333333334L66,6.666666666666677L72,53.33333333333334L78,53.33333333333334L84.00000000000001,0L90,13.33333333333332L96,19.999999999999996L102.00000000000001,6.666666666666677L108,6.666666666666677L114,0L120,33.33333333333335L126,26.66666666666667L132,6.666666666666677L138,6.666666666666677L144,6.666666666666677L150,39.99999999999999L156,26.66666666666667L162,0L168.00000000000003,13.33333333333332L174,0L180,13.33333333333332L186,6.666666666666677L192,26.66666666666667L198,33.33333333333335L204.00000000000003,33.33333333333335L210,0L216,0L222,0L228,0L234,6.666666666666677L240,0L245.99999999999997,0L252,13.33333333333332L258,33.33333333333335L264,0L270,0L276,0L282,6.666666666666677L288,26.66666666666667L294,6.666666666666677L300,0" stroke="red" fill="none"></path></g></svg>
