<svg xmlns="http://www.w3.org/2000/svg" width="740" height="370"><g transform="translate(50, 20)"><g transform="translate(0, 300)"><g class="tick" style="opacity: 1;" transform="translate(0,0)"><line y2="6" x2="0"></line><text dy=".71em" style="text-anchor: middle;" y="9" x="0">0</text></g><g class="tick" style="opacity: 1;" transform="translate(30,0)"><line y2="6" x2="0"></line><text dy=".71em" style="text-anchor: middle;" y="9" x="0">5</text></g><g class="tick" style="opacity: 1;" transform="translate(60,0)"><line y2="6" x2="0"></line><text dy=".71em" style="text-anchor: middle;" y="9" x="0">10</text></g><g class="tick" style="opacity: 1;" transform="translate(90,0)"><line y2="6" x2="0"></line><text dy=".71em" style="text-anchor: middle;" y="9" x="0">15</text></g><g class="tick" style="opacity: 1;" transform="translate(120,0)"><line y2="6" x2="0"></line><text dy=".71em" style="text-anchor: middle;" y="9" x="0">20</text></g><g class="tick" style="opacity: 1;" transform="translate(150,0)"><line y2="6" x2="0"></line><text dy=".71em" style="text-anchor: middle;" y="9" x="0">25</text></g><g class="tick" style="opacity: 1;" transform="translate(180,0)"><line y2="6" x2="0"></line><text dy=".71em" style="text-anchor: middle;" y="9" x="0">30</text></g><g class="tick" style="opacity: 1;" transform="translate(210,0)"><line y2="6" x2="0"></line><text dy=".71em" style="text-anchor: middle;" y="9" x="0">35</text></g><g class="tick" style="opacity: 1;" transform="translate(240,0)"><line y2="6" x2="0"></line><text dy=".71em" style="text-anchor: middle;" y="9" x="0">40</text></g><g class="tick" style="opacity: 1;" transform="translate(270,0)"><line y2="6" x2="0"></line><text dy=".71em" style="text-anchor: middle;" y="9" x="0">45</text></g><g class="tick" style="opacity: 1;" transform="translate(300,0)"><line y2="6" x2="0"></line><text dy=".71em" style="text-anchor: middle;" y="9" x="0">50</text></g><path class="domain" d="M0,6V0H300V6"></path><text x="150" y="35">回数</text></g><g><g class="tick" style="opacity: 1;" transform="translate(0,300)"><line x2="-6" y2="0"></line><text dy=".32em" style="text-anchor: end;" x="-9" y="0">0.0</text></g><g class="tick" style="opacity: 1;" transform="translate(0,270)"><line x2="-6" y2="0"></line><text dy=".32em" style="text-anchor: end;" x="-9" y="0">0.1</text></g><g class="tick" style="opacity: 1;" transform="translate(0,240)"><line x2="-6" y2="0"></line><text dy=".32em" style="text-anchor: end;" x="-9" y="0">0.2</text></g><g class="tick" style="opacity: 1;" transform="translate(0,210)"><line x2="-6" y2="0"></line><text dy=".32em" style="text-anchor: end;" x="-9" y="0">0.3</text></g><g class="tick" style="opacity: 1;" transform="translate(0,180)"><line x2="-6" y2="0"></line><text dy=".32em" style="text-anchor: end;" x="-9" y="0">0.4</text></g><g class="tick" style="opacity: 1;" transform="translate(0,150)"><line x2="-6" y2="0"></line><text dy=".32em" style="text-anchor: end;" x="-9" y="0">0.5</text></g><g class="tick" style="opacity: 1;" transform="translate(0,120)"><line x2="-6" y2="0"></line><text dy=".32em" style="text-anchor: end;" x="-9" y="0">0.6</text></g><g class="tick" style="opacity: 1;" transform="translate(0,90.00000000000001)"><line x2="-6" y2="0"></line><text dy=".32em" style="text-anchor: end;" x="-9" y="0">0.7</text></g><g class="tick" style="opacity: 1;" transform="translate(0,59.999999999999986)"><line x2="-6" y2="0"></line><text dy=".32em" style="text-anchor: end;" x="-9" y="0">0.8</text></g><g class="tick" style="opacity: 1;" transform="translate(0,29.999999999999993)"><line x2="-6" y2="0"></line><text dy=".32em" style="text-anchor: end;" x="-9" y="0">0.9</text></g><g class="tick" style="opacity: 1;" transform="translate(0,0)"><line x2="-6" y2="0"></line><text dy=".32em" style="text-anchor: end;" x="-9" y="0">1.0</text></g><path class="domain" d="M-6,0H0V300H-6"></path><text x="-150" y="-35" transform="rotate(-90)">誤差</text></g><path d="M6,-399.75813322400495L12,-5418.39548475149L18,212.35538171341005L24,-3640.3383792117597L30,-282.30939961726756L36,230.25791981247872L42.00000000000001,164.94097029850184L48,225.87750549677648L54,-2877.283906368147L60,247.14429064032979L66,266.7102452505588L72,-192.51352665972718L78,271.7487274358437L84.00000000000001,146.38812765953014L90,233.43883130472298L96,97.54848122093101L102.00000000000001,131.20846522432373L108,109.6793422857718L114,-1365.5469462904287L120,204.79276808891697L126,253.57235360702214L132,249.30778561647082L138,142.37237776702844L144,70.92926063385407L150,99.27447370428752L156,248.0931575735463L162,241.4012260853048L168.00000000000003,-453.79638826627524L174,228.24479124145722L180,185.45433798009637L186,-1145.7414128268836L192,-966.096818701979L198,249.39715283659706L204.00000000000003,173.48386122116642L210,205.55402331079142L216,183.50822762481488L222,256.3088855885859L228,261.56634318947766L234,247.45326044174325L240,194.02921208807973L245.99999999999997,195.03463981154994L252,55.40483836322463L258,259.5221279204752L264,-364.6126643796076L270,98.28145733963304L276,215.94272081814918L282,127.48488762295695L288,-156.11966587719996L294,-89.18712067150373L300,-254.31186339401432" stroke="blue" fill="none"></path><path d="M6,-506.45120216458344L12,266.88873969979994L18,0.9419596088796944L24,225.8025011837907L30,279.68501289949853L36,251.51943357590173L42.00000000000001,282.9978114219413L48,-0.02739660308614944L54,282.91099280783914L60,280.77373246959456L66,198.5768167085743L72,284.31354278302035L78,242.38091665951472L84.00000000000001,280.9437059123201L90,277.56219285140514L96,272.435774868483L102.00000000000001,240.03652774584052L108,100.3104304500704L114,244.48437442169222L120,280.36166397441656L126,285.25257775502354L132,261.69049952115205L138,250.18550353663477L144,269.5295739008335L150,273.6219118598409L156,282.671706207105L162,87.32325401011514L168.00000000000003,274.574748293604L174,284.11893226270473L180,128.9580242097408L186,90.87105915086246L192,280.247014359547L198,279.3997237697434L204.00000000000003,280.9008514631407L210,281.40956057373336L216,282.91862105611415L222,283.21630869223117L228,278.243445625037L234,263.59404499788036L240,273.8174511957365L245.99999999999997,239.43826450319375L252,285.0462626064128L258,113.35680114916755L264,202.3164150414121L270,286.0252139466573L276,268.9945298856203L282,137.76379041763644L288,110.66130700512663L294,135.19138579056843L300,284.76638991075396" stroke="red" fill="none"></path></g><g transform="translate(420, 20)"><g transform="translate(0, 300)"><g class="tick" style="opacity: 1;" transform="translate(0,0)"><line y2="6" x2="0"></line><text dy=".71em" style="text-anchor: middle;" y="9" x="0">0</text></g><g class="tick" style="opacity: 1;" transform="translate(30,0)"><line y2="6" x2="0"></line><text dy=".71em" style="text-anchor: middle;" y="9" x="0">5</text></g><g class="tick" style="opacity: 1;" transform="translate(60,0)"><line y2="6" x2="0"></line><text dy=".71em" style="text-anchor: middle;" y="9" x="0">10</text></g><g class="tick" style="opacity: 1;" transform="translate(90,0)"><line y2="6" x2="0"></line><text dy=".71em" style="text-anchor: middle;" y="9" x="0">15</text></g><g class="tick" style="opacity: 1;" transform="translate(120,0)"><line y2="6" x2="0"></line><text dy=".71em" style="text-anchor: middle;" y="9" x="0">20</text></g><g class="tick" style="opacity: 1;" transform="translate(150,0)"><line y2="6" x2="0"></line><text dy=".71em" style="text-anchor: middle;" y="9" x="0">25</text></g><g class="tick" style="opacity: 1;" transform="translate(180,0)"><line y2="6" x2="0"></line><text dy=".71em" style="text-anchor: middle;" y="9" x="0">30</text></g><g class="tick" style="opacity: 1;" transform="translate(210,0)"><line y2="6" x2="0"></line><text dy=".71em" style="text-anchor: middle;" y="9" x="0">35</text></g><g class="tick" style="opacity: 1;" transform="translate(240,0)"><line y2="6" x2="0"></line><text dy=".71em" style="text-anchor: middle;" y="9" x="0">40</text></g><g class="tick" style="opacity: 1;" transform="translate(270,0)"><line y2="6" x2="0"></line><text dy=".71em" style="text-anchor: middle;" y="9" x="0">45</text></g><g class="tick" style="opacity: 1;" transform="translate(300,0)"><line y2="6" x2="0"></line><text dy=".71em" style="text-anchor: middle;" y="9" x="0">50</text></g><path class="domain" d="M0,6V0H300V6"></path><text x="150" y="35">回数</text></g><g><g class="tick" style="opacity: 1;" transform="translate(0,300)"><line x2="-6" y2="0"></line><text dy=".32em" style="text-anchor: end;" x="-9" y="0">0.0</text></g><g class="tick" style="opacity: 1;" transform="translate(0,270)"><line x2="-6" y2="0"></line><text dy=".32em" style="text-anchor: end;" x="-9" y="0">0.1</text></g><g class="tick" style="opacity: 1;" transform="translate(0,240)"><line x2="-6" y2="0"></line><text dy=".32em" style="text-anchor: end;" x="-9" y="0">0.2</text></g><g class="tick" style="opacity: 1;" transform="translate(0,210)"><line x2="-6" y2="0"></line><text dy=".32em" style="text-anchor: end;" x="-9" y="0">0.3</text></g><g class="tick" style="opacity: 1;" transform="translate(0,180)"><line x2="-6" y2="0"></line><text dy=".32em" style="text-anchor: end;" x="-9" y="0">0.4</text></g><g class="tick" style="opacity: 1;" transform="translate(0,150)"><line x2="-6" y2="0"></line><text dy=".32em" style="text-anchor: end;" x="-9" y="0">0.5</text></g><g class="tick" style="opacity: 1;" transform="translate(0,120)"><line x2="-6" y2="0"></line><text dy=".32em" style="text-anchor: end;" x="-9" y="0">0.6</text></g><g class="tick" style="opacity: 1;" transform="translate(0,90.00000000000001)"><line x2="-6" y2="0"></line><text dy=".32em" style="text-anchor: end;" x="-9" y="0">0.7</text></g><g class="tick" style="opacity: 1;" transform="translate(0,59.999999999999986)"><line x2="-6" y2="0"></line><text dy=".32em" style="text-anchor: end;" x="-9" y="0">0.8</text></g><g class="tick" style="opacity: 1;" transform="translate(0,29.999999999999993)"><line x2="-6" y2="0"></line><text dy=".32em" style="text-anchor: end;" x="-9" y="0">0.9</text></g><g class="tick" style="opacity: 1;" transform="translate(0,0)"><line x2="-6" y2="0"></line><text dy=".32em" style="text-anchor: end;" x="-9" y="0">1.0</text></g><path class="domain" d="M-6,0H0V300H-6"></path><text x="-150" y="-35" transform="rotate(-90)">正解率</text></g><path d="M6,142.85714285714286L12,100.00000000000001L18,34.2857142857143L24,85.71428571428571L30,39.99999999999999L36,22.857142857142843L42.00000000000001,25.714285714285722L48,31.428571428571416L54,122.85714285714285L60,11.428571428571422L66,17.14285714285715L72,34.2857142857143L78,8.571428571428575L84.00000000000001,34.2857142857143L90,17.14285714285715L96,34.2857142857143L102.00000000000001,37.142857142857146L108,48.57142857142856L114,48.57142857142856L120,17.14285714285715L126,14.285714285714302L132,14.285714285714302L138,34.2857142857143L144,31.428571428571416L150,37.142857142857146L156,17.14285714285715L162,14.285714285714302L168.00000000000003,59.999999999999986L174,11.428571428571422L180,19.999999999999996L186,74.28571428571429L192,74.28571428571429L198,19.999999999999996L204.00000000000003,19.999999999999996L210,19.999999999999996L216,28.57142857142857L222,14.285714285714302L228,17.14285714285715L234,17.14285714285715L240,31.428571428571416L245.99999999999997,14.285714285714302L252,28.57142857142857L258,11.428571428571422L264,45.714285714285715L270,22.857142857142843L276,22.857142857142843L282,34.2857142857143L288,31.428571428571416L294,48.57142857142856L300,31.428571428571416" stroke="blue" fill="none"></path><path d="M6,93.33333333333333L12,6.666666666666677L18,93.33333333333333L24,33.33333333333335L30,6.666666666666677L36,26.66666666666667L42.00000000000001,6.666666666666677L48,86.66666666666666L54,6.666666666666677L60,6.666666666666677L66,33.33333333333335L72,13.33333333333332L78,26.66666666666667L84.00000000000001,6.666666666666677L90,13.33333333333332L96,13.33333333333332L102.00000000000001,19.999999999999996L108,53.33333333333334L114,19.999999999999996L120,6.666666666666677L126,13.33333333333332L132,13.33333333333332L138,19.999999999999996L144,13.33333333333332L150,13.33333333333332L156,6.666666666666677L162,66.66666666666666L168.00000000000003,6.666666666666677L174,6.666666666666677L180,53.33333333333334L186,66.66666666666666L192,6.666666666666677L198,6.666666666666677L204.00000000000003,6.666666666666677L210,6.666666666666677L216,13.33333333333332L222,6.666666666666677L228,6.666666666666677L234,13.33333333333332L240,6.666666666666677L245.99999999999997,19.999999999999996L252,13.33333333333332L258,53.33333333333334L264,26.66666666666667L270,13.33333333333332L276,6.666666666666677L282,39.99999999999999L288,46.666666666666664L294,39.99999999999999L300,6.666666666666677" stroke="red" fill="none"></path></g></svg>
