<svg xmlns="http://www.w3.org/2000/svg" width="740" height="370"><g transform="translate(50, 20)"><g transform="translate(0, 300)"><g class="tick" style="opacity: 1;" transform="translate(0,0)"><line y2="6" x2="0"></line><text dy=".71em" style="text-anchor: middle;" y="9" x="0">0</text></g><g class="tick" style="opacity: 1;" transform="translate(30,0)"><line y2="6" x2="0"></line><text dy=".71em" style="text-anchor: middle;" y="9" x="0">5</text></g><g class="tick" style="opacity: 1;" transform="translate(60,0)"><line y2="6" x2="0"></line><text dy=".71em" style="text-anchor: middle;" y="9" x="0">10</text></g><g class="tick" style="opacity: 1;" transform="translate(90,0)"><line y2="6" x2="0"></line><text dy=".71em" style="text-anchor: middle;" y="9" x="0">15</text></g><g class="tick" style="opacity: 1;" transform="translate(120,0)"><line y2="6" x2="0"></line><text dy=".71em" style="text-anchor: middle;" y="9" x="0">20</text></g><g class="tick" style="opacity: 1;" transform="translate(150,0)"><line y2="6" x2="0"></line><text dy=".71em" style="text-anchor: middle;" y="9" x="0">25</text></g><g class="tick" style="opacity: 1;" transform="translate(180,0)"><line y2="6" x2="0"></line><text dy=".71em" style="text-anchor: middle;" y="9" x="0">30</text></g><g class="tick" style="opacity: 1;" transform="translate(210,0)"><line y2="6" x2="0"></line><text dy=".71em" style="text-anchor: middle;" y="9" x="0">35</text></g><g class="tick" style="opacity: 1;" transform="translate(240,0)"><line y2="6" x2="0"></line><text dy=".71em" style="text-anchor: middle;" y="9" x="0">40</text></g><g class="tick" style="opacity: 1;" transform="translate(270,0)"><line y2="6" x2="0"></line><text dy=".71em" style="text-anchor: middle;" y="9" x="0">45</text></g><g class="tick" style="opacity: 1;" transform="translate(300,0)"><line y2="6" x2="0"></line><text dy=".71em" style="text-anchor: middle;" y="9" x="0">50</text></g><path class="domain" d="M0,6V0H300V6"></path><text x="150" y="35">回数</text></g><g><g class="tick" style="opacity: 1;" transform="translate(0,300)"><line x2="-6" y2="0"></line><text dy=".32em" style="text-anchor: end;" x="-9" y="0">0.0</text></g><g class="tick" style="opacity: 1;" transform="translate(0,270)"><line x2="-6" y2="0"></line><text dy=".32em" style="text-anchor: end;" x="-9" y="0">0.1</text></g><g class="tick" style="opacity: 1;" transform="translate(0,240)"><line x2="-6" y2="0"></line><text dy=".32em" style="text-anchor: end;" x="-9" y="0">0.2</text></g><g class="tick" style="opacity: 1;" transform="translate(0,210)"><line x2="-6" y2="0"></line><text dy=".32em" style="text-anchor: end;" x="-9" y="0">0.3</text></g><g class="tick" style="opacity: 1;" transform="translate(0,180)"><line x2="-6" y2="0"></line><text dy=".32em" style="text-anchor: end;" x="-9" y="0">0.4</text></g><g class="tick" style="opacity: 1;" transform="translate(0,150)"><line x2="-6" y2="0"></line><text dy=".32em" style="text-anchor: end;" x="-9" y="0">0.5</text></g><g class="tick" style="opacity: 1;" transform="translate(0,120)"><line x2="-6" y2="0"></line><text dy=".32em" style="text-anchor: end;" x="-9" y="0">0.6</text></g><g class="tick" style="opacity: 1;" transform="translate(0,90.00000000000001)"><line x2="-6" y2="0"></line><text dy=".32em" style="text-anchor: end;" x="-9" y="0">0.7</text></g><g class="tick" style="opacity: 1;" transform="translate(0,59.999999999999986)"><line x2="-6" y2="0"></line><text dy=".32em" style="text-anchor: end;" x="-9" y="0">0.8</text></g><g class="tick" style="opacity: 1;" transform="translate(0,29.999999999999993)"><line x2="-6" y2="0"></line><text dy=".32em" style="text-anchor: end;" x="-9" y="0">0.9</text></g><g class="tick" style="opacity: 1;" transform="translate(0,0)"><line x2="-6" y2="0"></line><text dy=".32em" style="text-anchor: end;" x="-9" y="0">1.0</text></g><path class="domain" d="M-6,0H0V300H-6"></path><text x="-150" y="-35" transform="rotate(-90)">誤差</text></g><path d="M6,-57.51316601860348L12,53.39992762551251L18,92.13343951248427L24,112.57004678491757L30,129.4528881386908L36,143.5483892883305L42.00000000000001,157.85437828665562L48,170.56783179114404L54,178.9162593007224L60,186.3941149078561L66,192.49094836990298L72,199.23588606552448L78,205.78192714132925L84.00000000000001,211.40506367693473L90,215.47725694078184L96,217.89109693735605L102.00000000000001,223.47598890074818L108,226.56559887947563L114,233.30852443975454L120,236.7733885286158L126,238.45717417268884L132,241.1838446258142L138,243.25583614263988L144,246.21170487638545L150,247.378828137556L156,248.4352576767203L162,251.00240925006312L168.00000000000003,249.63613060357082L174,253.59210086855504L180,252.8458815315858L186,253.5026020257951L192,255.84018895961609L198,257.1955852807961L204.00000000000003,256.7863740207254L210,257.4407157684117L216,257.5310601578579L222,262.8904518267175L228,260.4622690345333L234,260.22965383569516L240,262.18061001415094L245.99999999999997,262.38058066668685L252,261.64950204368733L258,265.16176353556835L264,265.7684426553291L270,263.8755560721046L276,265.28428834245227L282,263.36702136015145L288,263.81434847196954L294,263.671181950385L300,267.93395509555165" stroke="blue" fill="none"></path><path d="M6,15.60505322225202L12,78.70876662168048L18,112.04818867713462L24,132.064007634688L30,150.34605757221905L36,164.66128749824134L42.00000000000001,173.67494251606382L48,183.44758506065654L54,196.00415619819265L60,200.98963360590275L66,211.04670598341195L72,217.70650085407524L78,216.4679868236913L84.00000000000001,224.89215506580052L90,231.36682004585307L96,235.71873188505657L102.00000000000001,240.31811565699013L108,245.89323737598036L114,242.21296430716504L120,251.27194599519405L126,255.91887020112992L132,258.14503621582105L138,257.44501969148683L144,253.38546941608783L150,262.80500468523246L156,263.98240823628174L162,265.8222231016924L168.00000000000003,267.8133036445301L174,259.1091271631541L180,270.41842188562134L186,267.6528296691776L192,264.83651269290385L198,271.8404737312181L204.00000000000003,274.2723529696499L210,272.8175311622154L216,276.3680669751589L222,269.95611467347874L228,277.9469342414651L234,276.8561685586857L240,271.6374183422828L245.99999999999997,276.15674859952634L252,279.7015314762062L258,260.9433142624112L264,272.4796527563243L270,280.4943189046355L276,279.1605012923331L282,280.80404836415806L288,281.0076298725264L294,280.76764379031516L300,281.74474613221383" stroke="red" fill="none"></path></g><g transform="translate(420, 20)"><g transform="translate(0, 300)"><g class="tick" style="opacity: 1;" transform="translate(0,0)"><line y2="6" x2="0"></line><text dy=".71em" style="text-anchor: middle;" y="9" x="0">0</text></g><g class="tick" style="opacity: 1;" transform="translate(30,0)"><line y2="6" x2="0"></line><text dy=".71em" style="text-anchor: middle;" y="9" x="0">5</text></g><g class="tick" style="opacity: 1;" transform="translate(60,0)"><line y2="6" x2="0"></line><text dy=".71em" style="text-anchor: middle;" y="9" x="0">10</text></g><g class="tick" style="opacity: 1;" transform="translate(90,0)"><line y2="6" x2="0"></line><text dy=".71em" style="text-anchor: middle;" y="9" x="0">15</text></g><g class="tick" style="opacity: 1;" transform="translate(120,0)"><line y2="6" x2="0"></line><text dy=".71em" style="text-anchor: middle;" y="9" x="0">20</text></g><g class="tick" style="opacity: 1;" transform="translate(150,0)"><line y2="6" x2="0"></line><text dy=".71em" style="text-anchor: middle;" y="9" x="0">25</text></g><g class="tick" style="opacity: 1;" transform="translate(180,0)"><line y2="6" x2="0"></line><text dy=".71em" style="text-anchor: middle;" y="9" x="0">30</text></g><g class="tick" style="opacity: 1;" transform="translate(210,0)"><line y2="6" x2="0"></line><text dy=".71em" style="text-anchor: middle;" y="9" x="0">35</text></g><g class="tick" style="opacity: 1;" transform="translate(240,0)"><line y2="6" x2="0"></line><text dy=".71em" style="text-anchor: middle;" y="9" x="0">40</text></g><g class="tick" style="opacity: 1;" transform="translate(270,0)"><line y2="6" x2="0"></line><text dy=".71em" style="text-anchor: middle;" y="9" x="0">45</text></g><g class="tick" style="opacity: 1;" transform="translate(300,0)"><line y2="6" x2="0"></line><text dy=".71em" style="text-anchor: middle;" y="9" x="0">50</text></g><path class="domain" d="M0,6V0H300V6"></path><text x="150" y="35">回数</text></g><g><g class="tick" style="opacity: 1;" transform="translate(0,300)"><line x2="-6" y2="0"></line><text dy=".32em" style="text-anchor: end;" x="-9" y="0">0.0</text></g><g class="tick" style="opacity: 1;" transform="translate(0,270)"><line x2="-6" y2="0"></line><text dy=".32em" style="text-anchor: end;" x="-9" y="0">0.1</text></g><g class="tick" style="opacity: 1;" transform="translate(0,240)"><line x2="-6" y2="0"></line><text dy=".32em" style="text-anchor: end;" x="-9" y="0">0.2</text></g><g class="tick" style="opacity: 1;" transform="translate(0,210)"><line x2="-6" y2="0"></line><text dy=".32em" style="text-anchor: end;" x="-9" y="0">0.3</text></g><g class="tick" style="opacity: 1;" transform="translate(0,180)"><line x2="-6" y2="0"></line><text dy=".32em" style="text-anchor: end;" x="-9" y="0">0.4</text></g><g class="tick" style="opacity: 1;" transform="translate(0,150)"><line x2="-6" y2="0"></line><text dy=".32em" style="text-anchor: end;" x="-9" y="0">0.5</text></g><g class="tick" style="opacity: 1;" transform="translate(0,120)"><line x2="-6" y2="0"></line><text dy=".32em" style="text-anchor: end;" x="-9" y="0">0.6</text></g><g class="tick" style="opacity: 1;" transform="translate(0,90.00000000000001)"><line x2="-6" y2="0"></line><text dy=".32em" style="text-anchor: end;" x="-9" y="0">0.7</text></g><g class="tick" style="opacity: 1;" transform="translate(0,59.999999999999986)"><line x2="-6" y2="0"></line><text dy=".32em" style="text-anchor: end;" x="-9" y="0">0.8</text></g><g class="tick" style="opacity: 1;" transform="translate(0,29.999999999999993)"><line x2="-6" y2="0"></line><text dy=".32em" style="text-anchor: end;" x="-9" y="0">0.9</text></g><g class="tick" style="opacity: 1;" transform="translate(0,0)"><line x2="-6" y2="0"></line><text dy=".32em" style="text-anchor: end;" x="-9" y="0">1.0</text></g><path class="domain" d="M-6,0H0V300H-6"></path><text x="-150" y="-35" transform="rotate(-90)">正解率</text></g><path d="M6,208.57142857142856L12,125.7142857142857L18,102.85714285714286L24,100.00000000000001L30,94.28571428571428L36,62.85714285714287L42.00000000000001,62.85714285714287L48,54.28571428571429L54,25.714285714285722L60,19.999999999999996L66,25.714285714285722L72,25.714285714285722L78,28.57142857142857L84.00000000000001,25.714285714285722L90,14.285714285714302L96,11.428571428571422L102.00000000000001,14.285714285714302L108,11.428571428571422L114,17.14285714285715L120,11.428571428571422L126,11.428571428571422L132,11.428571428571422L138,14.285714285714302L144,11.428571428571422L150,8.571428571428575L156,11.428571428571422L162,8.571428571428575L168.00000000000003,17.14285714285715L174,11.428571428571422L180,14.285714285714302L186,8.571428571428575L192,17.14285714285715L198,11.428571428571422L204.00000000000003,19.999999999999996L210,14.285714285714302L216,11.428571428571422L222,2.857142857142847L228,5.714285714285728L234,17.14285714285715L240,11.428571428571422L245.99999999999997,5.714285714285728L252,11.428571428571422L258,8.571428571428575L264,8.571428571428575L270,11.428571428571422L276,11.428571428571422L282,8.571428571428575L288,11.428571428571422L294,8.571428571428575L300,5.714285714285728" stroke="blue" fill="none"></path><path d="M6,206.66666666666666L12,53.33333333333334L18,93.33333333333333L24,80.00000000000001L30,59.999999999999986L36,80.00000000000001L42.00000000000001,93.33333333333333L48,26.66666666666667L54,19.999999999999996L60,46.666666666666664L66,0L72,0L78,39.99999999999999L84.00000000000001,13.33333333333332L90,0L96,0L102.00000000000001,0L108,0L114,19.999999999999996L120,0L126,0L132,0L138,6.666666666666677L144,13.33333333333332L150,0L156,0L162,0L168.00000000000003,0L174,6.666666666666677L180,0L186,6.666666666666677L192,6.666666666666677L198,0L204.00000000000003,0L210,0L216,0L222,6.666666666666677L228,0L234,0L240,6.666666666666677L245.99999999999997,6.666666666666677L252,0L258,13.33333333333332L264,6.666666666666677L270,0L276,0L282,0L288,0L294,0L300,0" stroke="red" fill="none"></path></g></svg>
