<svg xmlns="http://www.w3.org/2000/svg" width="740" height="370"><g transform="translate(50, 20)"><g transform="translate(0, 300)"><g class="tick" style="opacity: 1;" transform="translate(0,0)"><line y2="6" x2="0"></line><text dy=".71em" style="text-anchor: middle;" y="9" x="0">0</text></g><g class="tick" style="opacity: 1;" transform="translate(30,0)"><line y2="6" x2="0"></line><text dy=".71em" style="text-anchor: middle;" y="9" x="0">5</text></g><g class="tick" style="opacity: 1;" transform="translate(60,0)"><line y2="6" x2="0"></line><text dy=".71em" style="text-anchor: middle;" y="9" x="0">10</text></g><g class="tick" style="opacity: 1;" transform="translate(90,0)"><line y2="6" x2="0"></line><text dy=".71em" style="text-anchor: middle;" y="9" x="0">15</text></g><g class="tick" style="opacity: 1;" transform="translate(120,0)"><line y2="6" x2="0"></line><text dy=".71em" style="text-anchor: middle;" y="9" x="0">20</text></g><g class="tick" style="opacity: 1;" transform="translate(150,0)"><line y2="6" x2="0"></line><text dy=".71em" style="text-anchor: middle;" y="9" x="0">25</text></g><g class="tick" style="opacity: 1;" transform="translate(180,0)"><line y2="6" x2="0"></line><text dy=".71em" style="text-anchor: middle;" y="9" x="0">30</text></g><g class="tick" style="opacity: 1;" transform="translate(210,0)"><line y2="6" x2="0"></line><text dy=".71em" style="text-anchor: middle;" y="9" x="0">35</text></g><g class="tick" style="opacity: 1;" transform="translate(240,0)"><line y2="6" x2="0"></line><text dy=".71em" style="text-anchor: middle;" y="9" x="0">40</text></g><g class="tick" style="opacity: 1;" transform="translate(270,0)"><line y2="6" x2="0"></line><text dy=".71em" style="text-anchor: middle;" y="9" x="0">45</text></g><g class="tick" style="opacity: 1;" transform="translate(300,0)"><line y2="6" x2="0"></line><text dy=".71em" style="text-anchor: middle;" y="9" x="0">50</text></g><path class="domain" d="M0,6V0H300V6"></path><text x="150" y="35">回数</text></g><g><g class="tick" style="opacity: 1;" transform="translate(0,300)"><line x2="-6" y2="0"></line><text dy=".32em" style="text-anchor: end;" x="-9" y="0">0.0</text></g><g class="tick" style="opacity: 1;" transform="translate(0,270)"><line x2="-6" y2="0"></line><text dy=".32em" style="text-anchor: end;" x="-9" y="0">0.1</text></g><g class="tick" style="opacity: 1;" transform="translate(0,240)"><line x2="-6" y2="0"></line><text dy=".32em" style="text-anchor: end;" x="-9" y="0">0.2</text></g><g class="tick" style="opacity: 1;" transform="translate(0,210)"><line x2="-6" y2="0"></line><text dy=".32em" style="text-anchor: end;" x="-9" y="0">0.3</text></g><g class="tick" style="opacity: 1;" transform="translate(0,180)"><line x2="-6" y2="0"></line><text dy=".32em" style="text-anchor: end;" x="-9" y="0">0.4</text></g><g class="tick" style="opacity: 1;" transform="translate(0,150)"><line x2="-6" y2="0"></line><text dy=".32em" style="text-anchor: end;" x="-9" y="0">0.5</text></g><g class="tick" style="opacity: 1;" transform="translate(0,120)"><line x2="-6" y2="0"></line><text dy=".32em" style="text-anchor: end;" x="-9" y="0">0.6</text></g><g class="tick" style="opacity: 1;" transform="translate(0,90.00000000000001)"><line x2="-6" y2="0"></line><text dy=".32em" style="text-anchor: end;" x="-9" y="0">0.7</text></g><g class="tick" style="opacity: 1;" transform="translate(0,59.999999999999986)"><line x2="-6" y2="0"></line><text dy=".32em" style="text-anchor: end;" x="-9" y="0">0.8</text></g><g class="tick" style="opacity: 1;" transform="translate(0,29.999999999999993)"><line x2="-6" y2="0"></line><text dy=".32em" style="text-anchor: end;" x="-9" y="0">0.9</text></g><g class="tick" style="opacity: 1;" transform="translate(0,0)"><line x2="-6" y2="0"></line><text dy=".32em" style="text-anchor: end;" x="-9" y="0">1.0</text></g><path class="domain" d="M-6,0H0V300H-6"></path><text x="-150" y="-35" transform="rotate(-90)">誤差</text></g><path d="M6,-73.79725203115586L12,-42.70764235358633L18,-31.854421431270197L24,-23.402740968376424L30,-16.44220557611673L36,-10.47549984631415L42.00000000000001,-5.245324346146996L48,-0.38586446258483953L54,3.858067623735406L60,7.890323368547037L66,11.547893490821238L72,15.007157544162975L78,18.2184462777525L84.00000000000001,21.19992137438298L90,24.02040090734937L96,26.720712842111094L102.00000000000001,29.23996374287704L108,31.651529984904812L114,34.01444442938737L120,36.1749003954163L126,38.31310569952823L132,40.37968219627231L138,42.251714325395554L144,44.143253314323005L150,46.00656682110825L156,47.70157700567699L162,49.40096109124714L168.00000000000003,50.99703323974808L174,52.561552029715216L180,54.07655791344099L186,55.604913082331706L192,56.97132388967637L198,58.364191832030855L204.00000000000003,59.72832500442065L210,61.01214724158594L216,62.29260166020244L222,63.53538735078931L228,64.72996952399944L234,65.89488773546674L240,67.0106553962339L245.99999999999997,68.16031968879645L252,69.23370297858143L258,70.28793231076216L264,71.34657940888258L270,72.38211690521021L276,73.36687196426162L282,74.33112124731277L288,75.287525885991L294,76.18096508851377L300,77.07984712903502" stroke="blue" fill="none"></path><path d="M6,-48.826120968005405L12,-33.37957501321262L18,-23.91517659347757L24,-16.304590203416968L30,-10.094095613372534L36,-4.640582157986972L42.00000000000001,0.15937424539165246L48,4.529059266464097L54,8.470441699888664L60,12.148251550826682L66,15.450699641942444L72,18.59770572055789L78,21.61765400453589L84.00000000000001,24.45130429423775L90,27.15550909368475L96,29.663293639180555L102.00000000000001,32.06771746986963L108,34.319428497908L114,36.509273029242685L120,38.610013715874445L126,40.5129038180293L132,42.43300956493135L138,44.291363227152544L144,46.06754098057764L150,47.70147962547219L156,49.360547520782006L162,50.951430237798114L168.00000000000003,52.50126058463332L174,54.003446028956205L180,55.43141804025428L186,56.77422231261905L192,58.125292967357936L198,59.4180115160752L204.00000000000003,60.719917909434294L210,61.98293284782031L216,63.21624853837985L222,64.3982760828494L228,65.5397764218965L234,66.67156936183414L240,67.7250650431021L245.99999999999997,68.74826963946303L252,69.79198811709362L258,70.78584826432139L264,71.77571416562752L270,72.72536983815185L276,73.67408553377983L282,74.58557598414193L288,75.50896454799025L294,76.38152547000246L300,77.2685801697396" stroke="red" fill="none"></path></g><g transform="translate(420, 20)"><g transform="translate(0, 300)"><g class="tick" style="opacity: 1;" transform="translate(0,0)"><line y2="6" x2="0"></line><text dy=".71em" style="text-anchor: middle;" y="9" x="0">0</text></g><g class="tick" style="opacity: 1;" transform="translate(30,0)"><line y2="6" x2="0"></line><text dy=".71em" style="text-anchor: middle;" y="9" x="0">5</text></g><g class="tick" style="opacity: 1;" transform="translate(60,0)"><line y2="6" x2="0"></line><text dy=".71em" style="text-anchor: middle;" y="9" x="0">10</text></g><g class="tick" style="opacity: 1;" transform="translate(90,0)"><line y2="6" x2="0"></line><text dy=".71em" style="text-anchor: middle;" y="9" x="0">15</text></g><g class="tick" style="opacity: 1;" transform="translate(120,0)"><line y2="6" x2="0"></line><text dy=".71em" style="text-anchor: middle;" y="9" x="0">20</text></g><g class="tick" style="opacity: 1;" transform="translate(150,0)"><line y2="6" x2="0"></line><text dy=".71em" style="text-anchor: middle;" y="9" x="0">25</text></g><g class="tick" style="opacity: 1;" transform="translate(180,0)"><line y2="6" x2="0"></line><text dy=".71em" style="text-anchor: middle;" y="9" x="0">30</text></g><g class="tick" style="opacity: 1;" transform="translate(210,0)"><line y2="6" x2="0"></line><text dy=".71em" style="text-anchor: middle;" y="9" x="0">35</text></g><g class="tick" style="opacity: 1;" transform="translate(240,0)"><line y2="6" x2="0"></line><text dy=".71em" style="text-anchor: middle;" y="9" x="0">40</text></g><g class="tick" style="opacity: 1;" transform="translate(270,0)"><line y2="6" x2="0"></line><text dy=".71em" style="text-anchor: middle;" y="9" x="0">45</text></g><g class="tick" style="opacity: 1;" transform="translate(300,0)"><line y2="6" x2="0"></line><text dy=".71em" style="text-anchor: middle;" y="9" x="0">50</text></g><path class="domain" d="M0,6V0H300V6"></path><text x="150" y="35">回数</text></g><g><g class="tick" style="opacity: 1;" transform="translate(0,300)"><line x2="-6" y2="0"></line><text dy=".32em" style="text-anchor: end;" x="-9" y="0">0.0</text></g><g class="tick" style="opacity: 1;" transform="translate(0,270)"><line x2="-6" y2="0"></line><text dy=".32em" style="text-anchor: end;" x="-9" y="0">0.1</text></g><g class="tick" style="opacity: 1;" transform="translate(0,240)"><line x2="-6" y2="0"></line><text dy=".32em" style="text-anchor: end;" x="-9" y="0">0.2</text></g><g class="tick" style="opacity: 1;" transform="translate(0,210)"><line x2="-6" y2="0"></line><text dy=".32em" style="text-anchor: end;" x="-9" y="0">0.3</text></g><g class="tick" style="opacity: 1;" transform="translate(0,180)"><line x2="-6" y2="0"></line><text dy=".32em" style="text-anchor: end;" x="-9" y="0">0.4</text></g><g class="tick" style="opacity: 1;" transform="translate(0,150)"><line x2="-6" y2="0"></line><text dy=".32em" style="text-anchor: end;" x="-9" y="0">0.5</text></g><g class="tick" style="opacity: 1;" transform="translate(0,120)"><line x2="-6" y2="0"></line><text dy=".32em" style="text-anchor: end;" x="-9" y="0">0.6</text></g><g class="tick" style="opacity: 1;" transform="translate(0,90.00000000000001)"><line x2="-6" y2="0"></line><text dy=".32em" style="text-anchor: end;" x="-9" y="0">0.7</text></g><g class="tick" style="opacity: 1;" transform="translate(0,59.999999999999986)"><line x2="-6" y2="0"></line><text dy=".32em" style="text-anchor: end;" x="-9" y="0">0.8</text></g><g class="tick" style="opacity: 1;" transform="translate(0,29.999999999999993)"><line x2="-6" y2="0"></line><text dy=".32em" style="text-anchor: end;" x="-9" y="0">0.9</text></g><g class="tick" style="opacity: 1;" transform="translate(0,0)"><line x2="-6" y2="0"></line><text dy=".32em" style="text-anchor: end;" x="-9" y="0">1.0</text></g><path class="domain" d="M-6,0H0V300H-6"></path><text x="-150" y="-35" transform="rotate(-90)">正解率</text></g><path d="M6,205.71428571428572L12,222.85714285714286L18,220.00000000000003L24,205.71428571428572L30,200.00000000000003L36,191.42857142857142L42.00000000000001,191.42857142857142L48,177.14285714285714L54,165.71428571428572L60,148.57142857142858L66,137.14285714285717L72,137.14285714285717L78,125.7142857142857L84.00000000000001,120L90,122.85714285714285L96,117.14285714285712L102.00000000000001,114.28571428571428L108,105.71428571428571L114,100.00000000000001L120,100.00000000000001L126,94.28571428571428L132,102.85714285714286L138,94.28571428571428L144,97.14285714285712L150,97.14285714285712L156,94.28571428571428L162,97.14285714285712L168.00000000000003,100.00000000000001L174,88.57142857142856L180,102.85714285714286L186,97.14285714285712L192,88.57142857142856L198,94.28571428571428L204.00000000000003,91.42857142857143L210,85.71428571428571L216,91.42857142857143L222,94.28571428571428L228,88.57142857142856L234,88.57142857142856L240,94.28571428571428L245.99999999999997,94.28571428571428L252,82.85714285714286L258,97.14285714285712L264,85.71428571428571L270,91.42857142857143L276,85.71428571428571L282,85.71428571428571L288,85.71428571428571L294,91.42857142857143L300,88.57142857142856" stroke="blue" fill="none"></path><path d="M6,186.66666666666666L12,193.33333333333331L18,180L24,186.66666666666666L30,186.66666666666666L36,180L42.00000000000001,173.33333333333331L48,160L54,146.66666666666669L60,140L66,126.66666666666669L72,126.66666666666669L78,120L84.00000000000001,113.33333333333333L90,106.66666666666666L96,106.66666666666666L102.00000000000001,106.66666666666666L108,106.66666666666666L114,106.66666666666666L120,100.00000000000001L126,100.00000000000001L132,100.00000000000001L138,100.00000000000001L144,93.33333333333333L150,100.00000000000001L156,93.33333333333333L162,93.33333333333333L168.00000000000003,93.33333333333333L174,100.00000000000001L180,100.00000000000001L186,100.00000000000001L192,100.00000000000001L198,100.00000000000001L204.00000000000003,93.33333333333333L210,93.33333333333333L216,93.33333333333333L222,93.33333333333333L228,93.33333333333333L234,93.33333333333333L240,93.33333333333333L245.99999999999997,86.66666666666666L252,86.66666666666666L258,86.66666666666666L264,86.66666666666666L270,86.66666666666666L276,86.66666666666666L282,86.66666666666666L288,86.66666666666666L294,86.66666666666666L300,86.66666666666666" stroke="red" fill="none"></path></g></svg>
