<svg xmlns="http://www.w3.org/2000/svg" width="740" height="370"><g transform="translate(50, 20)"><g transform="translate(0, 300)"><g class="tick" style="opacity: 1;" transform="translate(0,0)"><line y2="6" x2="0"></line><text dy=".71em" style="text-anchor: middle;" y="9" x="0">0</text></g><g class="tick" style="opacity: 1;" transform="translate(30,0)"><line y2="6" x2="0"></line><text dy=".71em" style="text-anchor: middle;" y="9" x="0">5</text></g><g class="tick" style="opacity: 1;" transform="translate(60,0)"><line y2="6" x2="0"></line><text dy=".71em" style="text-anchor: middle;" y="9" x="0">10</text></g><g class="tick" style="opacity: 1;" transform="translate(90,0)"><line y2="6" x2="0"></line><text dy=".71em" style="text-anchor: middle;" y="9" x="0">15</text></g><g class="tick" style="opacity: 1;" transform="translate(120,0)"><line y2="6" x2="0"></line><text dy=".71em" style="text-anchor: middle;" y="9" x="0">20</text></g><g class="tick" style="opacity: 1;" transform="translate(150,0)"><line y2="6" x2="0"></line><text dy=".71em" style="text-anchor: middle;" y="9" x="0">25</text></g><g class="tick" style="opacity: 1;" transform="translate(180,0)"><line y2="6" x2="0"></line><text dy=".71em" style="text-anchor: middle;" y="9" x="0">30</text></g><g class="tick" style="opacity: 1;" transform="translate(210,0)"><line y2="6" x2="0"></line><text dy=".71em" style="text-anchor: middle;" y="9" x="0">35</text></g><g class="tick" style="opacity: 1;" transform="translate(240,0)"><line y2="6" x2="0"></line><text dy=".71em" style="text-anchor: middle;" y="9" x="0">40</text></g><g class="tick" style="opacity: 1;" transform="translate(270,0)"><line y2="6" x2="0"></line><text dy=".71em" style="text-anchor: middle;" y="9" x="0">45</text></g><g class="tick" style="opacity: 1;" transform="translate(300,0)"><line y2="6" x2="0"></line><text dy=".71em" style="text-anchor: middle;" y="9" x="0">50</text></g><path class="domain" d="M0,6V0H300V6"></path><text x="150" y="35">回数</text></g><g><g class="tick" style="opacity: 1;" transform="translate(0,300)"><line x2="-6" y2="0"></line><text dy=".32em" style="text-anchor: end;" x="-9" y="0">0.0</text></g><g class="tick" style="opacity: 1;" transform="translate(0,270)"><line x2="-6" y2="0"></line><text dy=".32em" style="text-anchor: end;" x="-9" y="0">0.1</text></g><g class="tick" style="opacity: 1;" transform="translate(0,240)"><line x2="-6" y2="0"></line><text dy=".32em" style="text-anchor: end;" x="-9" y="0">0.2</text></g><g class="tick" style="opacity: 1;" transform="translate(0,210)"><line x2="-6" y2="0"></line><text dy=".32em" style="text-anchor: end;" x="-9" y="0">0.3</text></g><g class="tick" style="opacity: 1;" transform="translate(0,180)"><line x2="-6" y2="0"></line><text dy=".32em" style="text-anchor: end;" x="-9" y="0">0.4</text></g><g class="tick" style="opacity: 1;" transform="translate(0,150)"><line x2="-6" y2="0"></line><text dy=".32em" style="text-anchor: end;" x="-9" y="0">0.5</text></g><g class="tick" style="opacity: 1;" transform="translate(0,120)"><line x2="-6" y2="0"></line><text dy=".32em" style="text-anchor: end;" x="-9" y="0">0.6</text></g><g class="tick" style="opacity: 1;" transform="translate(0,90.00000000000001)"><line x2="-6" y2="0"></line><text dy=".32em" style="text-anchor: end;" x="-9" y="0">0.7</text></g><g class="tick" style="opacity: 1;" transform="translate(0,59.999999999999986)"><line x2="-6" y2="0"></line><text dy=".32em" style="text-anchor: end;" x="-9" y="0">0.8</text></g><g class="tick" style="opacity: 1;" transform="translate(0,29.999999999999993)"><line x2="-6" y2="0"></line><text dy=".32em" style="text-anchor: end;" x="-9" y="0">0.9</text></g><g class="tick" style="opacity: 1;" transform="translate(0,0)"><line x2="-6" y2="0"></line><text dy=".32em" style="text-anchor: end;" x="-9" y="0">1.0</text></g><path class="domain" d="M-6,0H0V300H-6"></path><text x="-150" y="-35" transform="rotate(-90)">誤差</text></g><path d="M6,69.0577665088831L12,172.84181176603488L18,201.4320819215692L24,213.2335178929219L30,220.67424018168046L36,227.94184308838626L42.00000000000001,231.15304710584144L48,235.29565509798252L54,237.57432129408255L60,243.53233537810368L66,244.73124172072514L72,245.46061478746475L78,250.24419062125497L84.00000000000001,249.82054862980198L90,253.99702160942917L96,255.2753930887654L102.00000000000001,254.77625609374206L108,255.50413184709012L114,259.3763764706225L120,261.34151301809607L126,253.58278566873324L132,261.06159984168073L138,260.72381056222673L144,263.5593203029697L150,262.22819322954547L156,264.8261433418351L162,263.7452940229875L168.00000000000003,265.7381656740059L174,266.22895168375356L180,265.9953494133578L186,267.35598767949455L192,266.1521281322669L198,267.6435352948164L204.00000000000003,267.16336351969085L210,268.8774060604823L216,269.677174543451L222,266.8635792676619L228,269.31336190858406L234,270.32006690584984L240,270.316865175086L245.99999999999997,270.2719567086737L252,270.67923946978357L258,270.24015476152726L264,272.3665150002231L270,270.1448211289193L276,271.7574911762805L282,271.50777105086763L288,271.79080509647036L294,271.91218220853926L300,271.9071132740353" stroke="blue" fill="none"></path><path d="M6,133.18502568171883L12,189.3766252539005L18,203.94880948994592L24,213.46715258670193L30,220.2232853353875L36,219.24550073212316L42.00000000000001,226.24356042830976L48,226.5658405836917L54,236.7073188544972L60,235.72857728175518L66,235.86319773699162L72,242.85003145411642L78,243.08468329436386L84.00000000000001,247.34919398931854L90,248.59781510280342L96,243.74802834770583L102.00000000000001,248.33624956174543L108,252.21193935571068L114,248.3368771447052L120,233.93372579643025L126,251.73673402594991L132,252.5385379092738L138,256.341884630135L144,250.80118019211116L150,257.64860909638463L156,254.2595504734444L162,259.107369215902L168.00000000000003,259.7410272892422L174,260.2366341769479L180,260.1097800774652L186,255.01960403752088L192,260.6252676189119L198,256.82562501952674L204.00000000000003,261.0462427152094L210,262.609288422591L216,255.7332657601684L222,263.0169947232563L228,261.326376323806L234,257.7751064080952L240,258.67161930742316L245.99999999999997,260.16330351421453L252,260.3429420533235L258,262.83582040209984L264,256.81842584966586L270,265.47238571440545L276,264.2103640455149L282,265.0141936936339L288,264.37922198486785L294,263.6538253391813L300,265.51831493366467" stroke="red" fill="none"></path></g><g transform="translate(420, 20)"><g transform="translate(0, 300)"><g class="tick" style="opacity: 1;" transform="translate(0,0)"><line y2="6" x2="0"></line><text dy=".71em" style="text-anchor: middle;" y="9" x="0">0</text></g><g class="tick" style="opacity: 1;" transform="translate(30,0)"><line y2="6" x2="0"></line><text dy=".71em" style="text-anchor: middle;" y="9" x="0">5</text></g><g class="tick" style="opacity: 1;" transform="translate(60,0)"><line y2="6" x2="0"></line><text dy=".71em" style="text-anchor: middle;" y="9" x="0">10</text></g><g class="tick" style="opacity: 1;" transform="translate(90,0)"><line y2="6" x2="0"></line><text dy=".71em" style="text-anchor: middle;" y="9" x="0">15</text></g><g class="tick" style="opacity: 1;" transform="translate(120,0)"><line y2="6" x2="0"></line><text dy=".71em" style="text-anchor: middle;" y="9" x="0">20</text></g><g class="tick" style="opacity: 1;" transform="translate(150,0)"><line y2="6" x2="0"></line><text dy=".71em" style="text-anchor: middle;" y="9" x="0">25</text></g><g class="tick" style="opacity: 1;" transform="translate(180,0)"><line y2="6" x2="0"></line><text dy=".71em" style="text-anchor: middle;" y="9" x="0">30</text></g><g class="tick" style="opacity: 1;" transform="translate(210,0)"><line y2="6" x2="0"></line><text dy=".71em" style="text-anchor: middle;" y="9" x="0">35</text></g><g class="tick" style="opacity: 1;" transform="translate(240,0)"><line y2="6" x2="0"></line><text dy=".71em" style="text-anchor: middle;" y="9" x="0">40</text></g><g class="tick" style="opacity: 1;" transform="translate(270,0)"><line y2="6" x2="0"></line><text dy=".71em" style="text-anchor: middle;" y="9" x="0">45</text></g><g class="tick" style="opacity: 1;" transform="translate(300,0)"><line y2="6" x2="0"></line><text dy=".71em" style="text-anchor: middle;" y="9" x="0">50</text></g><path class="domain" d="M0,6V0H300V6"></path><text x="150" y="35">回数</text></g><g><g class="tick" style="opacity: 1;" transform="translate(0,300)"><line x2="-6" y2="0"></line><text dy=".32em" style="text-anchor: end;" x="-9" y="0">0.0</text></g><g class="tick" style="opacity: 1;" transform="translate(0,270)"><line x2="-6" y2="0"></line><text dy=".32em" style="text-anchor: end;" x="-9" y="0">0.1</text></g><g class="tick" style="opacity: 1;" transform="translate(0,240)"><line x2="-6" y2="0"></line><text dy=".32em" style="text-anchor: end;" x="-9" y="0">0.2</text></g><g class="tick" style="opacity: 1;" transform="translate(0,210)"><line x2="-6" y2="0"></line><text dy=".32em" style="text-anchor: end;" x="-9" y="0">0.3</text></g><g class="tick" style="opacity: 1;" transform="translate(0,180)"><line x2="-6" y2="0"></line><text dy=".32em" style="text-anchor: end;" x="-9" y="0">0.4</text></g><g class="tick" style="opacity: 1;" transform="translate(0,150)"><line x2="-6" y2="0"></line><text dy=".32em" style="text-anchor: end;" x="-9" y="0">0.5</text></g><g class="tick" style="opacity: 1;" transform="translate(0,120)"><line x2="-6" y2="0"></line><text dy=".32em" style="text-anchor: end;" x="-9" y="0">0.6</text></g><g class="tick" style="opacity: 1;" transform="translate(0,90.00000000000001)"><line x2="-6" y2="0"></line><text dy=".32em" style="text-anchor: end;" x="-9" y="0">0.7</text></g><g class="tick" style="opacity: 1;" transform="translate(0,59.999999999999986)"><line x2="-6" y2="0"></line><text dy=".32em" style="text-anchor: end;" x="-9" y="0">0.8</text></g><g class="tick" style="opacity: 1;" transform="translate(0,29.999999999999993)"><line x2="-6" y2="0"></line><text dy=".32em" style="text-anchor: end;" x="-9" y="0">0.9</text></g><g class="tick" style="opacity: 1;" transform="translate(0,0)"><line x2="-6" y2="0"></line><text dy=".32em" style="text-anchor: end;" x="-9" y="0">1.0</text></g><path class="domain" d="M-6,0H0V300H-6"></path><text x="-150" y="-35" transform="rotate(-90)">正解率</text></g><path d="M6,91.42857142857143L12,42.85714285714287L18,31.428571428571416L24,8.571428571428575L30,17.14285714285715L36,11.428571428571422L42.00000000000001,22.857142857142843L48,17.14285714285715L54,14.285714285714302L60,8.571428571428575L66,11.428571428571422L72,17.14285714285715L78,8.571428571428575L84.00000000000001,8.571428571428575L90,14.285714285714302L96,11.428571428571422L102.00000000000001,5.714285714285728L108,11.428571428571422L114,5.714285714285728L120,5.714285714285728L126,8.571428571428575L132,8.571428571428575L138,8.571428571428575L144,8.571428571428575L150,8.571428571428575L156,11.428571428571422L162,8.571428571428575L168.00000000000003,8.571428571428575L174,5.714285714285728L180,8.571428571428575L186,8.571428571428575L192,8.571428571428575L198,8.571428571428575L204.00000000000003,5.714285714285728L210,8.571428571428575L216,5.714285714285728L222,11.428571428571422L228,8.571428571428575L234,5.714285714285728L240,8.571428571428575L245.99999999999997,5.714285714285728L252,8.571428571428575L258,8.571428571428575L264,8.571428571428575L270,5.714285714285728L276,8.571428571428575L282,5.714285714285728L288,5.714285714285728L294,8.571428571428575L300,11.428571428571422" stroke="blue" fill="none"></path><path d="M6,113.33333333333333L12,19.999999999999996L18,19.999999999999996L24,13.33333333333332L30,13.33333333333332L36,13.33333333333332L42.00000000000001,19.999999999999996L48,13.33333333333332L54,13.33333333333332L60,19.999999999999996L66,13.33333333333332L72,13.33333333333332L78,19.999999999999996L84.00000000000001,13.33333333333332L90,13.33333333333332L96,13.33333333333332L102.00000000000001,19.999999999999996L108,19.999999999999996L114,19.999999999999996L120,26.66666666666667L126,19.999999999999996L132,19.999999999999996L138,13.33333333333332L144,13.33333333333332L150,19.999999999999996L156,19.999999999999996L162,13.33333333333332L168.00000000000003,13.33333333333332L174,13.33333333333332L180,13.33333333333332L186,19.999999999999996L192,13.33333333333332L198,19.999999999999996L204.00000000000003,13.33333333333332L210,13.33333333333332L216,13.33333333333332L222,13.33333333333332L228,13.33333333333332L234,19.999999999999996L240,19.999999999999996L245.99999999999997,19.999999999999996L252,19.999999999999996L258,13.33333333333332L264,13.33333333333332L270,13.33333333333332L276,13.33333333333332L282,13.33333333333332L288,13.33333333333332L294,19.999999999999996L300,13.33333333333332" stroke="red" fill="none"></path></g></svg>
