<svg xmlns="http://www.w3.org/2000/svg" width="470" height="370"><g transform="translate(50, 20)"><g transform="translate(0, 300)"><g class="tick" style="opacity: 1;" transform="translate(0,0)"><line y2="6" x2="0"></line><text dy=".71em" style="text-anchor: middle;" y="9" x="0">0</text></g><g class="tick" style="opacity: 1;" transform="translate(40,0)"><line y2="6" x2="0"></line><text dy=".71em" style="text-anchor: middle;" y="9" x="0">1</text></g><g class="tick" style="opacity: 1;" transform="translate(80,0)"><line y2="6" x2="0"></line><text dy=".71em" style="text-anchor: middle;" y="9" x="0">2</text></g><g class="tick" style="opacity: 1;" transform="translate(120,0)"><line y2="6" x2="0"></line><text dy=".71em" style="text-anchor: middle;" y="9" x="0">3</text></g><g class="tick" style="opacity: 1;" transform="translate(160,0)"><line y2="6" x2="0"></line><text dy=".71em" style="text-anchor: middle;" y="9" x="0">4</text></g><g class="tick" style="opacity: 1;" transform="translate(200,0)"><line y2="6" x2="0"></line><text dy=".71em" style="text-anchor: middle;" y="9" x="0">5</text></g><g class="tick" style="opacity: 1;" transform="translate(240,0)"><line y2="6" x2="0"></line><text dy=".71em" style="text-anchor: middle;" y="9" x="0">6</text></g><g class="tick" style="opacity: 1;" transform="translate(280,0)"><line y2="6" x2="0"></line><text dy=".71em" style="text-anchor: middle;" y="9" x="0">7</text></g><g class="tick" style="opacity: 1;" transform="translate(320,0)"><line y2="6" x2="0"></line><text dy=".71em" style="text-anchor: middle;" y="9" x="0">8</text></g><g class="tick" style="opacity: 1;" transform="translate(360,0)"><line y2="6" x2="0"></line><text dy=".71em" style="text-anchor: middle;" y="9" x="0">9</text></g><g class="tick" style="opacity: 1;" transform="translate(400,0)"><line y2="6" x2="0"></line><text dy=".71em" style="text-anchor: middle;" y="9" x="0">10</text></g><path class="domain" d="M0,6V0H400V6"></path><text x="200" y="35">番号</text></g><g><g class="tick" style="opacity: 1;" transform="translate(0,300)"><line x2="-6" y2="0"></line><text dy=".32em" style="text-anchor: end;" x="-9" y="0">0</text></g><g class="tick" style="opacity: 1;" transform="translate(0,260)"><line x2="-6" y2="0"></line><text dy=".32em" style="text-anchor: end;" x="-9" y="0">2</text></g><g class="tick" style="opacity: 1;" transform="translate(0,219.99999999999997)"><line x2="-6" y2="0"></line><text dy=".32em" style="text-anchor: end;" x="-9" y="0">4</text></g><g class="tick" style="opacity: 1;" transform="translate(0,180)"><line x2="-6" y2="0"></line><text dy=".32em" style="text-anchor: end;" x="-9" y="0">6</text></g><g class="tick" style="opacity: 1;" transform="translate(0,140)"><line x2="-6" y2="0"></line><text dy=".32em" style="text-anchor: end;" x="-9" y="0">8</text></g><g class="tick" style="opacity: 1;" transform="translate(0,100)"><line x2="-6" y2="0"></line><text dy=".32em" style="text-anchor: end;" x="-9" y="0">10</text></g><g class="tick" style="opacity: 1;" transform="translate(0,60)"><line x2="-6" y2="0"></line><text dy=".32em" style="text-anchor: end;" x="-9" y="0">12</text></g><g class="tick" style="opacity: 1;" transform="translate(0,20)"><line x2="-6" y2="0"></line><text dy=".32em" style="text-anchor: end;" x="-9" y="0">14</text></g><path class="domain" d="M-6,0H0V300H-6"></path><text x="-150" y="-30" transform="rotate(-90)">個数</text></g><path d="M40,240L80,200L120,219.99999999999997L160,180L200,120L240,260L280,140L320,160L360,200L400,80" stroke="blue" fill="none"></path></g></svg>
